<?xml version="1.0" encoding="UTF-8"?>
<svg id="Layer_1" xmlns="http://www.w3.org/2000/svg" version="1.1" viewBox="0 0 22.08 18.55">
  <!-- Generator: Adobe Illustrator 29.6.1, SVG Export Plug-In . SVG Version: 2.1.1 Build 9)  -->
  <path d="M21.79,14.03c-.12-.08-.26-.14-.41-.14H6.55c-.8,0-.87-.7-.88-.84,0-.07,0-.31.12-.52.11-.19.3-.36.67-.4v.02s14.96-1.09,14.96-1.09c.37-.03.66-.34.66-.71V3.11c0-.39-.32-.71-.71-.71H5.1l-.54-1.15C4.2.49,3.43,0,2.58,0H.71C.32,0,0,.32,0,.71s.32.71.71.71h1.67c.27,0,.52.15.64.39l4.34,8.74-1.03.1c-1.42.14-2.13,1.28-2.13,2.36v.12c.06,1.12.89,2.26,2.38,2.26h1.93c-.56.27-.94.83-.94,1.49,0,.91.74,1.66,1.66,1.66s1.66-.74,1.66-1.66c0-.66-.39-1.22-.94-1.49h8.92c-.56.27-.94.83-.94,1.49,0,.91.74,1.66,1.66,1.66s1.66-.74,1.66-1.66c0-.66-.39-1.22-.94-1.49h1.07c.29,0,.53-.17.65-.4.06-.11.1-.22.1-.35,0-.26-.14-.47-.34-.61Z"/>
</svg>