<?xml version="1.0" encoding="UTF-8"?>
<svg id="Layer_1" data-name="Layer 1" xmlns="http://www.w3.org/2000/svg" viewBox="0 0 474.55 456.61">
  <defs>
    <style>
      .cls-1 {
        fill: #010101;
      }
    </style>
  </defs>
  <g>
    <g>
      <path class="cls-1" d="M151.19,211.91c4.48,1.51,9.08,2.69,13.66,3.49,5.09.9,10.12,1.35,15.01,1.35,2.56,0,5.06-.12,7.54-.37,1.51-.15,2.61-1.5,2.46-3.01-.15-1.51-1.49-2.61-3.01-2.46-6.72.67-13.81.35-21.05-.93-4.31-.77-8.63-1.87-12.86-3.3-1.44-.49-2.99.29-3.48,1.73-.49,1.44.29,2.99,1.73,3.48Z"/>
      <path class="cls-1" d="M246.01,242.23h.01c5.79,1.01,11.69,1.52,17.57,1.52.6,0,1.21,0,1.8-.01,5.26-.1,10.54-.61,15.73-1.51,1.5-.27,2.5-1.68,2.23-3.18-.26-1.5-1.68-2.5-3.18-2.23-4.91.86-9.91,1.34-14.89,1.42-6.12.11-12.28-.37-18.32-1.42-1.5-.27-2.92.74-3.18,2.23-.26,1.5.74,2.92,2.23,3.18Z"/>
      <path class="cls-1" d="M57.3,56.9c.27.33.55.65.84.95.28.3.57.61.88.9.32.32.65.62.99.91.4.35.82.69,1.23,1.02.27.21.55.41.83.62,1.24.89,2.56,1.66,3.91,2.28.28.13.56.26.84.37.17.07.35.15.52.21.27.11.55.21.82.3.02,0,.06.02.09.04.4.13.8.26,1.22.37.15.04.29.07.44.11,1.35.34,2.73.55,4.11.62.33.01.65.02.96.02,4.38,0,8.36-1.47,11.05-4.11,2.26-2.23,3.66-5.32,4.13-8.84.02-.18.05-.37.06-.56.07-.74.11-1.51.1-2.29-.02-1.56-.21-3.17-.58-4.8-.02-.1-.05-.21-.07-.3-.07-.33-.16-.65-.26-.97-.01-.06-.04-.12-.05-.18-.04-.13-.09-.26-.15-.38-.23-.5-.58-.89-1.02-1.17-.65-.4-1.45-.55-2.23-.32-1.46.43-2.29,1.95-1.86,3.41,1.46,5.02.71,9.91-1.91,12.49-1.79,1.77-4.68,2.69-7.9,2.52-2.48-.12-4.95-.86-7.22-2.12-.06-.04-.12-.06-.17-.1-1.44-.83-2.8-1.85-4.04-3.08-.33-.33-.66-.67-.96-1.02-.02-.04-.05-.06-.09-.1-.1-.11-.18-.21-.28-.32-.06-.07-.11-.13-.17-.19h-.01c-1-.99-2.58-1.06-3.68-.16-1.11.93-1.3,2.54-.47,3.7.04.06.09.11.12.17Z"/>
      <path class="cls-1" d="M125.84,41.16v.04c.21.11.41.21.63.3.26.12.51.23.75.33.51.21,1.03.4,1.55.57.33.11.66.19.99.28,1.24.33,2.51.52,3.76.58.21,0,.43.01.63.01h.06c3.76,0,7.02-1.33,9.25-3.77,3.49-3.82,4.35-10.52,2.23-17.47-.13-.45-.38-.84-.69-1.16,0,0-.01-.01-.02-.02-.1-.1-.19-.18-.3-.26-.67-.47-1.55-.66-2.4-.4-1.45.44-2.26,1.97-1.83,3.43,1.51,4.95,1.1,9.84-1.02,12.16-1.25,1.38-3.26,2.07-5.66,1.97-1.98-.09-4.03-.72-5.99-1.8-.34-.19-.68-.4-1.02-.62-.26-.16-.5-.33-.74-.51-.17-.12-.35-.26-.52-.39-.35-.27-.69-.55-1.02-.84-.17-.15-.33-.3-.5-.45-.01-.01-.02-.02-.05-.04-.83-.78-1.62-1.66-2.35-2.61-.29-.38-.66-.66-1.06-.84-.89-.39-1.96-.3-2.79.33-1.21.93-1.42,2.65-.5,3.85,2.47,3.21,5.44,5.71,8.62,7.32Z"/>
      <path class="cls-1" d="M144.06,56.58h0c-.18-.1-.37-.18-.56-.26-.05-.02-.11-.04-.16-.06-.16-.06-.32-.11-.47-.16-2.89-.88-5.73.02-6.84,2.31-.68,1.42-.56,3.1.35,4.61.27.44.58.85.96,1.23.12.12.26.26.39.37.27.24.56.46.88.67.16.1.32.19.47.29.16.1.33.18.5.27.13.07.28.13.43.19.12.05.24.1.36.15.16.06.32.11.47.16.71.21,1.41.3,2.08.3,2.06,0,3.86-.94,4.69-2.64.68-1.42.56-3.1-.35-4.61-.71-1.17-1.84-2.17-3.2-2.82Z"/>
      <path class="cls-1" d="M159.32,56.87h.01c.96.46,1.96.68,2.89.68,1.81,0,3.42-.84,4.15-2.36,1.12-2.31-.23-5.2-3.07-6.56-.24-.12-.49-.22-.73-.3-.02,0-.05-.01-.07-.02-2.59-.89-5.23-.09-6.25,2.01-1.12,2.31.23,5.2,3.07,6.56Z"/>
      <path class="cls-1" d="M344.42,348.28v-.02c-.27-.02-.56-.04-.84-.04-.33,0-.66.04-1,.09-2.67.39-4.86,2.13-5.84,4.65l-5.27,13.42c-.09.22-.21.41-.37.6l-9.37,10.45c-1.74,1.94-2.34,4.59-1.61,7.09.4,1.36,1.17,2.56,2.19,3.46.11.1.22.18.33.27.44.35.93.66,1.45.9.39.18.8.34,1.23.45l1.69.46c.34.1.68.16,1.02.21.11.01.23.02.34.04.19.01.39.02.58.02,1.78,0,3.52-.65,4.89-1.85l10.59-9.26c1.18-1.03,2-2.4,2.35-3.93l4.13-17.9c.51-2.22,0-4.5-1.41-6.28-1.28-1.62-3.1-2.61-5.09-2.8Z"/>
      <path class="cls-1" d="M472.23,184.12c-.05-.34-.16-.68-.33-.99-.43-3.06-1.23-6.11-2.41-9.08-1.18-2.97-2.76-5.95-4.7-8.85-3.87-5.79-9.31-11.47-16.17-16.89,1.56-1.73,3-3.29,4.39-4.77.04-.04.06-.07.1-.11,2.63-3.08,3.47-7.39,2.19-11.24l-.5-1.51c-.04-.1-.07-.18-.11-.28-1.95-4.26-4.8-6.84-8.05-7.29-4.58-.63-8.01,3.12-10.77,6.14-2.54,2.78-5.06,5.73-7.5,8.79.72-2.24,1.68-4.35,2.84-6.29,1.68-2.8,3.52-4.83,5.15-6.62,2.65-2.91,5.16-5.66,5-10.06-.22-6.05-5.54-12.05-10.96-12.34h-.39c-4.2,0-7.19,3.73-12.49,10.34l-.04.05c-2.28,2.84-4.41,5.86-6.33,8.98.1-1.36.18-2.74.26-4.09.22-3.93.37-7.94.44-11.89.01-.23.02-.45.04-.68.07-4.14-2.4-7.8-6.31-9.35-4.02-1.58-8.46-.56-11.32,2.61-1.07,1.19-2.03,2.48-2.84,3.83-3.29,5.53-3.45,10.91-3.53,13.79v.06c-.02.74-.06,1.5-.09,2.2-13.38-4.26-28.02-7.96-43.52-10.98h-.06c-2.61-2.54-5.56-4.58-8.78-6.04-3.3-1.5-6.77-2.35-10.32-2.53-4.97-.27-9.86.83-14.56,3.25-18.5-2.33-35.71-3.65-54.12-4.19-.99-2.93-2.48-5.37-4.46-7.26-5.98-5.73-14.55-5.38-27.52-4.83-9.5.4-18.97,1.92-28.15,4.55,1.47-3.01,2.78-6.06,3.88-9.08,4.92-13.35,12.36-33.55.82-47.25-2.46-2.92-5.61-5.28-9.35-7-3.15-1.45-6.77-2.45-10.74-2.99-7.18-.99-13.93-.24-17.31.29-1.22-2.67-2.69-5.2-4.38-7.55-1.67-2.33-3.57-4.48-5.62-6.4-2.07-1.92-4.31-3.63-6.68-5.06-2.4-1.45-4.94-2.65-7.56-3.55-8.79-3.02-17.68-2.52-24.41,1.39-4.44,2.58-7.97,5.95-10.48,10.03-2.5,4.04-3.92,8.66-4.25,13.72-4.08-3.96-8.94-6.82-14.44-8.49-7.52-2.28-16.03-2.28-24.62,0-9.76,2.59-18.19,9.03-23.7,18.14-2.65,4.38-4.5,9.15-5.49,14.18-.99,5.03-1.08,10.15-.29,15.25-3.88,4.09-7.44,8.53-10.58,13.2l-.29.44c-7.47,11.14-13.37,19.93-12.26,30.35.75,7.07,4.58,13.62,11.36,19.48,4.14,3.58,8.42,5.98,10.62,7.1-4.26,4.53-8.02,9.84-11.66,14.97-1.87,2.64-4.43,6.26-6.91,10.45-5.73,7.49-8.95,15.31-9.56,23.25h0c-1.16,9.52-2.41,24.18-2.41,33.92,0,32.03,6.27,63.11,18.65,92.36,11.95,28.26,29.06,53.63,50.85,75.42,21.79,21.79,47.16,38.9,75.42,50.85,29.25,12.37,60.33,18.65,92.36,18.65s63.11-6.27,92.36-18.65c28.26-11.95,53.63-29.06,75.42-50.85,21.79-21.79,38.9-47.16,50.85-75.42v.04c12.36-29.25,18.64-60.33,18.64-92.36,0-4.99-.15-10.04-.43-15.03-.38-6.73-1.01-13.53-1.89-20.21ZM375.67,120.7h0c2.01.58,4.03,1.17,5.99,1.77,1.96.6,3.92,1.21,5.82,1.83-.06.91-.13,1.89-.22,3.07-.16,2.23-.3,4.25-.43,6.33-.35-.12-.73-.26-1.08-.38l-.21-.07c-8.68-2.97-18.15-5.7-28.13-8.11-1.29-.32-2.47-.58-3.59-.85-.11-.26-.22-.51-.33-.78-.17-.41-.35-.83-.52-1.24-.83-2.81-2-5.49-3.48-7.97,9.05,1.9,17.85,4.07,26.19,6.42ZM386.56,155.39c-2.98-1.23-5.94-2.39-8.81-3.42-.21-.07-.41-.15-.62-.22-.13-.05-.26-.09-.39-.13-1.39-.49-2.67-.93-3.88-1.33-.44-.15-.88-.28-1.29-.43-1.56-.5-3.12-.99-4.65-1.44-1.36-.4-2.7-.79-4.01-1.14-2.02-5.54-4.2-11.16-6.46-16.73,10.81,2.62,20.95,5.6,30.17,8.87-.02,1.23-.04,2.31-.04,3.3h-.01c.04,4.16.05,8.57,0,12.66ZM386.38,161.33c-.3,7.11-1.01,12.31-2.2,16.36-.67,2.26-1.5,4.18-2.51,5.83-1.06,1.72-2.3,3.13-3.79,4.29-.55.43-1.14.83-1.74,1.19-2.46-9.09-5.21-18.24-8.17-27.15-.83-2.51-1.74-5.19-2.79-8.16,3.69,1.1,7.28,2.26,10.68,3.48,3.45,1.24,6.99,2.64,10.52,4.15ZM324.85,104.54h-.01c.22-.01.44.01.68.04.05,0,.1,0,.15.01h.1c.13.01.28.02.44.05.09,0,.18.02.27.04h.04c.12.02.24.04.37.05.11.01.22.04.33.05.11.01.22.04.33.05.11.02.23.04.37.06.07.01.15.02.21.04l.1.02c.12.02.24.05.35.07.02,0,.05.01.09.02.02,0,.04,0,.06.01.26.06.54.13.85.21h.06s.06.04.09.04c.32.09.61.17.88.26h.06c.33.11.67.23,1.06.37,7.61,2.85,13.6,9.58,16.03,17.98.04.11.07.22.11.32,5.49,12.83,10.51,26.06,14.91,39.31,3.27,9.86,6.27,19.97,8.92,30.01.13.49.39.94.75,1.29.12.12.26.22.39.32.09.05.17.1.26.15.04.02.07.04.11.05.01,0,.02,0,.04.01.05.02.11.05.17.07.06.02.13.05.21.07s.13.04.21.05c.06.01.13.02.19.04h.06s.09,0,.13.01h.5s.07,0,.12-.02h.02s.04,0,.06-.01c.04,0,.09-.02.13-.04h.02s.02-.01.05-.01c.07-.02.13-.04.19-.06,2.19-.82,4.21-1.94,6.01-3.34,3.8-2.97,6.48-7.19,8.18-12.9,1.44-4.81,2.23-10.83,2.52-18.95.11-.43.12-.85.04-1.27.15-5.1.11-10.55.06-16.33,0-1.45.01-3.01.07-4.77.02-.18.04-.38.02-.6.13-3.26.36-6.49.58-9.61.27-3.65.54-7.44.65-11.2v-.06c.07-2.56.21-6.83,2.76-11.13.62-1.05,1.35-2.03,2.18-2.96.09-.09.17-.18.28-.28h.01s.02-.04.04-.05c.09-.09.18-.16.28-.23,0,0,.02-.01.02-.02h.02c.1-.09.18-.15.27-.21h.02c.09-.06.18-.11.29-.17.02,0,.04-.02.06-.04.11-.05.21-.1.3-.15h.04c.09-.05.18-.07.28-.11h.02s.02-.01.04-.02c.1-.04.19-.06.3-.09h.06c.19-.05.4-.09.6-.1h.07c.11,0,.19,0,.28-.01h.04c.27,0,.55.02.83.07.07.01.16.02.24.05.1.02.19.05.29.07.17.05.33.1.46.16.04.01.09.04.13.05.04.01.06.02.1.05.06.02.11.05.17.09.13.07.26.15.39.22.94.58,2.06,1.72,2.02,3.71,0,.13,0,.28-.02.41v.18c-.06,3.92-.21,7.88-.43,11.77-.37,6.49-.95,13.05-1.73,19.51-.11.93.26,1.85.97,2.45.11.09.22.17.34.24.06.04.12.07.18.1.09.05.18.09.29.12.07.02.15.05.22.07s.16.04.23.05c.44.07,2.65.33,3.36-2.61.66-2.74,4.61-11.85,12.02-21.09,1.86-2.33,3.62-4.52,5.04-6.01,1.51-1.61,2.54-2.33,3.27-2.29.1,0,.21.01.33.04h.01c.1.02.21.05.33.07h.05c.1.02.21.07.32.11h.02s.02.01.04.02c.1.04.21.09.32.15l.05.02c.11.05.22.11.32.17h.02l.02.02c.11.07.22.13.32.21,0,0,.01,0,.02.01h.02c.12.1.22.17.33.26l.02.02c.12.1.23.18.34.28.06.06.12.11.18.17.37.34.69.72,1.01,1.13.16.21.3.43.44.65.74,1.19,1.17,2.46,1.21,3.66.07,2.05-1.11,3.45-3.57,6.14-1.72,1.89-3.85,4.22-5.81,7.5-3.37,5.62-5.17,12.26-5.36,19.7-.01.65.2,1.29.6,1.79.06.07.12.13.18.21.06.07.15.13.23.22.1.07.18.15.27.19.19.12.39.22.61.28.57.18,1.17.18,1.74,0,.57-.18,1.05-.55,1.39-1.03,4.33-6.18,8.98-12,13.82-17.29.13-.15.26-.28.38-.41l.04-.04c.12-.13.24-.26.37-.39l.05-.05c.12-.12.23-.24.35-.37l.05-.05c.11-.12.23-.23.34-.35l.05-.06c.12-.12.23-.23.33-.33l.05-.05c.12-.12.23-.22.33-.32l.04-.04c.12-.11.23-.22.33-.3l.02-.02c.23-.21.46-.4.67-.57l.02-.02c.1-.07.21-.16.32-.23l.04-.02c.1-.07.2-.13.29-.19l.05-.02c.1-.06.19-.11.28-.17l.05-.02c.1-.05.19-.1.28-.13h.04c.1-.05.18-.09.27-.11h.04c.1-.04.18-.06.27-.07.09-.01.17-.02.23-.02h.33c.07,0,.15.02.23.05.02,0,.04,0,.06.01.09.02.16.05.23.09,0,0,.12.06.18.09.32.17.66.41.99.73.13.12.27.27.39.41.13.15.26.3.39.47.45.61.88,1.33,1.25,2.13l.46,1.38c.67,2,.24,4.24-1.11,5.86-2.08,2.2-4.25,4.58-6.44,7.06l-.02.02s-.02.02-.04.04l-.12.15c-4.6,5.22-9.01,10.6-13.11,16.02-3.4,4.47-6.71,9.13-9.85,13.84-6.95,10.43-13.28,21.44-18.8,32.71-.41-.1-.83-.19-1.25-.29l-.11-.02c-.17-.04-.34-.07-.51-.11h-.04c-.55-.12-1.13-.24-1.79-.37-.24-.05-.52-.1-.8-.15-.17-.02-.37-.06-.55-.09-.52-.09-.97-.15-1.39-.21-.43-.06-.85-.11-1.27-.16-1.84-.21-3.68-.32-5.48-.33h-.86c-5.44.05-9.4.9-13.23,1.73h-.05c-.22.06-.43.1-.65.15-.19.05-.4.09-.6.12l-.27.06c-.11.02-.22.05-.33.07l-.23.05c-.12.02-.26.05-.38.07-.09.01-.16.04-.24.05-.12.02-.24.05-.37.07-.09.01-.16.04-.24.05-.12.02-.26.05-.38.07h-.01c-.07.01-.15.04-.22.05-.13.02-.28.05-.41.07h-.09s-.07.02-.12.04c-.43.07-.85.15-1.27.21-.04,0-.09,0-.12.01h-.09c-.15.04-.29.05-.44.07-.07,0-.16.02-.23.02h-.02c-.13.02-.28.04-.41.06-.09,0-.18.02-.27.04-.13.01-.27.04-.41.05-.1,0-.18.02-.28.02-.15.01-.28.02-.43.04h-.05c-.07,0-.15.02-.22.02l-.47.04h-.09s-.11.01-.16.02c-.27.02-.5.04-.73.05-.54.04-1.08.05-1.62.07-1.18-4.36-2.13-6.79-4.35-12.37-2.81-7.06-6.2-13.98-10.06-20.55-.04-.15-.06-.29-.1-.44l-.17-.78v-.05c-.04-.19-.09-.39-.12-.58l-.13-.63c-.02-.09-.04-.17-.06-.26-.02-.13-.06-.26-.09-.39-.02-.09-.04-.17-.06-.26l-.29-1.33c-.02-.13-.06-.26-.09-.39l-.06-.28c-.02-.12-.06-.26-.09-.38-.01-.06-.02-.12-.05-.19l-.05-.22c-.02-.09-.04-.17-.06-.26-.02-.1-.05-.21-.07-.3l-.02-.1c-.02-.09-.04-.17-.06-.26l-.07-.32c-.02-.12-.06-.24-.09-.37-.02-.11-.05-.21-.07-.32-.02-.12-.06-.24-.09-.37-.02-.1-.05-.18-.07-.28v-.04c-.04-.12-.07-.24-.1-.37-.02-.11-.05-.21-.09-.32-.04-.12-.06-.24-.1-.37-.02-.11-.05-.21-.09-.32-.04-.12-.06-.24-.1-.37-.02-.11-.06-.21-.09-.32-.02-.11-.06-.22-.09-.33v-.04c-.04-.11-.06-.21-.1-.32-.04-.12-.06-.24-.1-.37l-.09-.32c-.04-.12-.07-.24-.1-.37-.02-.11-.06-.21-.09-.32-.04-.12-.07-.24-.11-.37-.04-.11-.06-.21-.1-.32-.04-.12-.07-.24-.11-.37v-.05c-.04-.09-.07-.17-.1-.26-.04-.12-.07-.24-.11-.37-.04-.1-.06-.21-.1-.3-.04-.12-.07-.24-.11-.37l-.04-.11c-.02-.06-.04-.13-.06-.19-.04-.1-.06-.19-.1-.29l-.05-.15c-.02-.07-.05-.15-.07-.22-.04-.11-.07-.22-.11-.33l-.05-.13c-.02-.06-.05-.13-.07-.19-.04-.12-.09-.24-.12-.37v-.05c-.05-.07-.07-.16-.1-.23-.04-.1-.07-.21-.11-.3l-.04-.12c-.02-.07-.05-.15-.09-.22-.05-.12-.09-.23-.13-.35l-.04-.11c-.02-.06-.05-.12-.07-.18-.04-.1-.07-.19-.11-.3l-.06-.16s-.05-.11-.06-.17c-.05-.11-.09-.22-.13-.33l-.06-.16s-.04-.09-.05-.13c-.06-.16-.12-.3-.18-.45l-.02-.06s-.02-.07-.04-.1c-.09-.21-.18-.41-.26-.61v-.02c-.1-.19-.18-.39-.27-.58-.01-.04-.04-.07-.05-.11,0-.02-.02-.05-.04-.07-.06-.13-.12-.27-.18-.4-.02-.05-.05-.1-.07-.15l-.06-.12c-.05-.1-.1-.21-.15-.3-.02-.05-.05-.1-.07-.16l-.06-.12c-.05-.1-.1-.19-.15-.29-.02-.05-.05-.1-.09-.16l-.07-.13c-.05-.1-.1-.18-.15-.28-.04-.06-.06-.11-.1-.17l-.05-.09c-.05-.1-.11-.19-.16-.29-.04-.06-.06-.11-.1-.16l-.06-.1c-.05-.09-.1-.18-.16-.27-.04-.06-.06-.11-.1-.17l-.04-.07c-.06-.1-.11-.19-.17-.29-.04-.07-.09-.13-.13-.21v-.02c-.07-.1-.13-.18-.19-.28-.05-.07-.1-.15-.15-.22-.06-.11-.12-.19-.17-.28-.05-.07-.1-.15-.15-.21l-.02-.04c-.05-.07-.11-.16-.16-.23-.05-.07-.11-.15-.16-.22-.06-.09-.12-.17-.18-.24-.05-.07-.11-.15-.16-.22-.06-.09-.12-.16-.18-.24-.06-.07-.11-.13-.17-.21-.06-.07-.12-.16-.19-.23-.06-.07-.11-.13-.17-.19-.06-.07-.13-.15-.2-.22-.06-.06-.12-.13-.17-.19-.06-.07-.13-.15-.19-.21-.06-.06-.12-.12-.18-.18-.06-.07-.13-.13-.21-.21-.06-.06-.12-.12-.18-.18-.07-.07-.15-.13-.21-.19s-.12-.11-.18-.17c-.07-.06-.13-.12-.21-.18-.06-.05-.12-.11-.19-.16-.07-.06-.15-.11-.22-.17-.06-.05-.13-.1-.19-.15-.07-.05-.15-.11-.22-.16l-.02-.02s-.11-.09-.17-.12c-.07-.05-.15-.1-.23-.15l-.02-.02s-.11-.07-.17-.11c-.07-.05-.15-.09-.22-.13l-.04-.02s-.11-.07-.17-.1c-.07-.04-.15-.09-.22-.12l-.07-.04s-.1-.05-.15-.09c-.07-.04-.15-.07-.22-.11l-.09-.04-.15-.07c-.07-.04-.13-.06-.21-.09l-.05-.02s-.05-.02-.07-.02c-.05-.02-.1-.04-.13-.06-.07-.02-.15-.06-.22-.09l-.05-.02-.07-.02s-.09-.04-.13-.05c-.07-.02-.16-.05-.23-.07h-.05s-.05-.02-.07-.04c-.04-.01-.09-.02-.12-.04-.1-.02-.18-.05-.28-.07h-.05s-.05-.02-.07-.02c-.04,0-.06-.01-.1-.02-.16-.04-.33-.07-.49-.1-9.87-1.74-18.67,11.52-28.88,26.88-5.55,8.38-10.45,17.34-14.55,26.65v.04c-.06.09-.1.18-.13.28-1.18,2.69-2.18,5.13-3.08,7.45-6.83,2.23-13.95,3.42-21.17,3.54-.47,0-.96.01-1.44,0h-.01c-1.23,0-2.47-.04-3.7-.11-.72-.04-1.45-.09-2.17-.15-.5-.05-1.01-.1-1.52-.15h-.19c-.58-.06-1.21-.15-1.95-.24-1.64-.23-3.31-.52-4.94-.86-.95-.19-1.91-.43-2.85-.66-.93-.23-1.86-.49-2.78-.77-1.11-.33-2.23-.69-3.31-1.07-.29-.1-.55-.19-.82-.29-.3-.11-.62-.23-.93-.34-.3-.12-.62-.23-.91-.35-.61-.24-1.22-.49-1.81-.74-1.02-.44-2.03-.9-2.98-1.35l75.64-89.71c1.39-1.57,8.87-9.35,19.79-8.79ZM89.31,229.54h-.04c1.45,1.12,3.32,1.72,5.43,1.72,2.23,0,4.49-.67,6.2-1.84,2.03-1.39,4.03-3.91,4.86-12.78.06-.6.1-1.21.15-1.8.27.69.51,1.31.74,1.91.28.72.54,1.41.79,2.09,1.98,5.28,3.55,9.46,8.02,11.25.83.33,5.11,1.86,8.73-.55,2.98-1.98,3.55-5.36,3.83-6.98.29-1.73.32-3.43.07-5.21,1.5,2.06,3.07,3.12,5.11,3.41,3.29.47,6.4-1.5,8.05-3.66,4.11-5.45.43-13.31-1.35-17.09-.82-1.74-1.77-3.43-2.92-5.19,4.92,1.31,11.57,2.98,19.44,4.32,8.3,1.41,16.37,2.17,24.7,2.34,1.42.02,2.87.05,4.31.05,13.89,0,27.85-1.39,41.51-4.11l-3.63,4.3c-1.97-.12-3.94-.1-5.88.05-3.37.27-6.71.95-9.92,2.02-.69.23-1.27.73-1.59,1.39-.33.66-.38,1.41-.15,2.11.38,1.13,1.42,1.89,2.62,1.89.29,0,.6-.05.88-.15,2.79-.94,5.69-1.52,8.61-1.75,2.73-.22,5.49-.12,8.22.28,8.19,4.09,16.95,6.67,26,7.67,11.15,1.23,22.72-.04,33.43-3.68l9.31-.38c.74-.02,1.42-.34,1.92-.89.5-.55.75-1.24.73-1.98-.02-.74-.35-1.42-.89-1.92-.55-.5-1.24-.75-1.98-.72l-5.47.22c.45-1.11.9-2.19,1.34-3.21,4.24-.32,8.44-.75,12.47-1.3,3.31-.46,6.65-1.01,9.93-1.63.96-.18,1.77-.88,2.09-1.8l1.81-5.16c.82,5.32,1.39,10.71,1.7,16.04.45,7.58.41,15.3-.12,22.94h-8.36c-1.52,0-2.76,1.24-2.76,2.76s1.24,2.76,2.76,2.76h10.57c4.04,1.11,8.19,1.67,12.33,1.67.95,0,1.9-.02,2.85-.09,4.7-.28,9.31-1.28,13.73-2.95,3.4-.63,6.84-.85,10.24-.67.73.05,1.42-.19,1.97-.68.56-.5.89-1.18.93-1.92.04-.74-.21-1.45-.71-2-.5-.55-1.17-.88-1.91-.91-2.81-.16-5.69-.06-8.53.29l-.82-13.89c3.13.51,6.29.78,9.43.78.41,0,.84,0,1.27-.01,5.43-.12,9.34-.96,13.11-1.79,3.71-.8,7.23-1.57,12.11-1.61h.3c4.66,0,9.43.68,14.19,2.03,1.87.97,3.88,1.58,5.98,1.83.66.07,1.33.11,2,.11,1.62,0,3.24-.23,4.81-.68,1.46-.43,2.31-1.96,1.89-3.42-.21-.71-.67-1.29-1.31-1.66-.65-.35-1.39-.44-2.11-.23-1.52.44-3.08.57-4.64.39-.58-.06-1.18-.18-1.83-.38,4.89-9.93,10.45-19.69,16.5-28.99,3.35,2.73,6.27,6.06,8.47,9.67,2.8,4.58,4.64,9.8,5.32,15.13.04.24.11.5.23.77-1.97,2.23-4.3,4.46-6.91,6.61-10.35,8.53-25.24,16.22-44.25,22.85-39.47,13.77-92,21.34-147.91,21.34-51.6,0-101.14-6.6-139.5-18.57-11.81-3.69-22.39-7.83-31.43-12.28-8.97-4.43-16.47-9.2-22.27-14.17,0-.07-.06-.29-.15-.65-.37-1.53-1.35-5.61-.9-8.36.24-1.45.71-2.89,1.4-4.26.67,0,1.33.01,2,.01,10.18,0,20.56-.99,30.87-2.92,4.64,3.82,7.57,8.03,8.7,12.54.83,3.29.65,6.37.49,9.08-.23,3.8-.46,7.73,2.79,10.26ZM323.98,208.47c-.55-9.07-1.79-18.16-3.68-27.05-.12-.56-.4-1.06-.83-1.45-.07-.06-.15-.12-.22-.18-.07-.06-.16-.11-.23-.16-.1-.06-.21-.11-.32-.16-.04-.01-.07-.04-.11-.05-.27-.11-.55-.17-.83-.18-1.23-.09-2.37.67-2.79,1.84l-4.72,13.5c-2.68.49-5.39.93-8.08,1.29-2.91.4-5.98.74-9.12,1.02,3.54-7.5,7.65-14.78,12.21-21.65,7.72-11.61,15.69-23.62,21.84-24.52.19-.02.39-.05.58-.05.3,0,.61.01.9.06,7.23,1.27,11.16,20,13.27,30.07l4.13,50.46c-3.43,1.14-7,1.84-10.6,2.06-.96.06-1.95.09-2.91.07h-.04c-2.89-.04-5.77-.37-8.59-1,.57-7.95.62-16,.13-23.93ZM349.47,195.8v-.11c-.05-.66-.1-1.3-.15-1.94,1.08,2.35,2.11,4.74,3.04,7.09,1.87,4.71,2.82,7.12,3.76,10.37-.51-.04-1.02-.09-1.53-.13h-.04s-.09-.01-.13-.01c-.32-.04-.65-.07-1.03-.12-.27-.04-.47-.06-.67-.09-.18-.02-.35-.05-.54-.07-.39-.06-.74-.11-1.1-.17-.06,0-.12-.02-.18-.04h-.1c-.17-.04-.33-.07-.49-.1l-.74-12.56v-.21c-.04-.66-.07-1.3-.11-1.91ZM435.51,189.29h0c-1.81-2.98-4.02-5.75-6.54-8.24-1.13-1.12-2.34-2.18-3.58-3.17,2.64-3.9,5.42-7.74,8.23-11.46.07-.09.13-.18.21-.27.06-.07.11-.15.17-.22,7.28,7.24,10.97,14.74,10.97,22.3,0,4.64-1.41,9.31-4.19,13.88-1.08-4.57-2.85-8.89-5.27-12.83ZM257.74,139.14l17.62.82-8.5,10.07s-.01-.02-.02-.04c-.05-.09-.09-.17-.15-.24h.01c-2.7-3.69-5.72-7.26-8.96-10.6ZM257.61,111.24c.26-2.69.27-5.23.01-7.58,2.75.09,5.53.19,8.27.32,1,.05,1.97.1,2.91.15.29.01.6.04.89.05,2.59.13,5.2.29,7.75.46.27.01.54.04.8.05,2.09.15,4.22.3,6.32.46,3.01.24,6.1.51,9.2.82,3.27.32,6.6.67,9.87,1.05-1.38,1.21-2.31,2.2-2.74,2.69-.01.01-.02.04-.04.05l-4.49,5.33c-.79-.09-1.61-.17-2.42-.26-1.61-.17-3.19-.32-4.7-.46-.75-.07-1.52-.15-2.29-.21-8.73-.79-16.67-1.29-25.74-1.63-.39-.01-.78-.02-1.18-.04-.84-.02-1.69-.06-2.53-.09.05-.38.09-.77.12-1.14h-.02ZM256.51,117.88h0c12.83.37,23.13,1.03,35.52,2.29l-12.19,14.45-27.49-1.27h-.1c-.17,0-.35.02-.55.06-.18-.16-.38-.33-.56-.49.15-.32.3-.65.45-.96.15-.3.28-.61.41-.91,2.01-4.49,3.52-8.92,4.49-13.17ZM224.68,91.53v-.02h.02c4.19-.17,7.79-.33,10.96-.26,3.46.07,6.03.4,8.08,1.06,1.8.57,3.25,1.39,4.42,2.51,2.97,2.85,4.41,7.62,4.14,13.81-.27,6.15-2.19,13.31-5.56,20.72-.3-.23-.65-.49-1.03-.78-.09-.06-.16-.12-.24-.18l-.09-.06c-.24-.18-.5-.37-.75-.56-.12-.09-.24-.18-.37-.27-.28-.19-.56-.4-.86-.61-.04-.02-.07-.05-.11-.07-.05-.04-.1-.06-.15-.1-.32-.22-.67-.46-1.06-.73-.11-.07-.22-.15-.33-.22l-.13-.09c-.23-.16-.45-.3-.67-.45-.17-.11-.35-.23-.52-.34-.21-.13-.41-.27-.65-.41-.19-.13-.44-.28-.67-.43-.33-.21-.62-.39-.9-.56-.19-.12-.39-.24-.6-.35l-.06-.04c-.17-.11-.35-.21-.52-.32-.24-.15-.47-.28-.69-.41-.12-.07-.24-.15-.38-.22l-.11-.06c-.85-.5-1.73-.99-2.6-1.45l-.06-.04c-.12-.06-.24-.13-.36-.19-.27-.13-.54-.28-.82-.43-.12-.06-.24-.12-.37-.19l-.06-.04c-.28-.15-.56-.29-.84-.43l1.41-5.76c.16-.63.05-1.28-.28-1.84-.34-.55-.86-.95-1.5-1.1-.63-.16-1.28-.05-1.84.28-.55.34-.95.86-1.1,1.5l-1.18,4.81c-.54-.23-1.01-.44-1.47-.63-1.92-.82-3.92-1.57-5.92-2.26-.04-.01-.07-.02-.11-.04-1.66-.57-3.37-1.11-5.08-1.61-.52-.15-1.07-.3-1.63-.45-.73-.19-1.45-.38-2.15-.55-1.38-.34-2.78-.65-4.16-.93-3.38-.68-6.84-1.18-10.29-1.51-.23-.02-.46-.05-.69-.06-3.3-.29-6.63-.41-9.91-.38,2.84-3.62,5.43-7.4,7.72-11.29,10.42-3.52,21.23-5.53,32.13-5.99ZM10.41,179.71h.05c.71-3.7,2.53-8.17,5.44-13.29.1-.17.2-.34.29-.51.15-.24.29-.5.43-.74.02-.04.05-.07.07-.11.02-.04.06-.07.09-.12.29-.38.61-.75.91-1.12l.05-.06c.34-.41.55-.91.61-1.45,1.92-3.04,3.79-5.67,5.03-7.41,8.66-12.21,16.82-23.75,30.9-25.15.79-.09,1.66-.12,2.56-.11,2.8,0,7.22.45,12.32,2.47,5.95,2.36,11.46,6.29,16.35,11.7.15.17.33.32.52.45.12.07.23.15.33.19h.01c.3.15.62.22.96.26h.21c.68,0,1.34-.26,1.85-.72.55-.5.86-1.17.9-1.91.04-.74-.22-1.45-.71-2-2.05-2.25-7.65-7.93-15.58-11.86-.32-.16-.63-.3-.95-.46-.99-.46-1.98-.89-2.98-1.25-1.05-.4-2.12-.75-3.17-1.05-.35-.1-.67-.18-.99-.27-.02,0-.04,0-.06-.01-.02,0-.05-.01-.07-.02-4.02-1.01-8.07-1.31-12.06-.93-3.66.37-7.17,1.33-10.46,2.86-2.98,1.39-5.79,3.24-8.61,5.66-.23-.22-.45-.38-.69-.49-3.08-1.47-18.5-9.48-19.92-22.7-.9-8.42,4.25-16.09,11.36-26.7l.29-.44c2.8-4.18,5.98-8.17,9.42-11.87.49-.52.99-1.05,1.5-1.57.16-.16.29-.34.4-.52.34-.57.46-1.25.33-1.91-.27-1.45-.46-2.93-.57-4.39-.05-.58-.07-1.18-.09-1.78-.01-.58-.02-1.17,0-1.74,0-.41.02-.84.05-1.25.16-3.13.71-6.23,1.62-9.23.91-3.01,2.22-5.89,3.83-8.58,4.77-7.88,12.02-13.43,20.4-15.66,6.04-1.61,11.85-1.96,17.25-1.07.22.04.45.07.66.11.38.07.75.15,1.17.24.09.02.17.04.27.06.4.1.79.19,1.17.29.63.17,1.27.37,1.89.57,3.31,1.12,6.37,2.76,9.06,4.88,2.74,2.15,5.11,4.81,7.05,7.88.34.54.86.95,1.46,1.14.61.19,1.27.18,1.86-.04,1.21-.46,1.94-1.73,1.74-3.01h0v-.02c-.12-.75-.23-1.52-.32-2.29-.17-1.67-.22-3.31-.15-4.89.04-.62.09-1.25.16-1.86.91-7.68,5.02-13.84,11.87-17.82,5.33-3.1,12.56-3.45,19.83-.94,1.51.52,2.99,1.16,4.42,1.89,7.75,3.99,13.93,10.94,17.4,19.59.33.82,1.03,1.44,1.89,1.64.13.04.28.06.44.07h.27c.18,0,.37-.02.55-.06.49-.11,12.16-2.52,22.62.4.21.06.41.12.61.18,1.47.44,2.87.99,4.15,1.61.19.1.38.19.57.28.77.4,1.51.84,2.2,1.3.23.16.45.32.67.47.15.1.27.19.39.29.3.23.6.46.86.71.24.22.46.41.67.6.54.51,1.06,1.05,1.52,1.61,1.07,1.28,1.98,2.71,2.7,4.27-.95,3.19-2.23,6.26-3.79,9.11-5,9.15-15.25,20.99-50.35,31.27-22.67,6.63-46.74,9.99-71.72,9.99-3.54,0-7.11-.07-10.68-.21,1.22-1.58,2.4-2.34,2.73-2.53.82-.47,1.33-1.33,1.36-2.28,0-.3-.02-.62-.12-.91-.06-.21-.15-.4-.26-.58-.02-.05-.05-.09-.09-.12l-.02-.04c-.12-.18-.27-.35-.41-.49,0,0-.01-.01-.02-.02,0,0-.01,0-.01-.01-.26-.23-.55-.4-.86-.52-.78-.29-1.63-.21-2.35.21-1.02.6-4.54,2.93-6.72,8.05-.06.15-.12.3-.18.44-.02.05-.04.1-.06.15-.04.07-.06.15-.09.21,0,.02-.01.05-.02.07l-.02.06s-.04.1-.06.16v.06c-1.73,4.86-.95,8.69-.67,9.75.12.45.35.86.67,1.19.52.55,1.25.86,2,.86.24,0,.47-.04.71-.1.09-.02.18-.05.27-.09.09-.02.16-.06.24-.1,1.18-.57,1.79-1.92,1.45-3.19-.06-.21-.52-2.12.05-4.78,4.48.21,8.91.3,13.17.3,25.47,0,50.12-3.45,73.26-10.23,37.04-10.86,48.12-23.84,53.64-33.93.32-.57.65-1.22,1-1.95.18,9.45-3.7,20-6.54,27.71-10.02,27.2-31.13,44.5-47.09,54.22-.63.39-1.07.99-1.24,1.7-.17.72-.06,1.46.33,2.09.22.37.52.67.89.9.12.07.24.13.37.19.01,0,.02,0,.04.01.01,0,.04.01.05.02.33.13.67.19,1.02.19.5,0,1-.13,1.44-.4,5.06-3.09,9.92-6.49,14.44-10.09,5.42-4.32,10.4-9.01,14.8-13.91.9-.06,1.81-.1,2.73-.13.91-.02,1.83-.05,2.74-.05,3.91-.01,7.85.21,11.74.67,5.19.62,10.34,1.67,15.33,3.12,1.24.37,2.5.75,3.73,1.17.85.29,1.72.6,2.56.9,1.27.47,2.54.97,3.79,1.5.57.24,1.16.49,1.72.74,7.73,3.45,14.97,7.93,21.54,13.32.05.04.1.09.15.12h.01s.01,0,.01.01c.05.04.09.07.13.11.04.02.06.06.1.09.47.39.95.8,1.44,1.23,4.92,4.27,9.42,9.06,13.37,14.22.43.56.79,1.05,1.12,1.5.04.05.07.1.11.13.06.07.12.13.17.19h.01c.28.29.62.5.99.63l-30.79,36.51c-15.27,3.6-30.97,5.45-46.67,5.51h-2.43c-.82,0-1.64-.02-2.43-.04-.67-.01-1.36-.04-2.12-.06-1.78-.06-3.58-.15-5.36-.27-.16,0-.33-.02-.49-.04-7.68-.54-15.28-1.62-23.22-3.3-6.84-1.45-12.73-3.09-17.93-4.53-.11-.02-.22-.05-.37-.07-.11-.01-.22-.02-.32-.02h-.22c-3.98-4.09-8.78-7.69-14.24-10.73-8.13-4.5-17.63-7.79-28.19-9.75-.29-.05-.6-.11-.93-.17-.49-.09-.97-.17-1.46-.26-.65-.11-1.3-.21-1.95-.3-.57-.09-1.14-.17-1.7-.24-.21-.02-.41-.06-.63-.09-.97-.12-1.96-.24-2.95-.35-2.4-.26-4.87-.45-7.33-.58-.66-.04-1.31-.06-1.96-.1-.79-.04-1.57-.06-2.34-.07-.68-.01-1.36-.02-2.05-.04h-.07c-.69,0-1.39-.01-2.07,0-5.37,0-10.81.29-16.15.83-1.51.16-2.62,1.51-2.47,3.03.09.89.61,1.69,1.4,2.13.41.23.86.35,1.34.35.1,0,.19,0,.28-.01.74-.07,1.49-.15,2.2-.21.79-.07,1.58-.13,2.37-.19.27-.02.55-.04.83-.06,3.37-.23,6.76-.34,10.09-.35,1,0,2.01,0,2.99.02h.07c.66,0,1.31.02,1.97.05h.13c1.03.04,2.08.07,3.1.13,1.06.06,2.13.12,3.18.21h.17c.65.06,1.29.12,1.94.18.13.01.27.02.4.04,2.09.19,4.18.45,6.21.75.23.04.45.07.68.1.63.1,1.25.19,1.86.3,3.23.55,6.39,1.23,9.4,2.02,1.27.34,2.53.69,3.75,1.07.49.15.97.3,1.46.46,1.31.43,2.62.89,3.87,1.36.43.17.86.33,1.28.5.63.26,1.25.51,1.85.77.29.12.58.26.88.38.89.39,1.77.8,2.61,1.22,1.11.54,2.19,1.11,3.25,1.69,6.74,3.73,15.78,10.32,20.59,20.57,1.21,2.58,4.04,8.62,1.94,11.42-.57.77-1.72,1.55-2.63,1.55h-.04c-.06,0-.12,0-.18-.01-1.11-.16-2.29-2.43-3.77-5.31-.91-1.77-1.95-3.76-3.32-6.03-1.73-2.85-3.7-5.6-5.84-8.18-.3-.37-.62-.74-.94-1.1-.35-.41-.73-.83-1.1-1.23-.55-.6-1.33-.93-2.14-.9-.49.01-.96.16-1.38.43-1.03.65-1.52,1.92-1.18,3.1.02.1.06.18.09.27.24.62.49,1.22.72,1.79.24.62.49,1.22.72,1.79l.27.66c1.44,3.57,2.69,6.68,3.85,9.52l.12.29c.07.19.15.38.22.55l.16.38c1.53,3.76,2.74,6.73,2.13,10.32-.23,1.34-.54,2.69-1.45,3.31-.88.58-2.29.44-3.32.12-.11-.04-.21-.07-.29-.1-2.11-.84-3.13-3.35-4.91-8.06-.26-.69-.52-1.4-.8-2.13-2.18-5.66-4.6-11.43-7.18-17.15-.24-.55-.65-.99-1.17-1.28l-.22-.11h-.05c-.09-.04-.18-.07-.28-.1-.29-.09-.58-.13-.88-.12-.26,0-.51.05-.75.12-1.34.43-2.14,1.78-1.87,3.15,1.1,5.71,1.39,11.38.88,16.87-.32,3.43-1.01,7.73-2.47,8.74-.8.55-1.95.88-3.06.88-.21,0-.4-.01-.6-.04-.6-.07-1.11-.26-1.46-.54-.9-.71-.84-2.48-.66-5.56.18-2.96.4-6.65-.65-10.76-1.52-6.04-5.44-11.53-11.65-16.33-.07-.06-.16-.12-.24-.17-.09-.05-.17-.1-.26-.15-.02,0-.05-.02-.07-.04-.01,0-.02,0-.04-.01-.01,0-.02-.01-.05-.02-.04-.01-.07-.04-.11-.05-.29-.11-.61-.16-.91-.16-.18,0-.35.01-.54.05-12.39,2.42-24.8,3.42-36.89,2.96h-.23c-.86-.04-1.74-.09-2.6-.13-2.47-.15-4.95-.34-7.38-.61-1.57-.17-3.96-.43-6.45-.84-.17-.02-.33-.06-.5-.09-.07-.01-.15-.02-.22-.04-.43-.07-.84-.16-1.24-.23l-.15-.02c-.32-.06-.65-.13-.96-.19l-.09-.02c-.71-.16-1.38-.32-2.01-.49-.04,0-.09-.02-.12-.04-.57-.16-1.12-.33-1.62-.5-.43-.15-.83-.29-1.22-.45l-.1-.04c-.39-.16-.75-.32-1.08-.49h-.02c-.84-.41-1.55-.86-2.09-1.34-.15-.12-.28-.26-.4-.38-.23-.24-.43-.49-.58-.74-.56-.89-.96-1.92-1.18-3.07-.07-.35-.12-.73-.15-1.1-.04-.47-.06-.96-.05-1.45.02-.93.13-1.94.33-2.98ZM38.49,200.37v.02c-.41,1.16-.72,2.35-.93,3.54-.17,1.02-.26,2.07-.27,3.12-1.94-2.33-3.53-4.7-4.74-7.07,1.79.16,3.68.29,5.61.39h.32ZM11.72,195.55h0c.66.34,1.39.66,2.18.96.23.09.47.18.71.26.61.22,1.28.43,1.96.62.28.09.57.16.86.23.3.07.61.16.91.23,2.25.55,4.82,1.01,7.85,1.41.28.72.61,1.46.96,2.2.11.24.23.49.37.73.12.24.23.45.34.67.21.39.43.79.66,1.18.46.8.97,1.62,1.51,2.43.29.44.61.89.91,1.31,5.28,7.29,13.55,14.23,24.55,20.62,11.05,6.43,24.73,12.2,40.62,17.15,2.93.91,5.99,1.81,9.08,2.68l.57.16c1.01.28,2.06.56,3.13.85.27.07.52.13.79.21.99.26,2,.52,3.02.78.32.09.63.16.95.24,1.19.3,2.3.57,3.4.84,2.98.72,6.11,1.44,9.33,2.12.5.11.99.21,1.45.3,32.99,6.96,70.83,10.64,109.43,10.64,56.51,0,109.69-7.69,149.73-21.66,40.94-14.28,63.5-33.64,63.5-54.51,0-9.24-4.38-18.21-13.01-26.65l7.54-9.09c14.41,11.31,21.72,23.34,21.72,35.74,0,11.02-5.83,21.8-17.32,32.07-11.44,10.21-27.89,19.42-48.9,27.34-16.26,6.14-34.67,11.3-54.72,15.34-.21,0-.43.06-.68.13-16.4,3.27-33.86,5.79-51.88,7.47-18.18,1.69-37,2.56-55.94,2.56-24.99,0-49.54-1.49-72.93-4.41-.15-.04-.3-.05-.46-.06-16.74-2.11-32.83-4.95-47.86-8.46-15.13-3.53-29.25-7.77-41.99-12.56-.21-.07-.4-.16-.61-.23-.11-.04-.21-.09-.32-.12-.71-.27-1.41-.55-2.12-.82-.55-.21-1.08-.43-1.59-.63-.79-.32-1.58-.63-2.35-.95-1.03-.43-2.05-.85-3.03-1.27-.49-.21-1-.43-1.52-.66-15.56-6.79-28.13-14.43-37.36-22.66-3.71-3.31-6.88-6.73-9.4-10.15-2.52-3.42-4.47-6.91-5.78-10.42-.11-.28-.21-.56-.3-.84-.39-1.12-.72-2.26-.99-3.38-.13-.56-.26-1.13-.35-1.7-.05-.28-.1-.56-.13-.83.94.99,2.11,1.83,3.54,2.57ZM454.62,299.97l-3.24-2.23c-.8-.55-1.66-1.05-2.53-1.46-.01,0-.04-.01-.05-.02-.01,0-.04-.01-.05-.02-.5-.23-1.02-.45-1.53-.65-.17-.06-.34-.12-.52-.18-.19-.06-.4-.13-.63-.19-.29-.09-.58-.16-.89-.23-.74-.18-1.5-.32-2.24-.4-.09,0-.18-.02-.27-.02-.52-.05-1.06-.09-1.57-.09h-.29c-2.45,0-4.85.47-7.12,1.41l-10.85,4.46c-1.56.63-3.27.97-4.97.99-.24,0-.49,0-.73-.01l-5.94-.3c-6.82-.35-13.29,3.04-16.89,8.84-3.52,5.69-3.74,12.88-.55,18.77l6.88,12.72c.9,1.67,2.05,3.19,3.41,4.5.21.19.43.4.68.63,1.61,1.41,3.42,2.53,5.38,3.32l14.6,5.87c-7.11,9.75-15.03,19.02-23.57,27.55-21.28,21.28-46.07,37.99-73.66,49.67v.02c-28.57,12.09-58.92,18.21-90.21,18.21-3.12,0-6.27-.06-9.37-.18-6.81-.27-13.67-.84-20.4-1.7-1.27-.16-2.58-.34-3.9-.54-2.68-.39-5.38-.83-8.03-1.31-8.27-1.5-16.54-3.48-24.59-5.88-8.06-2.41-16.11-5.3-23.9-8.59-7.96-3.37-15.81-7.22-23.34-11.46-1.72-.96-3.45-1.96-5.13-2.97-1.13-.67-2.26-1.36-3.37-2.06-5.02-3.1-9.97-6.45-14.72-9.93-9.53-6.99-18.66-14.82-27.1-23.26-20.61-20.61-36.95-44.53-48.56-71.08-.38-.85-.74-1.73-1.11-2.58-1.87-4.44-3.64-8.98-5.22-13.53-.37-1.02-.73-2.11-1.17-3.41-.57-1.72-1.08-3.29-1.55-4.81-.63-2.06-1.25-4.15-1.83-6.22-.39-1.38-.77-2.79-1.12-4.18-.32-1.21-.62-2.45-.94-3.79-.07-.3-.15-.6-.22-.9-.43-1.78-.83-3.59-1.21-5.38-.06-.29-.12-.58-.18-.88-1.58-7.66-2.79-15.51-3.58-23.32-.79-7.83-1.19-15.83-1.19-23.78,0-3.85.21-8.87.6-14.55,3.58,7.62,9.65,15.01,18.07,21.96,8.45,6.98,19.25,13.53,32.13,19.45l-15.13,22.29c-1.89,2.78-1.9,6.29-.01,9.17l14.12,21.57c.3.47.49,1,.5,1.5l.83,27.29c.06,2.11.96,4.15,2.52,5.75l8.3,8.52c.07.07.15.16.22.24.39.47.63,1.01.71,1.55l4.13,30.36c.34,2.5,1.84,4.78,4.11,6.28,1.75,1.16,3.8,1.77,5.9,1.77,1.33,0,2.62-.24,3.85-.72.17-.07.35-.15.51-.22,1.25-.57,2.33-1.35,3.19-2.34.86-.99,1.46-2.13,1.78-3.38l6.42-24.96c.12-.45.19-.93.23-1.4l1.02-13.7c.02-.37.13-.72.32-1.05.18-.33.43-.62.73-.88.15-.12.32-.24.5-.35.27-.16.56-.29.88-.4.33-.11.67-.18,1.02-.22.46-.05.9-.22,1.28-.49l11.39-7.97c.41-.07.83-.18,1.23-.3.79-.26,1.55-.6,2.25-1.02,1.74-1.08,3.06-2.68,3.69-4.5l4.94-9.71c.07-.13.13-.28.17-.43,1.18-3.77-.51-7.79-4.2-9.99l-16.97-10.1c-.13-.09-.27-.17-.43-.29-.12-.09-.23-.18-.33-.27l-.02-.02s-.02-.01-.04-.02c-.28-.27-.51-.56-.68-.89-.09-.15-.15-.27-.18-.39l-7.44-19.31c-.43-1.1-1.06-2.09-1.9-2.97l-4.83-5.05c2.33.71,4.77,1.42,7.26,2.13.63.18,1.25.35,1.85.51,2.81.78,5.71,1.53,8.59,2.26.72.18,1.45.37,2.18.54.67.17,1.38.34,2.09.51,1.5.35,3.03.72,4.53,1.06.67.15,1.33.3,1.98.45,5.13,1.13,10.42,2.2,15.74,3.19,8.87,1.63,18.13,3.07,27.48,4.26l28.54,25.24c1.01.89,2.25,1.47,3.58,1.68l32.63,4.99s.12.02.18.04h.02s.1.02.15.05c.09.04.17.09.27.15,0,0,.01,0,.02.01,0,0,.02.01.02.02l12.73,9.69s.05.05.07.06c0,0,.1.1.13.15.39.45.46,1.08.21,1.62l-8.85,17.69c-.06.13-.12.26-.18.39-.41.96-.6,2.02-.55,3.07.05,1.05.34,2.09.84,3.02l3.48,6.42,4.75,17.13,7.57,22.73c.07.21.15.4.23.6l5.92,13.48c.45,1.03,1.16,1.95,2.03,2.65l.22.17c1.23.99,2.79,1.53,4.37,1.53,1.24,0,2.47-.33,3.54-.96l25.21-4.5c.72-.13,1.34-.52,1.77-1.12l19.89-27.95c.55-.45,1.02-.97,1.41-1.57l9.48-14.39c1.17-1.77,1.47-3.94.83-5.97l-3.06-9.68c-.13-.43-.07-.89.18-1.27l7.43-11.14c.77-1.16,1.18-2.5,1.18-3.88v-17.91c0-.18.04-.35.1-.52l6.01-16.03c.04-.09.07-.16.11-.23l12.59-21.3c20.05-4.08,38.48-9.26,54.79-15.41,17.36-6.56,31.85-14.05,43.05-22.27,11.11-8.16,18.88-16.93,23.08-26.1v.17c.27,4.88.41,9.84.43,14.72,0,27.77-4.85,54.9-14.41,80.64Z"/>
    </g>
    <path class="cls-1" d="M11.88,271.4s.01,0,.02,0h-.04s.01,0,.02,0Z"/>
  </g>
  <g>
    <g>
      <path class="cls-1" d="M151.19,211.91c4.48,1.51,9.08,2.69,13.66,3.49,5.09.9,10.12,1.35,15.01,1.35,2.56,0,5.06-.12,7.54-.37,1.51-.15,2.61-1.5,2.46-3.01-.15-1.51-1.49-2.61-3.01-2.46-6.72.67-13.81.35-21.05-.93-4.31-.77-8.63-1.87-12.86-3.3-1.44-.49-2.99.29-3.48,1.73-.49,1.44.29,2.99,1.73,3.48Z"/>
      <path class="cls-1" d="M246.01,242.23h.01c5.79,1.01,11.69,1.52,17.57,1.52.6,0,1.21,0,1.8-.01,5.26-.1,10.54-.61,15.73-1.51,1.5-.27,2.5-1.68,2.23-3.18-.26-1.5-1.68-2.5-3.18-2.23-4.91.86-9.91,1.34-14.89,1.42-6.12.11-12.28-.37-18.32-1.42-1.5-.27-2.92.74-3.18,2.23-.26,1.5.74,2.92,2.23,3.18Z"/>
      <path class="cls-1" d="M57.3,56.9c.27.33.55.65.84.95.28.3.57.61.88.9.32.32.65.62.99.91.4.35.82.69,1.23,1.02.27.21.55.41.83.62,1.24.89,2.56,1.66,3.91,2.28.28.13.56.26.84.37.17.07.35.15.52.21.27.11.55.21.82.3.02,0,.06.02.09.04.4.13.8.26,1.22.37.15.04.29.07.44.11,1.35.34,2.73.55,4.11.62.33.01.65.02.96.02,4.38,0,8.36-1.47,11.05-4.11,2.26-2.23,3.66-5.32,4.13-8.84.02-.18.05-.37.06-.56.07-.74.11-1.51.1-2.29-.02-1.56-.21-3.17-.58-4.8-.02-.1-.05-.21-.07-.3-.07-.33-.16-.65-.26-.97-.01-.06-.04-.12-.05-.18-.04-.13-.09-.26-.15-.38-.23-.5-.58-.89-1.02-1.17-.65-.4-1.45-.55-2.23-.32-1.46.43-2.29,1.95-1.86,3.41,1.46,5.02.71,9.91-1.91,12.49-1.79,1.77-4.68,2.69-7.9,2.52-2.48-.12-4.95-.86-7.22-2.12-.06-.04-.12-.06-.17-.1-1.44-.83-2.8-1.85-4.04-3.08-.33-.33-.66-.67-.96-1.02-.02-.04-.05-.06-.09-.1-.1-.11-.18-.21-.28-.32-.06-.07-.11-.13-.17-.19h-.01c-1-.99-2.58-1.06-3.68-.16-1.11.93-1.3,2.54-.47,3.7.04.06.09.11.12.17Z"/>
      <path class="cls-1" d="M125.84,41.16v.04c.21.11.41.21.63.3.26.12.51.23.75.33.51.21,1.03.4,1.55.57.33.11.66.19.99.28,1.24.33,2.51.52,3.76.58.21,0,.43.01.63.01h.06c3.76,0,7.02-1.33,9.25-3.77,3.49-3.82,4.35-10.52,2.23-17.47-.13-.45-.38-.84-.69-1.16,0,0-.01-.01-.02-.02-.1-.1-.19-.18-.3-.26-.67-.47-1.55-.66-2.4-.4-1.45.44-2.26,1.97-1.83,3.43,1.51,4.95,1.1,9.84-1.02,12.16-1.25,1.38-3.26,2.07-5.66,1.97-1.98-.09-4.03-.72-5.99-1.8-.34-.19-.68-.4-1.02-.62-.26-.16-.5-.33-.74-.51-.17-.12-.35-.26-.52-.39-.35-.27-.69-.55-1.02-.84-.17-.15-.33-.3-.5-.45-.01-.01-.02-.02-.05-.04-.83-.78-1.62-1.66-2.35-2.61-.29-.38-.66-.66-1.06-.84-.89-.39-1.96-.3-2.79.33-1.21.93-1.42,2.65-.5,3.85,2.47,3.21,5.44,5.71,8.62,7.32Z"/>
      <path class="cls-1" d="M144.06,56.58h0c-.18-.1-.37-.18-.56-.26-.05-.02-.11-.04-.16-.06-.16-.06-.32-.11-.47-.16-2.89-.88-5.73.02-6.84,2.31-.68,1.42-.56,3.1.35,4.61.27.44.58.85.96,1.23.12.12.26.26.39.37.27.24.56.46.88.67.16.1.32.19.47.29.16.1.33.18.5.27.13.07.28.13.43.19.12.05.24.1.36.15.16.06.32.11.47.16.71.21,1.41.3,2.08.3,2.06,0,3.86-.94,4.69-2.64.68-1.42.56-3.1-.35-4.61-.71-1.17-1.84-2.17-3.2-2.82Z"/>
      <path class="cls-1" d="M159.32,56.87h.01c.96.46,1.96.68,2.89.68,1.81,0,3.42-.84,4.15-2.36,1.12-2.31-.23-5.2-3.07-6.56-.24-.12-.49-.22-.73-.3-.02,0-.05-.01-.07-.02-2.59-.89-5.23-.09-6.25,2.01-1.12,2.31.23,5.2,3.07,6.56Z"/>
      <path class="cls-1" d="M344.42,348.28v-.02c-.27-.02-.56-.04-.84-.04-.33,0-.66.04-1,.09-2.67.39-4.86,2.13-5.84,4.65l-5.27,13.42c-.09.22-.21.41-.37.6l-9.37,10.45c-1.74,1.94-2.34,4.59-1.61,7.09.4,1.36,1.17,2.56,2.19,3.46.11.1.22.18.33.27.44.35.93.66,1.45.9.39.18.8.34,1.23.45l1.69.46c.34.1.68.16,1.02.21.11.01.23.02.34.04.19.01.39.02.58.02,1.78,0,3.52-.65,4.89-1.85l10.59-9.26c1.18-1.03,2-2.4,2.35-3.93l4.13-17.9c.51-2.22,0-4.5-1.41-6.28-1.28-1.62-3.1-2.61-5.09-2.8Z"/>
      <path class="cls-1" d="M472.23,184.12c-.05-.34-.16-.68-.33-.99-.43-3.06-1.23-6.11-2.41-9.08-1.18-2.97-2.76-5.95-4.7-8.85-3.87-5.79-9.31-11.47-16.17-16.89,1.56-1.73,3-3.29,4.39-4.77.04-.04.06-.07.1-.11,2.63-3.08,3.47-7.39,2.19-11.24l-.5-1.51c-.04-.1-.07-.18-.11-.28-1.95-4.26-4.8-6.84-8.05-7.29-4.58-.63-8.01,3.12-10.77,6.14-2.54,2.78-5.06,5.73-7.5,8.79.72-2.24,1.68-4.35,2.84-6.29,1.68-2.8,3.52-4.83,5.15-6.62,2.65-2.91,5.16-5.66,5-10.06-.22-6.05-5.54-12.05-10.96-12.34h-.39c-4.2,0-7.19,3.73-12.49,10.34l-.04.05c-2.28,2.84-4.41,5.86-6.33,8.98.1-1.36.18-2.74.26-4.09.22-3.93.37-7.94.44-11.89.01-.23.02-.45.04-.68.07-4.14-2.4-7.8-6.31-9.35-4.02-1.58-8.46-.56-11.32,2.61-1.07,1.19-2.03,2.48-2.84,3.83-3.29,5.53-3.45,10.91-3.53,13.79v.06c-.02.74-.06,1.5-.09,2.2-13.38-4.26-28.02-7.96-43.52-10.98h-.06c-2.61-2.54-5.56-4.58-8.78-6.04-3.3-1.5-6.77-2.35-10.32-2.53-4.97-.27-9.86.83-14.56,3.25-18.5-2.33-35.71-3.65-54.12-4.19-.99-2.93-2.48-5.37-4.46-7.26-5.98-5.73-14.55-5.38-27.52-4.83-9.5.4-18.97,1.92-28.15,4.55,1.47-3.01,2.78-6.06,3.88-9.08,4.92-13.35,12.36-33.55.82-47.25-2.46-2.92-5.61-5.28-9.35-7-3.15-1.45-6.77-2.45-10.74-2.99-7.18-.99-13.93-.24-17.31.29-1.22-2.67-2.69-5.2-4.38-7.55-1.67-2.33-3.57-4.48-5.62-6.4-2.07-1.92-4.31-3.63-6.68-5.06-2.4-1.45-4.94-2.65-7.56-3.55-8.79-3.02-17.68-2.52-24.41,1.39-4.44,2.58-7.97,5.95-10.48,10.03-2.5,4.04-3.92,8.66-4.25,13.72-4.08-3.96-8.94-6.82-14.44-8.49-7.52-2.28-16.03-2.28-24.62,0-9.76,2.59-18.19,9.03-23.7,18.14-2.65,4.38-4.5,9.15-5.49,14.18-.99,5.03-1.08,10.15-.29,15.25-3.88,4.09-7.44,8.53-10.58,13.2l-.29.44c-7.47,11.14-13.37,19.93-12.26,30.35.75,7.07,4.58,13.62,11.36,19.48,4.14,3.58,8.42,5.98,10.62,7.1-4.26,4.53-8.02,9.84-11.66,14.97-1.87,2.64-4.43,6.26-6.91,10.45-5.73,7.49-8.95,15.31-9.56,23.25h0c-1.16,9.52-2.41,24.18-2.41,33.92,0,32.03,6.27,63.11,18.65,92.36,11.95,28.26,29.06,53.63,50.85,75.42,21.79,21.79,47.16,38.9,75.42,50.85,29.25,12.37,60.33,18.65,92.36,18.65s63.11-6.27,92.36-18.65c28.26-11.95,53.63-29.06,75.42-50.85,21.79-21.79,38.9-47.16,50.85-75.42v.04c12.36-29.25,18.64-60.33,18.64-92.36,0-4.99-.15-10.04-.43-15.03-.38-6.73-1.01-13.53-1.89-20.21ZM375.67,120.7h0c2.01.58,4.03,1.17,5.99,1.77,1.96.6,3.92,1.21,5.82,1.83-.06.91-.13,1.89-.22,3.07-.16,2.23-.3,4.25-.43,6.33-.35-.12-.73-.26-1.08-.38l-.21-.07c-8.68-2.97-18.15-5.7-28.13-8.11-1.29-.32-2.47-.58-3.59-.85-.11-.26-.22-.51-.33-.78-.17-.41-.35-.83-.52-1.24-.83-2.81-2-5.49-3.48-7.97,9.05,1.9,17.85,4.07,26.19,6.42ZM386.56,155.39c-2.98-1.23-5.94-2.39-8.81-3.42-.21-.07-.41-.15-.62-.22-.13-.05-.26-.09-.39-.13-1.39-.49-2.67-.93-3.88-1.33-.44-.15-.88-.28-1.29-.43-1.56-.5-3.12-.99-4.65-1.44-1.36-.4-2.7-.79-4.01-1.14-2.02-5.54-4.2-11.16-6.46-16.73,10.81,2.62,20.95,5.6,30.17,8.87-.02,1.23-.04,2.31-.04,3.3h-.01c.04,4.16.05,8.57,0,12.66ZM386.38,161.33c-.3,7.11-1.01,12.31-2.2,16.36-.67,2.26-1.5,4.18-2.51,5.83-1.06,1.72-2.3,3.13-3.79,4.29-.55.43-1.14.83-1.74,1.19-2.46-9.09-5.21-18.24-8.17-27.15-.83-2.51-1.74-5.19-2.79-8.16,3.69,1.1,7.28,2.26,10.68,3.48,3.45,1.24,6.99,2.64,10.52,4.15ZM324.85,104.54h-.01c.22-.01.44.01.68.04.05,0,.1,0,.15.01h.1c.13.01.28.02.44.05.09,0,.18.02.27.04h.04c.12.02.24.04.37.05.11.01.22.04.33.05.11.01.22.04.33.05.11.02.23.04.37.06.07.01.15.02.21.04l.1.02c.12.02.24.05.35.07.02,0,.05.01.09.02.02,0,.04,0,.06.01.26.06.54.13.85.21h.06s.06.04.09.04c.32.09.61.17.88.26h.06c.33.11.67.23,1.06.37,7.61,2.85,13.6,9.58,16.03,17.98.04.11.07.22.11.32,5.49,12.83,10.51,26.06,14.91,39.31,3.27,9.86,6.27,19.97,8.92,30.01.13.49.39.94.75,1.29.12.12.26.22.39.32.09.05.17.1.26.15.04.02.07.04.11.05.01,0,.02,0,.04.01.05.02.11.05.17.07.06.02.13.05.21.07s.13.04.21.05c.06.01.13.02.19.04h.06s.09,0,.13.01h.5s.07,0,.12-.02h.02s.04,0,.06-.01c.04,0,.09-.02.13-.04h.02s.02-.01.05-.01c.07-.02.13-.04.19-.06,2.19-.82,4.21-1.94,6.01-3.34,3.8-2.97,6.48-7.19,8.18-12.9,1.44-4.81,2.23-10.83,2.52-18.95.11-.43.12-.85.04-1.27.15-5.1.11-10.55.06-16.33,0-1.45.01-3.01.07-4.77.02-.18.04-.38.02-.6.13-3.26.36-6.49.58-9.61.27-3.65.54-7.44.65-11.2v-.06c.07-2.56.21-6.83,2.76-11.13.62-1.05,1.35-2.03,2.18-2.96.09-.09.17-.18.28-.28h.01s.02-.04.04-.05c.09-.09.18-.16.28-.23,0,0,.02-.01.02-.02h.02c.1-.09.18-.15.27-.21h.02c.09-.06.18-.11.29-.17.02,0,.04-.02.06-.04.11-.05.21-.1.3-.15h.04c.09-.05.18-.07.28-.11h.02s.02-.01.04-.02c.1-.04.19-.06.3-.09h.06c.19-.05.4-.09.6-.1h.07c.11,0,.19,0,.28-.01h.04c.27,0,.55.02.83.07.07.01.16.02.24.05.1.02.19.05.29.07.17.05.33.1.46.16.04.01.09.04.13.05.04.01.06.02.1.05.06.02.11.05.17.09.13.07.26.15.39.22.94.58,2.06,1.72,2.02,3.71,0,.13,0,.28-.02.41v.18c-.06,3.92-.21,7.88-.43,11.77-.37,6.49-.95,13.05-1.73,19.51-.11.93.26,1.85.97,2.45.11.09.22.17.34.24.06.04.12.07.18.1.09.05.18.09.29.12.07.02.15.05.22.07s.16.04.23.05c.44.07,2.65.33,3.36-2.61.66-2.74,4.61-11.85,12.02-21.09,1.86-2.33,3.62-4.52,5.04-6.01,1.51-1.61,2.54-2.33,3.27-2.29.1,0,.21.01.33.04h.01c.1.02.21.05.33.07h.05c.1.02.21.07.32.11h.02s.02.01.04.02c.1.04.21.09.32.15l.05.02c.11.05.22.11.32.17h.02l.02.02c.11.07.22.13.32.21,0,0,.01,0,.02.01h.02c.12.1.22.17.33.26l.02.02c.12.1.23.18.34.28.06.06.12.11.18.17.37.34.69.72,1.01,1.13.16.21.3.43.44.65.74,1.19,1.17,2.46,1.21,3.66.07,2.05-1.11,3.45-3.57,6.14-1.72,1.89-3.85,4.22-5.81,7.5-3.37,5.62-5.17,12.26-5.36,19.7-.01.65.2,1.29.6,1.79.06.07.12.13.18.21.06.07.15.13.23.22.1.07.18.15.27.19.19.12.39.22.61.28.57.18,1.17.18,1.74,0,.57-.18,1.05-.55,1.39-1.03,4.33-6.18,8.98-12,13.82-17.29.13-.15.26-.28.38-.41l.04-.04c.12-.13.24-.26.37-.39l.05-.05c.12-.12.23-.24.35-.37l.05-.05c.11-.12.23-.23.34-.35l.05-.06c.12-.12.23-.23.33-.33l.05-.05c.12-.12.23-.22.33-.32l.04-.04c.12-.11.23-.22.33-.3l.02-.02c.23-.21.46-.4.67-.57l.02-.02c.1-.07.21-.16.32-.23l.04-.02c.1-.07.2-.13.29-.19l.05-.02c.1-.06.19-.11.28-.17l.05-.02c.1-.05.19-.1.28-.13h.04c.1-.05.18-.09.27-.11h.04c.1-.04.18-.06.27-.07.09-.01.17-.02.23-.02h.33c.07,0,.15.02.23.05.02,0,.04,0,.06.01.09.02.16.05.23.09,0,0,.12.06.18.09.32.17.66.41.99.73.13.12.27.27.39.41.13.15.26.3.39.47.45.61.88,1.33,1.25,2.13l.46,1.38c.67,2,.24,4.24-1.11,5.86-2.08,2.2-4.25,4.58-6.44,7.06l-.02.02s-.02.02-.04.04l-.12.15c-4.6,5.22-9.01,10.6-13.11,16.02-3.4,4.47-6.71,9.13-9.85,13.84-6.95,10.43-13.28,21.44-18.8,32.71-.41-.1-.83-.19-1.25-.29l-.11-.02c-.17-.04-.34-.07-.51-.11h-.04c-.55-.12-1.13-.24-1.79-.37-.24-.05-.52-.1-.8-.15-.17-.02-.37-.06-.55-.09-.52-.09-.97-.15-1.39-.21-.43-.06-.85-.11-1.27-.16-1.84-.21-3.68-.32-5.48-.33h-.86c-5.44.05-9.4.9-13.23,1.73h-.05c-.22.06-.43.1-.65.15-.19.05-.4.09-.6.12l-.27.06c-.11.02-.22.05-.33.07l-.23.05c-.12.02-.26.05-.38.07-.09.01-.16.04-.24.05-.12.02-.24.05-.37.07-.09.01-.16.04-.24.05-.12.02-.26.05-.38.07h-.01c-.07.01-.15.04-.22.05-.13.02-.28.05-.41.07h-.09s-.07.02-.12.04c-.43.07-.85.15-1.27.21-.04,0-.09,0-.12.01h-.09c-.15.04-.29.05-.44.07-.07,0-.16.02-.23.02h-.02c-.13.02-.28.04-.41.06-.09,0-.18.02-.27.04-.13.01-.27.04-.41.05-.1,0-.18.02-.28.02-.15.01-.28.02-.43.04h-.05c-.07,0-.15.02-.22.02l-.47.04h-.09s-.11.01-.16.02c-.27.02-.5.04-.73.05-.54.04-1.08.05-1.62.07-1.18-4.36-2.13-6.79-4.35-12.37-2.81-7.06-6.2-13.98-10.06-20.55-.04-.15-.06-.29-.1-.44l-.17-.78v-.05c-.04-.19-.09-.39-.12-.58l-.13-.63c-.02-.09-.04-.17-.06-.26-.02-.13-.06-.26-.09-.39-.02-.09-.04-.17-.06-.26l-.29-1.33c-.02-.13-.06-.26-.09-.39l-.06-.28c-.02-.12-.06-.26-.09-.38-.01-.06-.02-.12-.05-.19l-.05-.22c-.02-.09-.04-.17-.06-.26-.02-.1-.05-.21-.07-.3l-.02-.1c-.02-.09-.04-.17-.06-.26l-.07-.32c-.02-.12-.06-.24-.09-.37-.02-.11-.05-.21-.07-.32-.02-.12-.06-.24-.09-.37-.02-.1-.05-.18-.07-.28v-.04c-.04-.12-.07-.24-.1-.37-.02-.11-.05-.21-.09-.32-.04-.12-.06-.24-.1-.37-.02-.11-.05-.21-.09-.32-.04-.12-.06-.24-.1-.37-.02-.11-.06-.21-.09-.32-.02-.11-.06-.22-.09-.33v-.04c-.04-.11-.06-.21-.1-.32-.04-.12-.06-.24-.1-.37l-.09-.32c-.04-.12-.07-.24-.1-.37-.02-.11-.06-.21-.09-.32-.04-.12-.07-.24-.11-.37-.04-.11-.06-.21-.1-.32-.04-.12-.07-.24-.11-.37v-.05c-.04-.09-.07-.17-.1-.26-.04-.12-.07-.24-.11-.37-.04-.1-.06-.21-.1-.3-.04-.12-.07-.24-.11-.37l-.04-.11c-.02-.06-.04-.13-.06-.19-.04-.1-.06-.19-.1-.29l-.05-.15c-.02-.07-.05-.15-.07-.22-.04-.11-.07-.22-.11-.33l-.05-.13c-.02-.06-.05-.13-.07-.19-.04-.12-.09-.24-.12-.37v-.05c-.05-.07-.07-.16-.1-.23-.04-.1-.07-.21-.11-.3l-.04-.12c-.02-.07-.05-.15-.09-.22-.05-.12-.09-.23-.13-.35l-.04-.11c-.02-.06-.05-.12-.07-.18-.04-.1-.07-.19-.11-.3l-.06-.16s-.05-.11-.06-.17c-.05-.11-.09-.22-.13-.33l-.06-.16s-.04-.09-.05-.13c-.06-.16-.12-.3-.18-.45l-.02-.06s-.02-.07-.04-.1c-.09-.21-.18-.41-.26-.61v-.02c-.1-.19-.18-.39-.27-.58-.01-.04-.04-.07-.05-.11,0-.02-.02-.05-.04-.07-.06-.13-.12-.27-.18-.4-.02-.05-.05-.1-.07-.15l-.06-.12c-.05-.1-.1-.21-.15-.3-.02-.05-.05-.1-.07-.16l-.06-.12c-.05-.1-.1-.19-.15-.29-.02-.05-.05-.1-.09-.16l-.07-.13c-.05-.1-.1-.18-.15-.28-.04-.06-.06-.11-.1-.17l-.05-.09c-.05-.1-.11-.19-.16-.29-.04-.06-.06-.11-.1-.16l-.06-.1c-.05-.09-.1-.18-.16-.27-.04-.06-.06-.11-.1-.17l-.04-.07c-.06-.1-.11-.19-.17-.29-.04-.07-.09-.13-.13-.21v-.02c-.07-.1-.13-.18-.19-.28-.05-.07-.1-.15-.15-.22-.06-.11-.12-.19-.17-.28-.05-.07-.1-.15-.15-.21l-.02-.04c-.05-.07-.11-.16-.16-.23-.05-.07-.11-.15-.16-.22-.06-.09-.12-.17-.18-.24-.05-.07-.11-.15-.16-.22-.06-.09-.12-.16-.18-.24-.06-.07-.11-.13-.17-.21-.06-.07-.12-.16-.19-.23-.06-.07-.11-.13-.17-.19-.06-.07-.13-.15-.2-.22-.06-.06-.12-.13-.17-.19-.06-.07-.13-.15-.19-.21-.06-.06-.12-.12-.18-.18-.06-.07-.13-.13-.21-.21-.06-.06-.12-.12-.18-.18-.07-.07-.15-.13-.21-.19s-.12-.11-.18-.17c-.07-.06-.13-.12-.21-.18-.06-.05-.12-.11-.19-.16-.07-.06-.15-.11-.22-.17-.06-.05-.13-.1-.19-.15-.07-.05-.15-.11-.22-.16l-.02-.02s-.11-.09-.17-.12c-.07-.05-.15-.1-.23-.15l-.02-.02s-.11-.07-.17-.11c-.07-.05-.15-.09-.22-.13l-.04-.02s-.11-.07-.17-.1c-.07-.04-.15-.09-.22-.12l-.07-.04s-.1-.05-.15-.09c-.07-.04-.15-.07-.22-.11l-.09-.04-.15-.07c-.07-.04-.13-.06-.21-.09l-.05-.02s-.05-.02-.07-.02c-.05-.02-.1-.04-.13-.06-.07-.02-.15-.06-.22-.09l-.05-.02-.07-.02s-.09-.04-.13-.05c-.07-.02-.16-.05-.23-.07h-.05s-.05-.02-.07-.04c-.04-.01-.09-.02-.12-.04-.1-.02-.18-.05-.28-.07h-.05s-.05-.02-.07-.02c-.04,0-.06-.01-.1-.02-.16-.04-.33-.07-.49-.1-9.87-1.74-18.67,11.52-28.88,26.88-5.55,8.38-10.45,17.34-14.55,26.65v.04c-.06.09-.1.18-.13.28-1.18,2.69-2.18,5.13-3.08,7.45-6.83,2.23-13.95,3.42-21.17,3.54-.47,0-.96.01-1.44,0h-.01c-1.23,0-2.47-.04-3.7-.11-.72-.04-1.45-.09-2.17-.15-.5-.05-1.01-.1-1.52-.15h-.19c-.58-.06-1.21-.15-1.95-.24-1.64-.23-3.31-.52-4.94-.86-.95-.19-1.91-.43-2.85-.66-.93-.23-1.86-.49-2.78-.77-1.11-.33-2.23-.69-3.31-1.07-.29-.1-.55-.19-.82-.29-.3-.11-.62-.23-.93-.34-.3-.12-.62-.23-.91-.35-.61-.24-1.22-.49-1.81-.74-1.02-.44-2.03-.9-2.98-1.35l75.64-89.71c1.39-1.57,8.87-9.35,19.79-8.79ZM89.31,229.54h-.04c1.45,1.12,3.32,1.72,5.43,1.72,2.23,0,4.49-.67,6.2-1.84,2.03-1.39,4.03-3.91,4.86-12.78.06-.6.1-1.21.15-1.8.27.69.51,1.31.74,1.91.28.72.54,1.41.79,2.09,1.98,5.28,3.55,9.46,8.02,11.25.83.33,5.11,1.86,8.73-.55,2.98-1.98,3.55-5.36,3.83-6.98.29-1.73.32-3.43.07-5.21,1.5,2.06,3.07,3.12,5.11,3.41,3.29.47,6.4-1.5,8.05-3.66,4.11-5.45.43-13.31-1.35-17.09-.82-1.74-1.77-3.43-2.92-5.19,4.92,1.31,11.57,2.98,19.44,4.32,8.3,1.41,16.37,2.17,24.7,2.34,1.42.02,2.87.05,4.31.05,13.89,0,27.85-1.39,41.51-4.11l-3.63,4.3c-1.97-.12-3.94-.1-5.88.05-3.37.27-6.71.95-9.92,2.02-.69.23-1.27.73-1.59,1.39-.33.66-.38,1.41-.15,2.11.38,1.13,1.42,1.89,2.62,1.89.29,0,.6-.05.88-.15,2.79-.94,5.69-1.52,8.61-1.75,2.73-.22,5.49-.12,8.22.28,8.19,4.09,16.95,6.67,26,7.67,11.15,1.23,22.72-.04,33.43-3.68l9.31-.38c.74-.02,1.42-.34,1.92-.89.5-.55.75-1.24.73-1.98-.02-.74-.35-1.42-.89-1.92-.55-.5-1.24-.75-1.98-.72l-5.47.22c.45-1.11.9-2.19,1.34-3.21,4.24-.32,8.44-.75,12.47-1.3,3.31-.46,6.65-1.01,9.93-1.63.96-.18,1.77-.88,2.09-1.8l1.81-5.16c.82,5.32,1.39,10.71,1.7,16.04.45,7.58.41,15.3-.12,22.94h-8.36c-1.52,0-2.76,1.24-2.76,2.76s1.24,2.76,2.76,2.76h10.57c4.04,1.11,8.19,1.67,12.33,1.67.95,0,1.9-.02,2.85-.09,4.7-.28,9.31-1.28,13.73-2.95,3.4-.63,6.84-.85,10.24-.67.73.05,1.42-.19,1.97-.68.56-.5.89-1.18.93-1.92.04-.74-.21-1.45-.71-2-.5-.55-1.17-.88-1.91-.91-2.81-.16-5.69-.06-8.53.29l-.82-13.89c3.13.51,6.29.78,9.43.78.41,0,.84,0,1.27-.01,5.43-.12,9.34-.96,13.11-1.79,3.71-.8,7.23-1.57,12.11-1.61h.3c4.66,0,9.43.68,14.19,2.03,1.87.97,3.88,1.58,5.98,1.83.66.07,1.33.11,2,.11,1.62,0,3.24-.23,4.81-.68,1.46-.43,2.31-1.96,1.89-3.42-.21-.71-.67-1.29-1.31-1.66-.65-.35-1.39-.44-2.11-.23-1.52.44-3.08.57-4.64.39-.58-.06-1.18-.18-1.83-.38,4.89-9.93,10.45-19.69,16.5-28.99,3.35,2.73,6.27,6.06,8.47,9.67,2.8,4.58,4.64,9.8,5.32,15.13.04.24.11.5.23.77-1.97,2.23-4.3,4.46-6.91,6.61-10.35,8.53-25.24,16.22-44.25,22.85-39.47,13.77-92,21.34-147.91,21.34-51.6,0-101.14-6.6-139.5-18.57-11.81-3.69-22.39-7.83-31.43-12.28-8.97-4.43-16.47-9.2-22.27-14.17,0-.07-.06-.29-.15-.65-.37-1.53-1.35-5.61-.9-8.36.24-1.45.71-2.89,1.4-4.26.67,0,1.33.01,2,.01,10.18,0,20.56-.99,30.87-2.92,4.64,3.82,7.57,8.03,8.7,12.54.83,3.29.65,6.37.49,9.08-.23,3.8-.46,7.73,2.79,10.26ZM323.98,208.47c-.55-9.07-1.79-18.16-3.68-27.05-.12-.56-.4-1.06-.83-1.45-.07-.06-.15-.12-.22-.18-.07-.06-.16-.11-.23-.16-.1-.06-.21-.11-.32-.16-.04-.01-.07-.04-.11-.05-.27-.11-.55-.17-.83-.18-1.23-.09-2.37.67-2.79,1.84l-4.72,13.5c-2.68.49-5.39.93-8.08,1.29-2.91.4-5.98.74-9.12,1.02,3.54-7.5,7.65-14.78,12.21-21.65,7.72-11.61,15.69-23.62,21.84-24.52.19-.02.39-.05.58-.05.3,0,.61.01.9.06,7.23,1.27,11.16,20,13.27,30.07l4.13,50.46c-3.43,1.14-7,1.84-10.6,2.06-.96.06-1.95.09-2.91.07h-.04c-2.89-.04-5.77-.37-8.59-1,.57-7.95.62-16,.13-23.93ZM349.47,195.8v-.11c-.05-.66-.1-1.3-.15-1.94,1.08,2.35,2.11,4.74,3.04,7.09,1.87,4.71,2.82,7.12,3.76,10.37-.51-.04-1.02-.09-1.53-.13h-.04s-.09-.01-.13-.01c-.32-.04-.65-.07-1.03-.12-.27-.04-.47-.06-.67-.09-.18-.02-.35-.05-.54-.07-.39-.06-.74-.11-1.1-.17-.06,0-.12-.02-.18-.04h-.1c-.17-.04-.33-.07-.49-.1l-.74-12.56v-.21c-.04-.66-.07-1.3-.11-1.91ZM435.51,189.29h0c-1.81-2.98-4.02-5.75-6.54-8.24-1.13-1.12-2.34-2.18-3.58-3.17,2.64-3.9,5.42-7.74,8.23-11.46.07-.09.13-.18.21-.27.06-.07.11-.15.17-.22,7.28,7.24,10.97,14.74,10.97,22.3,0,4.64-1.41,9.31-4.19,13.88-1.08-4.57-2.85-8.89-5.27-12.83ZM257.74,139.14l17.62.82-8.5,10.07s-.01-.02-.02-.04c-.05-.09-.09-.17-.15-.24h.01c-2.7-3.69-5.72-7.26-8.96-10.6ZM257.61,111.24c.26-2.69.27-5.23.01-7.58,2.75.09,5.53.19,8.27.32,1,.05,1.97.1,2.91.15.29.01.6.04.89.05,2.59.13,5.2.29,7.75.46.27.01.54.04.8.05,2.09.15,4.22.3,6.32.46,3.01.24,6.1.51,9.2.82,3.27.32,6.6.67,9.87,1.05-1.38,1.21-2.31,2.2-2.74,2.69-.01.01-.02.04-.04.05l-4.49,5.33c-.79-.09-1.61-.17-2.42-.26-1.61-.17-3.19-.32-4.7-.46-.75-.07-1.52-.15-2.29-.21-8.73-.79-16.67-1.29-25.74-1.63-.39-.01-.78-.02-1.18-.04-.84-.02-1.69-.06-2.53-.09.05-.38.09-.77.12-1.14h-.02ZM256.51,117.88h0c12.83.37,23.13,1.03,35.52,2.29l-12.19,14.45-27.49-1.27h-.1c-.17,0-.35.02-.55.06-.18-.16-.38-.33-.56-.49.15-.32.3-.65.45-.96.15-.3.28-.61.41-.91,2.01-4.49,3.52-8.92,4.49-13.17ZM224.68,91.53v-.02h.02c4.19-.17,7.79-.33,10.96-.26,3.46.07,6.03.4,8.08,1.06,1.8.57,3.25,1.39,4.42,2.51,2.97,2.85,4.41,7.62,4.14,13.81-.27,6.15-2.19,13.31-5.56,20.72-.3-.23-.65-.49-1.03-.78-.09-.06-.16-.12-.24-.18l-.09-.06c-.24-.18-.5-.37-.75-.56-.12-.09-.24-.18-.37-.27-.28-.19-.56-.4-.86-.61-.04-.02-.07-.05-.11-.07-.05-.04-.1-.06-.15-.1-.32-.22-.67-.46-1.06-.73-.11-.07-.22-.15-.33-.22l-.13-.09c-.23-.16-.45-.3-.67-.45-.17-.11-.35-.23-.52-.34-.21-.13-.41-.27-.65-.41-.19-.13-.44-.28-.67-.43-.33-.21-.62-.39-.9-.56-.19-.12-.39-.24-.6-.35l-.06-.04c-.17-.11-.35-.21-.52-.32-.24-.15-.47-.28-.69-.41-.12-.07-.24-.15-.38-.22l-.11-.06c-.85-.5-1.73-.99-2.6-1.45l-.06-.04c-.12-.06-.24-.13-.36-.19-.27-.13-.54-.28-.82-.43-.12-.06-.24-.12-.37-.19l-.06-.04c-.28-.15-.56-.29-.84-.43l1.41-5.76c.16-.63.05-1.28-.28-1.84-.34-.55-.86-.95-1.5-1.1-.63-.16-1.28-.05-1.84.28-.55.34-.95.86-1.1,1.5l-1.18,4.81c-.54-.23-1.01-.44-1.47-.63-1.92-.82-3.92-1.57-5.92-2.26-.04-.01-.07-.02-.11-.04-1.66-.57-3.37-1.11-5.08-1.61-.52-.15-1.07-.3-1.63-.45-.73-.19-1.45-.38-2.15-.55-1.38-.34-2.78-.65-4.16-.93-3.38-.68-6.84-1.18-10.29-1.51-.23-.02-.46-.05-.69-.06-3.3-.29-6.63-.41-9.91-.38,2.84-3.62,5.43-7.4,7.72-11.29,10.42-3.52,21.23-5.53,32.13-5.99ZM10.41,179.71h.05c.71-3.7,2.53-8.17,5.44-13.29.1-.17.2-.34.29-.51.15-.24.29-.5.43-.74.02-.04.05-.07.07-.11.02-.04.06-.07.09-.12.29-.38.61-.75.91-1.12l.05-.06c.34-.41.55-.91.61-1.45,1.92-3.04,3.79-5.67,5.03-7.41,8.66-12.21,16.82-23.75,30.9-25.15.79-.09,1.66-.12,2.56-.11,2.8,0,7.22.45,12.32,2.47,5.95,2.36,11.46,6.29,16.35,11.7.15.17.33.32.52.45.12.07.23.15.33.19h.01c.3.15.62.22.96.26h.21c.68,0,1.34-.26,1.85-.72.55-.5.86-1.17.9-1.91.04-.74-.22-1.45-.71-2-2.05-2.25-7.65-7.93-15.58-11.86-.32-.16-.63-.3-.95-.46-.99-.46-1.98-.89-2.98-1.25-1.05-.4-2.12-.75-3.17-1.05-.35-.1-.67-.18-.99-.27-.02,0-.04,0-.06-.01-.02,0-.05-.01-.07-.02-4.02-1.01-8.07-1.31-12.06-.93-3.66.37-7.17,1.33-10.46,2.86-2.98,1.39-5.79,3.24-8.61,5.66-.23-.22-.45-.38-.69-.49-3.08-1.47-18.5-9.48-19.92-22.7-.9-8.42,4.25-16.09,11.36-26.7l.29-.44c2.8-4.18,5.98-8.17,9.42-11.87.49-.52.99-1.05,1.5-1.57.16-.16.29-.34.4-.52.34-.57.46-1.25.33-1.91-.27-1.45-.46-2.93-.57-4.39-.05-.58-.07-1.18-.09-1.78-.01-.58-.02-1.17,0-1.74,0-.41.02-.84.05-1.25.16-3.13.71-6.23,1.62-9.23.91-3.01,2.22-5.89,3.83-8.58,4.77-7.88,12.02-13.43,20.4-15.66,6.04-1.61,11.85-1.96,17.25-1.07.22.04.45.07.66.11.38.07.75.15,1.17.24.09.02.17.04.27.06.4.1.79.19,1.17.29.63.17,1.27.37,1.89.57,3.31,1.12,6.37,2.76,9.06,4.88,2.74,2.15,5.11,4.81,7.05,7.88.34.54.86.95,1.46,1.14.61.19,1.27.18,1.86-.04,1.21-.46,1.94-1.73,1.74-3.01h0v-.02c-.12-.75-.23-1.52-.32-2.29-.17-1.67-.22-3.31-.15-4.89.04-.62.09-1.25.16-1.86.91-7.68,5.02-13.84,11.87-17.82,5.33-3.1,12.56-3.45,19.83-.94,1.51.52,2.99,1.16,4.42,1.89,7.75,3.99,13.93,10.94,17.4,19.59.33.82,1.03,1.44,1.89,1.64.13.04.28.06.44.07h.27c.18,0,.37-.02.55-.06.49-.11,12.16-2.52,22.62.4.21.06.41.12.61.18,1.47.44,2.87.99,4.15,1.61.19.1.38.19.57.28.77.4,1.51.84,2.2,1.3.23.16.45.32.67.47.15.1.27.19.39.29.3.23.6.46.86.71.24.22.46.41.67.6.54.51,1.06,1.05,1.52,1.61,1.07,1.28,1.98,2.71,2.7,4.27-.95,3.19-2.23,6.26-3.79,9.11-5,9.15-15.25,20.99-50.35,31.27-22.67,6.63-46.74,9.99-71.72,9.99-3.54,0-7.11-.07-10.68-.21,1.22-1.58,2.4-2.34,2.73-2.53.82-.47,1.33-1.33,1.36-2.28,0-.3-.02-.62-.12-.91-.06-.21-.15-.4-.26-.58-.02-.05-.05-.09-.09-.12l-.02-.04c-.12-.18-.27-.35-.41-.49,0,0-.01-.01-.02-.02,0,0-.01,0-.01-.01-.26-.23-.55-.4-.86-.52-.78-.29-1.63-.21-2.35.21-1.02.6-4.54,2.93-6.72,8.05-.06.15-.12.3-.18.44-.02.05-.04.1-.06.15-.04.07-.06.15-.09.21,0,.02-.01.05-.02.07l-.02.06s-.04.1-.06.16v.06c-1.73,4.86-.95,8.69-.67,9.75.12.45.35.86.67,1.19.52.55,1.25.86,2,.86.24,0,.47-.04.71-.1.09-.02.18-.05.27-.09.09-.02.16-.06.24-.1,1.18-.57,1.79-1.92,1.45-3.19-.06-.21-.52-2.12.05-4.78,4.48.21,8.91.3,13.17.3,25.47,0,50.12-3.45,73.26-10.23,37.04-10.86,48.12-23.84,53.64-33.93.32-.57.65-1.22,1-1.95.18,9.45-3.7,20-6.54,27.71-10.02,27.2-31.13,44.5-47.09,54.22-.63.39-1.07.99-1.24,1.7-.17.72-.06,1.46.33,2.09.22.37.52.67.89.9.12.07.24.13.37.19.01,0,.02,0,.04.01.01,0,.04.01.05.02.33.13.67.19,1.02.19.5,0,1-.13,1.44-.4,5.06-3.09,9.92-6.49,14.44-10.09,5.42-4.32,10.4-9.01,14.8-13.91.9-.06,1.81-.1,2.73-.13.91-.02,1.83-.05,2.74-.05,3.91-.01,7.85.21,11.74.67,5.19.62,10.34,1.67,15.33,3.12,1.24.37,2.5.75,3.73,1.17.85.29,1.72.6,2.56.9,1.27.47,2.54.97,3.79,1.5.57.24,1.16.49,1.72.74,7.73,3.45,14.97,7.93,21.54,13.32.05.04.1.09.15.12h.01s.01,0,.01.01c.05.04.09.07.13.11.04.02.06.06.1.09.47.39.95.8,1.44,1.23,4.92,4.27,9.42,9.06,13.37,14.22.43.56.79,1.05,1.12,1.5.04.05.07.1.11.13.06.07.12.13.17.19h.01c.28.29.62.5.99.63l-30.79,36.51c-15.27,3.6-30.97,5.45-46.67,5.51h-2.43c-.82,0-1.64-.02-2.43-.04-.67-.01-1.36-.04-2.12-.06-1.78-.06-3.58-.15-5.36-.27-.16,0-.33-.02-.49-.04-7.68-.54-15.28-1.62-23.22-3.3-6.84-1.45-12.73-3.09-17.93-4.53-.11-.02-.22-.05-.37-.07-.11-.01-.22-.02-.32-.02h-.22c-3.98-4.09-8.78-7.69-14.24-10.73-8.13-4.5-17.63-7.79-28.19-9.75-.29-.05-.6-.11-.93-.17-.49-.09-.97-.17-1.46-.26-.65-.11-1.3-.21-1.95-.3-.57-.09-1.14-.17-1.7-.24-.21-.02-.41-.06-.63-.09-.97-.12-1.96-.24-2.95-.35-2.4-.26-4.87-.45-7.33-.58-.66-.04-1.31-.06-1.96-.1-.79-.04-1.57-.06-2.34-.07-.68-.01-1.36-.02-2.05-.04h-.07c-.69,0-1.39-.01-2.07,0-5.37,0-10.81.29-16.15.83-1.51.16-2.62,1.51-2.47,3.03.09.89.61,1.69,1.4,2.13.41.23.86.35,1.34.35.1,0,.19,0,.28-.01.74-.07,1.49-.15,2.2-.21.79-.07,1.58-.13,2.37-.19.27-.02.55-.04.83-.06,3.37-.23,6.76-.34,10.09-.35,1,0,2.01,0,2.99.02h.07c.66,0,1.31.02,1.97.05h.13c1.03.04,2.08.07,3.1.13,1.06.06,2.13.12,3.18.21h.17c.65.06,1.29.12,1.94.18.13.01.27.02.4.04,2.09.19,4.18.45,6.21.75.23.04.45.07.68.1.63.1,1.25.19,1.86.3,3.23.55,6.39,1.23,9.4,2.02,1.27.34,2.53.69,3.75,1.07.49.15.97.3,1.46.46,1.31.43,2.62.89,3.87,1.36.43.17.86.33,1.28.5.63.26,1.25.51,1.85.77.29.12.58.26.88.38.89.39,1.77.8,2.61,1.22,1.11.54,2.19,1.11,3.25,1.69,6.74,3.73,15.78,10.32,20.59,20.57,1.21,2.58,4.04,8.62,1.94,11.42-.57.77-1.72,1.55-2.63,1.55h-.04c-.06,0-.12,0-.18-.01-1.11-.16-2.29-2.43-3.77-5.31-.91-1.77-1.95-3.76-3.32-6.03-1.73-2.85-3.7-5.6-5.84-8.18-.3-.37-.62-.74-.94-1.1-.35-.41-.73-.83-1.1-1.23-.55-.6-1.33-.93-2.14-.9-.49.01-.96.16-1.38.43-1.03.65-1.52,1.92-1.18,3.1.02.1.06.18.09.27.24.62.49,1.22.72,1.79.24.62.49,1.22.72,1.79l.27.66c1.44,3.57,2.69,6.68,3.85,9.52l.12.29c.07.19.15.38.22.55l.16.38c1.53,3.76,2.74,6.73,2.13,10.32-.23,1.34-.54,2.69-1.45,3.31-.88.58-2.29.44-3.32.12-.11-.04-.21-.07-.29-.1-2.11-.84-3.13-3.35-4.91-8.06-.26-.69-.52-1.4-.8-2.13-2.18-5.66-4.6-11.43-7.18-17.15-.24-.55-.65-.99-1.17-1.28l-.22-.11h-.05c-.09-.04-.18-.07-.28-.1-.29-.09-.58-.13-.88-.12-.26,0-.51.05-.75.12-1.34.43-2.14,1.78-1.87,3.15,1.1,5.71,1.39,11.38.88,16.87-.32,3.43-1.01,7.73-2.47,8.74-.8.55-1.95.88-3.06.88-.21,0-.4-.01-.6-.04-.6-.07-1.11-.26-1.46-.54-.9-.71-.84-2.48-.66-5.56.18-2.96.4-6.65-.65-10.76-1.52-6.04-5.44-11.53-11.65-16.33-.07-.06-.16-.12-.24-.17-.09-.05-.17-.1-.26-.15-.02,0-.05-.02-.07-.04-.01,0-.02,0-.04-.01-.01,0-.02-.01-.05-.02-.04-.01-.07-.04-.11-.05-.29-.11-.61-.16-.91-.16-.18,0-.35.01-.54.05-12.39,2.42-24.8,3.42-36.89,2.96h-.23c-.86-.04-1.74-.09-2.6-.13-2.47-.15-4.95-.34-7.38-.61-1.57-.17-3.96-.43-6.45-.84-.17-.02-.33-.06-.5-.09-.07-.01-.15-.02-.22-.04-.43-.07-.84-.16-1.24-.23l-.15-.02c-.32-.06-.65-.13-.96-.19l-.09-.02c-.71-.16-1.38-.32-2.01-.49-.04,0-.09-.02-.12-.04-.57-.16-1.12-.33-1.62-.5-.43-.15-.83-.29-1.22-.45l-.1-.04c-.39-.16-.75-.32-1.08-.49h-.02c-.84-.41-1.55-.86-2.09-1.34-.15-.12-.28-.26-.4-.38-.23-.24-.43-.49-.58-.74-.56-.89-.96-1.92-1.18-3.07-.07-.35-.12-.73-.15-1.1-.04-.47-.06-.96-.05-1.45.02-.93.13-1.94.33-2.98ZM38.49,200.37v.02c-.41,1.16-.72,2.35-.93,3.54-.17,1.02-.26,2.07-.27,3.12-1.94-2.33-3.53-4.7-4.74-7.07,1.79.16,3.68.29,5.61.39h.32ZM11.72,195.55h0c.66.34,1.39.66,2.18.96.23.09.47.18.71.26.61.22,1.28.43,1.96.62.28.09.57.16.86.23.3.07.61.16.91.23,2.25.55,4.82,1.01,7.85,1.41.28.72.61,1.46.96,2.2.11.24.23.49.37.73.12.24.23.45.34.67.21.39.43.79.66,1.18.46.8.97,1.62,1.51,2.43.29.44.61.89.91,1.31,5.28,7.29,13.55,14.23,24.55,20.62,11.05,6.43,24.73,12.2,40.62,17.15,2.93.91,5.99,1.81,9.08,2.68l.57.16c1.01.28,2.06.56,3.13.85.27.07.52.13.79.21.99.26,2,.52,3.02.78.32.09.63.16.95.24,1.19.3,2.3.57,3.4.84,2.98.72,6.11,1.44,9.33,2.12.5.11.99.21,1.45.3,32.99,6.96,70.83,10.64,109.43,10.64,56.51,0,109.69-7.69,149.73-21.66,40.94-14.28,63.5-33.64,63.5-54.51,0-9.24-4.38-18.21-13.01-26.65l7.54-9.09c14.41,11.31,21.72,23.34,21.72,35.74,0,11.02-5.83,21.8-17.32,32.07-11.44,10.21-27.89,19.42-48.9,27.34-16.26,6.14-34.67,11.3-54.72,15.34-.21,0-.43.06-.68.13-16.4,3.27-33.86,5.79-51.88,7.47-18.18,1.69-37,2.56-55.94,2.56-24.99,0-49.54-1.49-72.93-4.41-.15-.04-.3-.05-.46-.06-16.74-2.11-32.83-4.95-47.86-8.46-15.13-3.53-29.25-7.77-41.99-12.56-.21-.07-.4-.16-.61-.23-.11-.04-.21-.09-.32-.12-.71-.27-1.41-.55-2.12-.82-.55-.21-1.08-.43-1.59-.63-.79-.32-1.58-.63-2.35-.95-1.03-.43-2.05-.85-3.03-1.27-.49-.21-1-.43-1.52-.66-15.56-6.79-28.13-14.43-37.36-22.66-3.71-3.31-6.88-6.73-9.4-10.15-2.52-3.42-4.47-6.91-5.78-10.42-.11-.28-.21-.56-.3-.84-.39-1.12-.72-2.26-.99-3.38-.13-.56-.26-1.13-.35-1.7-.05-.28-.1-.56-.13-.83.94.99,2.11,1.83,3.54,2.57ZM454.62,299.97l-3.24-2.23c-.8-.55-1.66-1.05-2.53-1.46-.01,0-.04-.01-.05-.02-.01,0-.04-.01-.05-.02-.5-.23-1.02-.45-1.53-.65-.17-.06-.34-.12-.52-.18-.19-.06-.4-.13-.63-.19-.29-.09-.58-.16-.89-.23-.74-.18-1.5-.32-2.24-.4-.09,0-.18-.02-.27-.02-.52-.05-1.06-.09-1.57-.09h-.29c-2.45,0-4.85.47-7.12,1.41l-10.85,4.46c-1.56.63-3.27.97-4.97.99-.24,0-.49,0-.73-.01l-5.94-.3c-6.82-.35-13.29,3.04-16.89,8.84-3.52,5.69-3.74,12.88-.55,18.77l6.88,12.72c.9,1.67,2.05,3.19,3.41,4.5.21.19.43.4.68.63,1.61,1.41,3.42,2.53,5.38,3.32l14.6,5.87c-7.11,9.75-15.03,19.02-23.57,27.55-21.28,21.28-46.07,37.99-73.66,49.67v.02c-28.57,12.09-58.92,18.21-90.21,18.21-3.12,0-6.27-.06-9.37-.18-6.81-.27-13.67-.84-20.4-1.7-1.27-.16-2.58-.34-3.9-.54-2.68-.39-5.38-.83-8.03-1.31-8.27-1.5-16.54-3.48-24.59-5.88-8.06-2.41-16.11-5.3-23.9-8.59-7.96-3.37-15.81-7.22-23.34-11.46-1.72-.96-3.45-1.96-5.13-2.97-1.13-.67-2.26-1.36-3.37-2.06-5.02-3.1-9.97-6.45-14.72-9.93-9.53-6.99-18.66-14.82-27.1-23.26-20.61-20.61-36.95-44.53-48.56-71.08-.38-.85-.74-1.73-1.11-2.58-1.87-4.44-3.64-8.98-5.22-13.53-.37-1.02-.73-2.11-1.17-3.41-.57-1.72-1.08-3.29-1.55-4.81-.63-2.06-1.25-4.15-1.83-6.22-.39-1.38-.77-2.79-1.12-4.18-.32-1.21-.62-2.45-.94-3.79-.07-.3-.15-.6-.22-.9-.43-1.78-.83-3.59-1.21-5.38-.06-.29-.12-.58-.18-.88-1.58-7.66-2.79-15.51-3.58-23.32-.79-7.83-1.19-15.83-1.19-23.78,0-3.85.21-8.87.6-14.55,3.58,7.62,9.65,15.01,18.07,21.96,8.45,6.98,19.25,13.53,32.13,19.45l-15.13,22.29c-1.89,2.78-1.9,6.29-.01,9.17l14.12,21.57c.3.47.49,1,.5,1.5l.83,27.29c.06,2.11.96,4.15,2.52,5.75l8.3,8.52c.07.07.15.16.22.24.39.47.63,1.01.71,1.55l4.13,30.36c.34,2.5,1.84,4.78,4.11,6.28,1.75,1.16,3.8,1.77,5.9,1.77,1.33,0,2.62-.24,3.85-.72.17-.07.35-.15.51-.22,1.25-.57,2.33-1.35,3.19-2.34.86-.99,1.46-2.13,1.78-3.38l6.42-24.96c.12-.45.19-.93.23-1.4l1.02-13.7c.02-.37.13-.72.32-1.05.18-.33.43-.62.73-.88.15-.12.32-.24.5-.35.27-.16.56-.29.88-.4.33-.11.67-.18,1.02-.22.46-.05.9-.22,1.28-.49l11.39-7.97c.41-.07.83-.18,1.23-.3.79-.26,1.55-.6,2.25-1.02,1.74-1.08,3.06-2.68,3.69-4.5l4.94-9.71c.07-.13.13-.28.17-.43,1.18-3.77-.51-7.79-4.2-9.99l-16.97-10.1c-.13-.09-.27-.17-.43-.29-.12-.09-.23-.18-.33-.27l-.02-.02s-.02-.01-.04-.02c-.28-.27-.51-.56-.68-.89-.09-.15-.15-.27-.18-.39l-7.44-19.31c-.43-1.1-1.06-2.09-1.9-2.97l-4.83-5.05c2.33.71,4.77,1.42,7.26,2.13.63.18,1.25.35,1.85.51,2.81.78,5.71,1.53,8.59,2.26.72.18,1.45.37,2.18.54.67.17,1.38.34,2.09.51,1.5.35,3.03.72,4.53,1.06.67.15,1.33.3,1.98.45,5.13,1.13,10.42,2.2,15.74,3.19,8.87,1.63,18.13,3.07,27.48,4.26l28.54,25.24c1.01.89,2.25,1.47,3.58,1.68l32.63,4.99s.12.02.18.04h.02s.1.02.15.05c.09.04.17.09.27.15,0,0,.01,0,.02.01,0,0,.02.01.02.02l12.73,9.69s.05.05.07.06c0,0,.1.1.13.15.39.45.46,1.08.21,1.62l-8.85,17.69c-.06.13-.12.26-.18.39-.41.96-.6,2.02-.55,3.07.05,1.05.34,2.09.84,3.02l3.48,6.42,4.75,17.13,7.57,22.73c.07.21.15.4.23.6l5.92,13.48c.45,1.03,1.16,1.95,2.03,2.65l.22.17c1.23.99,2.79,1.53,4.37,1.53,1.24,0,2.47-.33,3.54-.96l25.21-4.5c.72-.13,1.34-.52,1.77-1.12l19.89-27.95c.55-.45,1.02-.97,1.41-1.57l9.48-14.39c1.17-1.77,1.47-3.94.83-5.97l-3.06-9.68c-.13-.43-.07-.89.18-1.27l7.43-11.14c.77-1.16,1.18-2.5,1.18-3.88v-17.91c0-.18.04-.35.1-.52l6.01-16.03c.04-.09.07-.16.11-.23l12.59-21.3c20.05-4.08,38.48-9.26,54.79-15.41,17.36-6.56,31.85-14.05,43.05-22.27,11.11-8.16,18.88-16.93,23.08-26.1v.17c.27,4.88.41,9.84.43,14.72,0,27.77-4.85,54.9-14.41,80.64Z"/>
    </g>
    <path class="cls-1" d="M11.88,271.4s.01,0,.02,0h-.04s.01,0,.02,0Z"/>
  </g>
</svg>