<?xml version="1.0" encoding="UTF-8"?>
<svg id="Layer_1" xmlns="http://www.w3.org/2000/svg" version="1.1" viewBox="0 0 1053.91 1947.27">
  <!-- Generator: Adobe Illustrator 29.6.1, SVG Export Plug-In . SVG Version: 2.1.1 Build 9)  -->
  <defs>
    <style>
      .st0 {
        fill: #231f20;
      }
    </style>
  </defs>
  <path class="st0" d="M404.15,72.95h245.61c22,0,39.84,17.83,39.84,39.83h0c0,22-17.84,39.83-39.84,39.83h-245.61c-22,0-39.84-17.83-39.84-39.83h0c0-22,17.84-39.83,39.84-39.83Z"/>
  <path class="st0" d="M1036.68,1804.16V638.79c.59.07,1.19.11,1.79.11,8.53,0,15.44-6.91,15.44-15.44v-223.03c0-8.53-6.91-15.44-15.44-15.44-.61,0-1.2.04-1.79.11v-241.99C1036.68,64.2,972.48-.01,893.56-.01H160.35c-78.92.01-143.12,64.21-143.12,143.13v241.99c-.59-.07-1.19-.11-1.79-.11-8.53,0-15.44,6.91-15.44,15.44v75.21c0,8.53,6.91,15.44,15.44,15.44.61,0,1.2-.04,1.79-.11v41.95c-.59-.07-1.19-.11-1.79-.11-8.53,0-15.44,6.91-15.44,15.44v75.21c0,8.53,6.91,15.44,15.44,15.44.61,0,1.2-.04,1.79-.11v1165.37c0,78.91,64.2,143.11,143.12,143.11h733.22c78.92,0,143.12-64.2,143.12-143.11h0ZM893.56,1919.98H160.35c-63.87,0-115.82-51.96-115.82-115.82V143.12c0-63.87,51.96-115.82,115.82-115.82h733.22c63.87,0,115.82,51.96,115.82,115.82v1661.04c0,63.87-51.96,115.82-115.82,115.82h0Z"/>
</svg>