<svg width="244" height="244" viewBox="0 0 244 244" fill="none" xmlns="http://www.w3.org/2000/svg">
<path d="M127.128 0L139.597 1.23085C150.221 2.79445 160.551 5.8012 170.415 9.96603C171.999 10.6351 175.583 12.7903 176.86 13.0527C179.749 13.6443 186.109 13.061 189.438 13.1028C189.841 13.1076 190.497 12.9501 190.745 13.3449H159.054C159.052 19.5361 159.062 25.7404 159.056 31.9328C155.253 30.7044 151.537 29.2397 147.67 28.1878C136.543 25.162 125.045 24.2341 113.547 25.0224C112.875 20.823 112.189 16.6128 111.638 12.3943L68.5133 12.3908C68.5085 12.8953 68.5562 13.4057 68.4835 13.9114C67.0189 24.0695 65.0235 34.181 63.51 44.3248L60.4138 46.474C60.1192 46.9009 62.4247 48.7126 62.7956 49.0907C70.362 56.8217 78.4006 65.6368 86.3796 72.8095C86.6766 73.0767 86.883 73.3773 87.3374 73.3975C87.3421 73.6993 87.521 73.8877 87.6785 74.1179C88.4776 75.2891 91.8338 78.3722 93.0527 79.479C93.3485 79.7474 93.5381 80.0753 94.0092 80.0706C104.798 91.6193 116.365 102.703 127.605 113.909C138.062 124.336 148.621 134.68 159.056 145.127C169.641 155.723 180.189 166.65 190.984 177.059C192.559 178.579 195.189 181.959 196.809 183.029C197.038 183.18 197.219 183.32 197.517 183.272C214.668 162.086 222.084 134.491 218.106 107.395C215.145 87.2243 205.365 67.9231 190.984 53.6181C190.978 42.8995 191.033 32.1654 190.984 21.4468C220.376 41.3586 239.833 74.3028 243.401 109.74L243.879 116.768C243.788 120.174 244.001 123.612 243.879 127.016C242.189 174.255 212.105 216.915 168.579 234.84C133.049 249.472 91.278 246.517 58.5079 226.387C51.6774 222.192 43.0567 215.66 37.3021 210.182C5.04961 179.482 -7.60472 131.672 4.54034 88.6495C18.6963 38.5045 64.4415 2.17306 116.644 0H127.128ZM42.5427 177.774C42.5033 178.029 42.5689 178.238 42.6703 178.47C43.1355 179.54 45.7057 182.513 46.599 183.607C52.6447 191.005 59.2843 196.805 67.0845 202.082C82.2506 212.341 97.4573 217.863 115.928 219.001C125.773 219.608 134.305 218.858 143.805 216.618C149.381 215.304 153.715 213.998 159.053 211.852C159.203 211.793 159.51 211.845 159.765 211.739C168.171 208.279 176.346 203.179 183.339 197.402L183.007 196.833C175.101 188.816 167.007 180.975 159.053 173.009C150.325 164.267 141.576 155.534 132.844 146.795C121.651 135.593 110.448 124.391 99.2487 113.195C94.008 107.955 88.765 102.705 83.5232 97.467C75.3879 89.3377 67.0714 81.2215 58.9814 73.1602C58.9373 73.1161 58.8955 72.6938 58.6403 72.4398C54.6973 68.5123 50.7507 64.5896 46.8292 60.6406C46.5835 60.4808 46.2746 60.9567 46.1088 61.1213C44.7205 62.494 42.7932 65.4304 41.6315 67.1276C20.4077 98.1421 18.9908 139.31 38.2979 171.653C39.5348 173.726 40.954 175.989 42.5415 177.775L42.5427 177.774Z" fill="#E10600"/>
<path d="M83.5247 97.4679L74.7084 152.993H105.445L99.2502 113.197C110.449 124.393 121.652 135.597 132.846 146.797L143.806 216.62C134.305 218.86 125.773 219.61 115.93 219.003L109.949 181.378L70.1822 181.35L67.086 202.084C59.2859 196.807 52.6474 191.007 46.6005 183.609C45.7072 182.516 43.137 179.542 42.6718 178.472C42.5716 178.241 42.506 178.032 42.5442 177.776L58.9841 73.1611C67.0729 81.2225 75.3906 89.3386 83.5259 97.4679H83.5247Z" fill="#020201"/>
<path d="M190.743 13.343C190.978 13.3311 190.964 13.498 190.987 13.6877C191.264 15.8584 190.971 19.1275 190.981 21.4449C191.03 32.1635 190.976 42.8964 190.981 53.6162C191.005 94.7589 190.964 135.915 190.981 177.057C180.187 166.648 169.638 155.722 159.053 145.125C159.08 107.398 159.018 69.6578 159.053 31.9309C159.059 25.7385 159.05 19.5342 159.052 13.3418H190.743V13.343Z" fill="#020201"/>
<path d="M63.5101 44.3246C65.0224 34.1809 67.019 24.0682 68.4836 13.9113C68.5563 13.4056 68.5086 12.8963 68.5134 12.3906L111.638 12.3942C112.189 16.6127 112.875 20.8229 113.547 25.0223C118.279 54.6401 122.969 84.2758 127.605 113.909C116.365 102.703 104.798 91.618 94.0093 80.0704L90.1951 56.2419L87.3386 73.3986C86.8842 73.3783 86.6779 73.0766 86.3809 72.8106C78.4019 65.6378 70.3632 56.8227 62.7969 49.0918C63.4183 47.6355 63.2859 45.8381 63.5113 44.3258L63.5101 44.3246Z" fill="#020201"/>
<path d="M159.053 211.849V173.006C167.007 180.972 175.1 188.811 183.007 196.83L183.338 197.399C176.345 203.177 168.171 208.277 159.765 211.736C159.51 211.841 159.202 211.788 159.053 211.849Z" fill="#020201"/>
<path d="M58.508 226.386H34.918L37.3021 210.181C43.0568 215.659 51.6775 222.19 58.508 226.386Z" fill="#020201"/>
</svg>
