<svg width="385" height="35" viewBox="0 0 385 35" fill="none" xmlns="http://www.w3.org/2000/svg">
<path d="M30.633 33.6299H25.2873L21.4756 23.9067H9.11087L5.29918 33.6299H0L13.062 0.624428H17.571L30.633 33.6299ZM19.7557 19.4911L15.3862 6.86871H15.2932L10.8773 19.4911H19.7557Z" fill="black"/>
<path d="M64.129 11.1951C64.129 16.0419 61.9598 19.2086 57.6213 20.6953C56.4127 21.1116 55.2971 21.3198 54.2744 21.3198L63.8966 33.6299H57.6213L46.2792 18.3314H46.1862V33.6299H41.1659V0.624428H51.8108C55.9633 0.624428 59.0158 1.5462 60.9681 3.38975C63.0754 5.32251 64.129 7.92429 64.129 11.1951ZM59.1088 11.1951C59.1088 9.20288 58.365 7.68641 56.8775 6.6457C55.421 5.57525 53.6237 5.04003 51.4854 5.04003H46.1862V17.6624H49.626C50.8656 17.6624 51.9967 17.5732 53.0194 17.3948C54.042 17.1866 55.0337 16.8596 55.9943 16.4135C56.955 15.9675 57.7142 15.2985 58.2721 14.4065C58.8299 13.5144 59.1088 12.444 59.1088 11.1951Z" fill="black"/>
<path d="M91.718 5.04003H85.1173V33.6299H80.097V5.04003H73.4963V0.624428H91.718V5.04003Z" fill="black"/>
<path d="M128.261 33.6299H123.241V0.624428H128.261V33.6299Z" fill="black"/>
<path d="M160.653 24.2635C160.653 27.2072 159.661 29.6157 157.678 31.489C155.695 33.3326 153.169 34.2544 150.101 34.2544C146.971 34.2544 144.415 33.2731 142.431 31.3106C140.479 29.3481 139.503 26.8653 139.503 23.8621H144.523C144.523 25.557 145.019 26.9842 146.011 28.1439C147.002 29.2738 148.366 29.8388 150.101 29.8388C151.806 29.8388 153.154 29.3184 154.145 28.2777C155.137 27.237 155.633 25.8989 155.633 24.2635C155.633 23.4607 155.493 22.7768 155.214 22.2118C154.967 21.6171 154.579 21.1414 154.052 20.7845C153.557 20.398 153.014 20.0709 152.425 19.8033C151.868 19.5357 151.232 19.2681 150.52 19.0005C150.334 18.941 150.194 18.8964 150.101 18.8667C148.893 18.4206 148.009 18.0936 147.452 17.8854C146.925 17.6475 146.197 17.3056 145.267 16.8596C144.337 16.4135 143.655 15.9824 143.222 15.5661C142.788 15.1498 142.323 14.6295 141.827 14.005C141.331 13.3509 140.975 12.6075 140.758 11.7749C140.572 10.9424 140.479 10.0057 140.479 8.96501C140.479 6.43756 141.409 4.31153 143.268 2.58692C145.158 0.862305 147.436 0 150.101 0C152.983 0 155.338 0.847438 157.167 2.54231C159.026 4.20746 159.956 6.42269 159.956 9.18802H154.936C154.936 7.76075 154.502 6.61597 153.634 5.75366C152.766 4.86162 151.589 4.4156 150.101 4.4156C148.862 4.4156 147.777 4.86162 146.847 5.75366C145.949 6.6457 145.499 7.70128 145.499 8.92041C145.499 9.87192 145.778 10.6748 146.336 11.3289C146.894 11.9533 147.607 12.4588 148.474 12.8454C149.373 13.2319 150.365 13.6036 151.449 13.9604C152.534 14.2875 153.618 14.7038 154.703 15.2093C155.788 15.685 156.764 16.2649 157.632 16.9488C158.53 17.6327 159.259 18.599 159.816 19.8479C160.374 21.0968 160.653 22.5686 160.653 24.2635Z" fill="black"/>
<path d="M217.222 33.6299H212.201V19.2681H198.024V33.6299H193.003V0.624428H198.024V14.8525H212.201V0.624428H217.222V33.6299Z" fill="black"/>
<path d="M254.08 22.97C254.08 26.6274 252.918 29.4522 250.593 31.4444C248.424 33.3177 245.744 34.2544 242.552 34.2544C239.36 34.2544 236.679 33.3177 234.51 31.4444C232.186 29.4522 231.024 26.6274 231.024 22.97V0.624428H236.044V22.8362C236.044 24.8879 236.602 26.5679 237.717 27.8763C238.864 29.1846 240.475 29.8388 242.552 29.8388C244.628 29.8388 246.224 29.1846 247.34 27.8763C248.486 26.5679 249.059 24.8879 249.059 22.8362V0.624428H254.08V22.97Z" fill="black"/>
<path d="M304.449 33.6299H299.429V5.75366H299.289L287.715 33.6299H284.693L273.072 5.75366H272.979V33.6299H267.959V0.624428H275.861L286.181 25.9138L296.547 0.624428H304.449V33.6299Z" fill="black"/>
<path d="M346.08 33.6299H340.734L336.922 23.9067H324.557L320.746 33.6299H315.447L328.509 0.624428H333.018L346.08 33.6299ZM335.202 19.4911L330.833 6.86871H330.74L326.324 19.4911H335.202Z" fill="black"/>
<path d="M384.41 33.6299H379.204L362.191 8.11757H362.098V33.6299H357.077V0.624428H362.563L379.297 25.7354H379.39V0.624428H384.41V33.6299Z" fill="black"/>
</svg>
