<svg width="535" height="233" viewBox="0 0 535 233" fill="none" xmlns="http://www.w3.org/2000/svg">
<path d="M318.106 210.649H312.39V228.25H318.01C320.882 228.25 323.18 227.402 324.889 225.706C325.587 225.009 326.134 224.079 326.517 222.903C326.9 221.727 327.105 220.592 327.105 219.498C327.105 217.433 326.503 215.559 325.3 213.877C323.754 211.716 321.361 210.636 318.12 210.636L318.106 210.649ZM322.797 224.216C321.634 225.337 320.048 225.912 318.038 225.912H314.974V213.015H318.092C319.474 213.015 320.677 213.33 321.703 213.973C322.729 214.615 323.508 215.559 324.014 216.817C324.356 217.72 324.534 218.622 324.534 219.511C324.534 221.522 323.959 223.094 322.797 224.216Z" fill="#010101"/>
<path d="M330.973 228.251H340.464V225.899H333.544V220.552H340.464V218.186H333.544V213.003H340.464V210.65H330.973V228.251Z" fill="#010101"/>
<path d="M354.071 224.135L348.792 210.65H344.744V228.251H347.315V213.386H347.37L353.319 228.251H354.864L360.786 213.386H360.854V228.251H363.425V210.65H359.377L354.071 224.135Z" fill="#010101"/>
<path d="M376.42 210.323C373.876 210.323 371.715 211.212 369.937 212.99C368.159 214.768 367.257 216.929 367.257 219.459C367.257 221.989 368.159 224.136 369.951 225.914C371.742 227.691 373.903 228.594 376.42 228.594C378.936 228.594 381.097 227.705 382.888 225.927C384.68 224.149 385.582 222.016 385.582 219.5C385.582 216.983 384.693 214.754 382.929 212.976C381.165 211.198 378.991 210.31 376.42 210.31V210.323ZM382.56 221.879C382.054 223.247 381.261 224.313 380.194 225.079C379.127 225.845 377.869 226.228 376.42 226.228C375.066 226.228 373.876 225.886 372.837 225.189C371.797 224.505 371.004 223.534 370.443 222.303C370.033 221.319 369.828 220.375 369.828 219.445C369.828 218.515 370.033 217.585 370.443 216.641C370.977 215.383 371.77 214.412 372.809 213.715C373.849 213.017 375.052 212.662 376.42 212.662C378.307 212.662 379.88 213.332 381.124 214.658C382.382 215.985 382.998 217.612 382.998 219.513C382.998 220.307 382.847 221.086 382.546 221.866L382.56 221.879Z" fill="#010101"/>
<path d="M397.673 212.671C399.56 212.671 401.215 213.491 402.623 215.146H405.714C404.962 213.833 404.059 212.794 403.006 212.028C401.42 210.879 399.628 210.318 397.631 210.318C395.129 210.318 392.982 211.194 391.218 212.958C389.453 214.722 388.564 216.855 388.564 219.385C388.564 221.915 389.453 224.049 391.218 225.868C392.982 227.687 395.115 228.589 397.604 228.589C399.286 228.589 400.832 228.179 402.227 227.358C403.635 226.538 404.757 225.389 405.591 223.912H402.432C401.83 224.623 401.105 225.198 400.257 225.608C399.409 226.032 398.534 226.237 397.631 226.237C395.826 226.237 394.295 225.553 393.023 224.186C391.765 222.818 391.136 221.232 391.136 219.399C391.136 217.566 391.765 215.953 393.023 214.64C394.281 213.327 395.84 212.671 397.673 212.671Z" fill="#010101"/>
<path d="M420.714 216.285C420.714 214.534 420.181 213.153 419.101 212.127C418.102 211.143 416.543 210.65 414.41 210.65H408.967V228.251H411.538V220.087H411.579L417.377 228.251H420.591L415.668 221.687C416.188 221.687 416.762 221.577 417.377 221.358C419.593 220.565 420.714 218.883 420.714 216.285ZM416.557 219.075C416.065 219.307 415.559 219.485 415.039 219.581C414.519 219.69 413.931 219.731 413.302 219.731H411.538V213.003H414.246C415.34 213.003 416.27 213.29 417.022 213.851C417.774 214.411 418.157 215.232 418.157 216.285C418.157 216.955 418.02 217.516 417.733 217.994C417.446 218.473 417.063 218.828 416.571 219.061L416.557 219.075Z" fill="#010101"/>
<path d="M429.712 210.65L423.024 228.251H425.732L427.688 223.068H434.02L435.975 228.251H438.711L432.023 210.65H429.712ZM428.59 220.716L430.847 213.987H430.888L433.131 220.716H428.59Z" fill="#010101"/>
<path d="M439.722 213.003H443.1V228.251H445.671V213.003H449.049V210.65H439.722V213.003Z" fill="#010101"/>
<path d="M454.766 210.65H452.195V228.251H454.766V210.65Z" fill="#010101"/>
<path d="M468.306 213.003V210.65H458.186V213.003H465.42L457.789 225.899V228.251H468.607V225.899H460.716L468.306 213.003Z" fill="#010101"/>
<path d="M471.396 228.251H480.887V225.899H473.968V220.552H480.887V218.186H473.968V213.003H480.887V210.65H471.396V228.251Z" fill="#010101"/>
<path d="M499.433 210.65L492.745 228.251H495.453L497.409 223.068H503.74L505.696 228.251H508.431L501.744 210.65H499.433ZM498.311 220.716L500.568 213.987H500.609L502.851 220.716H498.311Z" fill="#010101"/>
<path d="M523.172 216.285C523.172 214.534 522.639 213.153 521.559 212.127C520.56 211.143 519.001 210.65 516.868 210.65H511.425V228.251H513.996V220.087H514.037L519.835 228.251H523.049L518.126 221.687C518.646 221.687 519.22 221.577 519.835 221.358C522.051 220.565 523.172 218.883 523.172 216.285ZM519.015 219.075C518.523 219.307 518.017 219.485 517.497 219.581C516.977 219.69 516.389 219.731 515.76 219.731H513.996V213.003H516.704C517.798 213.003 518.728 213.29 519.48 213.851C520.232 214.411 520.615 215.232 520.615 216.285C520.615 216.955 520.478 217.516 520.191 217.994C519.904 218.473 519.521 218.828 519.029 219.061L519.015 219.075Z" fill="#010101"/>
<path d="M525.579 213.003H528.957V228.251H531.528V213.003H534.906V210.65H525.579V213.003Z" fill="#010101"/>
<path d="M77.1823 108.146C79.4705 108.923 81.8173 109.524 84.1495 109.935C86.7458 110.39 89.3126 110.624 91.8062 110.624C93.1116 110.624 94.3878 110.566 95.6492 110.434C96.4266 110.36 96.984 109.671 96.9106 108.894C96.8373 108.116 96.1479 107.559 95.3705 107.632C91.9382 107.97 88.3299 107.808 84.6336 107.163C82.4334 106.767 80.2332 106.209 78.077 105.476C77.3436 105.227 76.5515 105.623 76.3022 106.356C76.0528 107.089 76.4489 107.882 77.1823 108.131V108.146Z" fill="#010101"/>
<path d="M125.56 123.621C128.523 124.134 131.53 124.398 134.522 124.398C134.83 124.398 135.139 124.398 135.447 124.398C138.131 124.354 140.83 124.09 143.47 123.621C144.233 123.489 144.746 122.77 144.599 121.993C144.467 121.23 143.749 120.717 142.971 120.849C140.463 121.289 137.911 121.538 135.373 121.582C132.249 121.641 129.11 121.392 126.03 120.849C125.267 120.717 124.534 121.23 124.402 121.993C124.27 122.756 124.783 123.489 125.531 123.621H125.56Z" fill="#010101"/>
<path d="M29.2617 29.0565C29.3937 29.2178 29.5404 29.3792 29.687 29.5405C29.8337 29.7019 29.9804 29.8486 30.1271 29.9952C30.2884 30.1566 30.4498 30.3179 30.6258 30.4646C30.8311 30.6406 31.0365 30.8167 31.2565 30.9927C31.3885 31.0953 31.5352 31.198 31.6819 31.3154C32.3126 31.7701 32.9873 32.1661 33.6767 32.4741C33.8234 32.5475 33.9554 32.6061 34.1021 32.6648C34.1901 32.7088 34.2781 32.7381 34.3661 32.7675C34.4981 32.8262 34.6448 32.8702 34.7768 32.9288C34.7768 32.9288 34.8062 32.9288 34.8208 32.9435C35.0262 33.0168 35.2315 33.0755 35.4369 33.1342C35.5102 33.1488 35.5836 33.1782 35.6569 33.1928C36.3463 33.3689 37.0503 33.4715 37.7544 33.5155C37.9158 33.5155 38.0771 33.5155 38.2384 33.5155C40.468 33.5155 42.5068 32.7675 43.8856 31.418C45.0444 30.2739 45.7484 28.7045 45.9978 26.915C45.9978 26.827 46.0271 26.7243 46.0271 26.6363C46.0711 26.2549 46.0858 25.8589 46.0711 25.4629C46.0711 24.6708 45.9685 23.8494 45.7778 23.0133C45.7778 22.9693 45.7484 22.9107 45.7338 22.852C45.6898 22.6906 45.6458 22.5293 45.6018 22.3533C45.6018 22.3239 45.5871 22.2946 45.5724 22.2653C45.5578 22.1919 45.5284 22.1333 45.4991 22.0746C45.3817 21.8252 45.2057 21.6199 44.971 21.4732C44.6483 21.2679 44.2376 21.1945 43.8416 21.3119C43.0935 21.5319 42.6682 22.3093 42.8882 23.0573C43.6363 25.6096 43.2549 28.1178 41.9201 29.4379C41.0107 30.3326 39.5292 30.8167 37.8864 30.7286C36.625 30.67 35.3635 30.2886 34.2048 29.6432C34.1754 29.6286 34.1461 29.6139 34.1168 29.5992C33.3834 29.1738 32.694 28.6605 32.0486 28.0298C31.8872 27.8684 31.7112 27.6924 31.5645 27.5017C31.5645 27.487 31.5352 27.4724 31.5205 27.4577C31.4765 27.399 31.4325 27.355 31.3739 27.2964C31.3445 27.2524 31.3152 27.223 31.2858 27.1937C30.7725 26.695 29.9657 26.651 29.4084 27.1057C28.8363 27.575 28.7483 28.4111 29.159 28.9978C29.1737 29.0272 29.203 29.0565 29.2177 29.0858L29.2617 29.0565Z" fill="#010101"/>
<path d="M64.2475 21.0177C64.3649 21.091 64.4675 21.135 64.5702 21.1937C64.7022 21.2523 64.8342 21.311 64.9516 21.355C65.2156 21.4577 65.4796 21.5604 65.7436 21.6484C65.905 21.707 66.081 21.751 66.2424 21.7951C66.8731 21.9564 67.5185 22.0591 68.1639 22.0884C68.2665 22.0884 68.3839 22.0884 68.4865 22.0884H68.5159C70.4374 22.0884 72.0949 21.4137 73.239 20.1669C75.0284 18.2161 75.4538 14.7985 74.3684 11.2488C74.2951 11.0142 74.1777 10.8235 74.0164 10.6621C73.9724 10.6181 73.9137 10.5741 73.855 10.5301C73.5177 10.2808 73.0629 10.1928 72.6376 10.3248C71.9042 10.5448 71.4788 11.3368 71.6988 12.0702C72.4762 14.5931 72.2562 17.0867 71.1708 18.2748C70.5254 18.9788 69.5133 19.3308 68.2812 19.2868C67.2691 19.2428 66.2277 18.9201 65.2303 18.3628C65.0542 18.2601 64.8782 18.1574 64.7022 18.0401C64.5702 17.9521 64.4529 17.8787 64.3209 17.776C64.2328 17.7174 64.1448 17.644 64.0568 17.5707C63.8808 17.4387 63.7048 17.292 63.5288 17.1453C63.4408 17.072 63.3674 16.984 63.2794 16.9106C63.2794 16.9106 63.2794 16.9106 63.2501 16.896C62.8247 16.4999 62.4287 16.0452 62.0473 15.5612C61.9006 15.3705 61.71 15.2238 61.5046 15.1358C61.0499 14.9305 60.5072 14.9745 60.0818 15.2972C59.4658 15.7665 59.3484 16.6466 59.8325 17.2627C61.0939 18.9055 62.6047 20.1816 64.2328 21.003L64.2475 21.0177Z" fill="#010101"/>
<path d="M73.5475 28.8816C73.4595 28.8376 73.3568 28.7936 73.2688 28.7496C73.2395 28.7496 73.2101 28.7349 73.1808 28.7202C73.0928 28.6909 73.0195 28.6616 72.9314 28.6322C71.4647 28.1922 70.0125 28.6322 69.4405 29.8057C69.0884 30.539 69.1618 31.3898 69.6165 32.1672C69.7485 32.3872 69.9098 32.6072 70.1005 32.7979C70.1592 32.8566 70.2325 32.9299 70.3059 32.9886C70.4379 33.1059 70.5846 33.2233 70.7459 33.3259C70.8339 33.3699 70.9073 33.4286 70.9953 33.4726C71.0833 33.5166 71.1566 33.5606 71.2446 33.6046C71.318 33.6486 71.3913 33.678 71.4647 33.7073C71.5233 33.7366 71.582 33.7513 71.6553 33.7807C71.7433 33.81 71.8167 33.8393 71.9047 33.8687C72.2714 33.9713 72.6234 34.03 72.9608 34.03C74.0169 34.03 74.9263 33.546 75.3517 32.6806C75.7037 31.9472 75.6303 31.0964 75.1756 30.319C74.8089 29.7176 74.2369 29.2189 73.5475 28.8816Z" fill="#010101"/>
<path d="M81.3221 29.0258C81.8061 29.2605 82.3195 29.3778 82.7888 29.3778C83.7129 29.3778 84.5343 28.9524 84.901 28.175C85.4731 27.0016 84.7837 25.5202 83.3316 24.8308C83.2142 24.7721 83.0822 24.7134 82.9649 24.6694C82.9649 24.6694 82.9355 24.6694 82.9209 24.6694C81.6007 24.2147 80.2513 24.6254 79.7379 25.6962C79.1659 26.8696 79.8553 28.3511 81.3074 29.0405L81.3221 29.0258Z" fill="#010101"/>
<path d="M175.783 177.731C175.636 177.701 175.49 177.701 175.343 177.701C175.181 177.701 175.005 177.716 174.829 177.745C173.465 177.951 172.351 178.831 171.852 180.121L169.168 186.971C169.124 187.089 169.065 187.177 168.977 187.279L164.195 192.604C163.3 193.586 163.007 194.951 163.374 196.212C163.579 196.901 163.975 197.517 164.489 197.972C164.547 198.016 164.606 198.06 164.65 198.104C164.87 198.28 165.119 198.442 165.383 198.559C165.589 198.647 165.794 198.735 166.014 198.794L166.879 199.028C167.055 199.072 167.231 199.116 167.407 199.131C167.466 199.131 167.525 199.131 167.584 199.146C167.686 199.146 167.789 199.146 167.877 199.146C168.786 199.146 169.666 198.823 170.37 198.207L175.768 193.484C176.37 192.956 176.78 192.266 176.971 191.474L179.083 182.336C179.347 181.207 179.083 180.033 178.364 179.124C177.719 178.303 176.78 177.789 175.768 177.701L175.783 177.731Z" fill="#010101"/>
<path d="M240.994 93.9628C240.965 93.7867 240.906 93.6107 240.833 93.464C240.613 91.9092 240.202 90.3398 239.601 88.829C238.999 87.3182 238.193 85.7927 237.21 84.3113C235.23 81.3484 232.457 78.4588 228.966 75.7012C229.759 74.8212 230.492 74.0291 231.211 73.2664C231.225 73.2517 231.24 73.2224 231.255 73.2077C232.589 71.6382 233.029 69.438 232.369 67.4725L232.12 66.6951C232.12 66.6951 232.076 66.6071 232.061 66.5485C231.064 64.3776 229.612 63.0575 227.954 62.8228C225.622 62.5001 223.862 64.407 222.454 65.9471C221.148 67.3699 219.872 68.866 218.626 70.4355C218.992 69.2914 219.476 68.2206 220.078 67.2232C220.928 65.8004 221.867 64.759 222.703 63.8496C224.053 62.3681 225.343 60.96 225.255 58.7158C225.138 55.6356 222.425 52.57 219.667 52.4233H219.462C217.32 52.4233 215.795 54.3301 213.081 57.7037V57.7331C211.908 59.1852 210.808 60.7253 209.839 62.3241C209.883 61.6347 209.927 60.9307 209.971 60.2413C210.089 58.2318 210.162 56.1929 210.192 54.1688C210.192 54.0514 210.191 53.9341 210.206 53.8167C210.25 51.7046 208.989 49.8417 206.994 49.0497C204.94 48.2429 202.682 48.771 201.215 50.3845C200.672 51.0005 200.173 51.6459 199.763 52.3353C198.09 55.1515 198.002 57.8944 197.958 59.3759V59.4052C197.958 59.7866 197.929 60.1679 197.914 60.5346C191.094 58.3638 183.613 56.4716 175.707 54.9315H175.678C174.343 53.6261 172.832 52.5993 171.204 51.8512C169.517 51.0885 167.757 50.6485 165.938 50.5605C163.401 50.4285 160.907 50.9858 158.502 52.2179C149.056 51.0298 140.284 50.3551 130.882 50.0764C130.383 48.5803 129.621 47.3335 128.608 46.3801C125.558 43.4612 121.186 43.6372 114.557 43.9159C109.716 44.1213 104.876 44.8987 100.197 46.2334C100.945 44.6933 101.619 43.1385 102.177 41.5984C104.685 34.7778 108.484 24.481 102.588 17.4844C101.326 15.9883 99.7273 14.7855 97.8204 13.9054C96.207 13.172 94.3735 12.6586 92.3346 12.38C88.6677 11.8812 85.2354 12.2626 83.5045 12.5266C82.8885 11.1625 82.1258 9.87175 81.275 8.66898C80.4243 7.48088 79.4562 6.38079 78.4001 5.39804C77.344 4.41529 76.1999 3.54989 74.9825 2.81649C73.765 2.0831 72.4596 1.46705 71.1248 0.997675C66.6364 -0.542453 62.104 -0.293099 58.6717 1.70173C56.3982 3.02184 54.6087 4.73799 53.3179 6.82083C52.0418 8.889 51.3231 11.2359 51.1471 13.8174C49.0642 11.7932 46.5854 10.3411 43.7838 9.49038C39.9408 8.33162 35.5991 8.33162 31.228 9.49038C26.2409 10.8105 21.9432 14.0961 19.127 18.7458C17.7775 20.9753 16.8241 23.4102 16.3254 25.9771C15.8267 28.544 15.768 31.1549 16.1787 33.7657C14.1986 35.8486 12.3797 38.1221 10.7809 40.4983L10.6343 40.7183C6.82059 46.4095 3.81366 50.8832 4.38571 56.2076C4.76708 59.8159 6.71791 63.1602 10.1795 66.1524C12.2917 67.9859 14.4773 69.2034 15.592 69.7754C13.4212 72.0929 11.4997 74.7918 9.63683 77.4174C8.68342 78.7668 7.37797 80.615 6.10186 82.7418C3.18294 86.5555 1.54013 90.5598 1.23211 94.6081C0.645389 99.4632 0 106.944 0 111.916C0 128.256 3.19761 144.112 9.51949 159.044C15.6213 173.463 24.3488 186.414 35.4671 197.533C46.5854 208.651 59.5371 217.378 73.9557 223.48C88.8877 229.787 104.744 233 121.084 233C137.424 233 153.28 229.802 168.212 223.48C182.63 217.378 195.582 208.651 206.701 197.533C217.819 186.414 226.546 173.463 232.648 159.044C238.955 144.142 242.168 128.271 242.168 111.931C242.168 109.379 242.094 106.812 241.948 104.26C241.757 100.827 241.434 97.351 240.98 93.9481L240.994 93.9628ZM191.725 61.6054C192.751 61.8987 193.778 62.2068 194.776 62.5001C195.773 62.8082 196.77 63.1162 197.738 63.4389C197.709 63.9082 197.665 64.407 197.621 65.0083C197.533 66.1524 197.46 67.1792 197.401 68.2353C197.225 68.1766 197.034 68.1033 196.844 68.0446L196.741 68.0006C192.311 66.4898 187.486 65.0963 182.381 63.8642C181.721 63.7029 181.12 63.5709 180.548 63.4242C180.489 63.2922 180.43 63.1602 180.386 63.0282C180.298 62.8228 180.21 62.6028 180.122 62.3975C179.697 60.96 179.11 59.5959 178.347 58.3344C182.968 59.3025 187.456 60.4026 191.71 61.6054H191.725ZM197.284 79.3095C195.758 78.6788 194.247 78.0921 192.781 77.564C192.678 77.52 192.575 77.4907 192.458 77.4467C192.385 77.4174 192.326 77.4027 192.253 77.3734C191.549 77.124 190.888 76.904 190.272 76.6986C190.052 76.6253 189.832 76.552 189.612 76.4786C188.82 76.2293 188.028 75.9799 187.236 75.7452C186.547 75.5399 185.857 75.3345 185.197 75.1585C184.171 72.3276 183.056 69.4674 181.897 66.6218C187.412 67.9566 192.59 69.482 197.284 71.1542C197.284 71.7849 197.269 72.3276 197.269 72.841C197.284 74.9678 197.298 77.212 197.269 79.2949L197.284 79.3095ZM197.196 82.3311C197.034 85.9541 196.682 88.609 196.066 90.6771C195.729 91.8359 195.304 92.804 194.79 93.6547C194.247 94.5348 193.617 95.2535 192.854 95.8402C192.575 96.0603 192.267 96.2656 191.959 96.4563C190.698 91.8212 189.304 87.1569 187.794 82.6098C187.368 81.3337 186.899 79.9696 186.371 78.4441C188.248 79.0015 190.082 79.6029 191.813 80.2189C193.573 80.8497 195.377 81.5684 197.181 82.3311H197.196ZM165.792 53.362C165.909 53.362 166.012 53.362 166.144 53.3767C166.173 53.3767 166.188 53.3767 166.217 53.3767H166.261C166.261 53.3767 166.408 53.3767 166.481 53.406C166.525 53.406 166.569 53.406 166.613 53.4207H166.628C166.628 53.4207 166.745 53.4354 166.818 53.45C166.877 53.45 166.936 53.4647 166.98 53.4794C167.038 53.4794 167.097 53.494 167.141 53.5087C167.2 53.5087 167.258 53.5234 167.332 53.5381C167.376 53.5381 167.405 53.5381 167.434 53.5527H167.478C167.478 53.5527 167.596 53.5967 167.654 53.5967C167.654 53.5967 167.684 53.5967 167.698 53.5967C167.698 53.5967 167.713 53.5967 167.728 53.5967C167.86 53.6261 168.007 53.6701 168.168 53.6994H168.197C168.197 53.6994 168.227 53.7141 168.241 53.7141C168.403 53.7581 168.549 53.8021 168.681 53.8461H168.711C168.872 53.9047 169.048 53.9634 169.253 54.0368C173.14 55.4889 176.191 58.9212 177.438 63.2189C177.453 63.2775 177.482 63.3362 177.497 63.3802C180.298 69.9221 182.85 76.684 185.109 83.4459C186.781 88.477 188.307 93.6401 189.656 98.7591C189.73 99.0085 189.862 99.2432 190.038 99.4192C190.096 99.4779 190.17 99.5365 190.243 99.5805C190.287 99.6099 190.331 99.6246 190.375 99.6539C190.39 99.6539 190.419 99.6686 190.434 99.6832C190.434 99.6832 190.434 99.6832 190.448 99.6832C190.478 99.6832 190.507 99.7126 190.536 99.7272C190.566 99.7272 190.61 99.7566 190.639 99.7712C190.668 99.7859 190.712 99.7859 190.742 99.8006C190.771 99.8006 190.815 99.8006 190.844 99.8152H190.874C190.874 99.8152 190.918 99.8152 190.947 99.8152H191.197C191.197 99.8152 191.241 99.8152 191.255 99.8152C191.255 99.8152 191.27 99.8152 191.285 99.8152C191.299 99.8152 191.329 99.8152 191.358 99.8006C191.358 99.8006 191.358 99.8006 191.387 99.8006C191.431 99.8006 191.461 99.7859 191.49 99.7712C192.605 99.3605 193.646 98.7885 194.555 98.0698C196.492 96.559 197.856 94.4028 198.736 91.4839C199.469 89.0343 199.865 85.9541 200.027 81.8177C200.085 81.5977 200.085 81.3777 200.041 81.1724C200.115 78.5761 200.1 75.7892 200.071 72.841C200.071 72.1076 200.071 71.3009 200.115 70.4061C200.115 70.3181 200.129 70.2154 200.115 70.0981C200.188 68.4406 200.305 66.7832 200.408 65.199C200.54 63.3362 200.687 61.4 200.731 59.4785V59.4492C200.775 58.1438 200.833 55.9583 202.139 53.7727C202.461 53.2447 202.828 52.7313 203.254 52.2619C203.298 52.2179 203.342 52.1739 203.4 52.1153C203.4 52.1153 203.4 52.1006 203.415 52.0859C203.459 52.0419 203.503 51.9979 203.562 51.9686C203.562 51.9686 203.65 51.8952 203.694 51.8659C203.694 51.8659 203.782 51.8072 203.84 51.7779C203.84 51.7779 203.855 51.7779 203.87 51.7632C203.928 51.7339 203.972 51.7192 204.031 51.6899H204.046C204.046 51.6899 204.134 51.6459 204.192 51.6312C204.192 51.6312 204.192 51.6312 204.207 51.6312C204.251 51.6166 204.31 51.6019 204.368 51.5872H204.398C204.5 51.5579 204.603 51.5432 204.706 51.5432H204.75C204.75 51.5432 204.852 51.5432 204.896 51.5432H204.911C205.043 51.5432 205.19 51.5432 205.336 51.5872C205.38 51.5872 205.424 51.5872 205.454 51.6166C205.498 51.6166 205.556 51.6459 205.6 51.6606C205.688 51.6899 205.762 51.7046 205.835 51.7486C205.85 51.7486 205.879 51.7632 205.908 51.7779C205.923 51.7779 205.938 51.7779 205.952 51.8072C205.982 51.8072 206.011 51.8366 206.04 51.8512C206.114 51.8952 206.172 51.9246 206.246 51.9686C206.73 52.2619 207.302 52.8487 207.273 53.8607C207.273 53.9341 207.273 54.0074 207.273 54.0661V54.1541C207.243 56.1489 207.17 58.1731 207.053 60.1679C206.862 63.4829 206.569 66.8272 206.172 70.1274C206.114 70.5968 206.305 71.0662 206.671 71.3742C206.73 71.4182 206.789 71.4622 206.847 71.4915C206.877 71.5062 206.906 71.5355 206.935 71.5355C206.979 71.5649 207.023 71.5796 207.082 71.5942C207.126 71.5942 207.155 71.6236 207.199 71.6382C207.243 71.6529 207.287 71.6529 207.317 71.6676C207.537 71.7116 208.666 71.8289 209.033 70.3328C209.37 68.9393 211.394 64.2896 215.164 59.5666C216.117 58.3785 217.012 57.2637 217.731 56.501C218.508 55.6796 219.036 55.3129 219.403 55.3275C219.447 55.3275 219.506 55.3275 219.564 55.3422C219.564 55.3422 219.667 55.3715 219.726 55.3862H219.755C219.755 55.3862 219.858 55.4302 219.916 55.4449C219.916 55.4449 219.916 55.4449 219.931 55.4449C219.975 55.4595 220.034 55.4889 220.092 55.5182H220.122C220.122 55.5182 220.239 55.5916 220.283 55.6209H220.312C220.312 55.6209 220.43 55.7089 220.474 55.7382C220.474 55.7382 220.591 55.8262 220.635 55.8702C220.635 55.8702 220.752 55.9729 220.811 56.0316C220.84 56.0609 220.87 56.0903 220.899 56.1196C221.09 56.2956 221.251 56.4863 221.412 56.6916C221.5 56.7943 221.574 56.9117 221.632 57.0143C222.014 57.6304 222.234 58.2758 222.249 58.8772C222.293 59.9186 221.676 60.6373 220.43 62.0014C219.55 62.9695 218.464 64.1576 217.467 65.8297C215.751 68.7046 214.827 72.0783 214.739 75.8772C214.739 76.1999 214.841 76.5373 215.047 76.7867C215.076 76.8307 215.105 76.86 215.135 76.8893C215.164 76.9333 215.208 76.9627 215.252 77.0067C215.296 77.0507 215.34 77.08 215.384 77.1093C215.487 77.168 215.589 77.2267 215.692 77.256C215.985 77.344 216.293 77.344 216.587 77.256C216.88 77.168 217.115 76.9773 217.291 76.728C219.506 73.5744 221.882 70.5968 224.346 67.9126C224.419 67.8392 224.478 67.7659 224.537 67.7072H224.551C224.61 67.6192 224.669 67.5606 224.742 67.4872L224.771 67.4579C224.771 67.4579 224.889 67.3405 224.947 67.2672L224.977 67.2379C224.977 67.2379 225.094 67.1205 225.153 67.0618L225.182 67.0325C225.182 67.0325 225.299 66.9152 225.343 66.8712L225.373 66.8418C225.373 66.8418 225.49 66.7245 225.534 66.6805H225.549C225.608 66.6071 225.666 66.5485 225.71 66.5045C225.828 66.3871 225.945 66.2844 226.048 66.1964C226.048 66.1964 226.15 66.1084 226.209 66.0644H226.224C226.224 66.0644 226.326 65.9764 226.37 65.9471H226.4C226.4 65.9471 226.502 65.8737 226.546 65.8444H226.576C226.576 65.8444 226.678 65.7857 226.722 65.7564H226.737C226.737 65.7564 226.825 65.7124 226.869 65.6977H226.884C226.884 65.6977 226.972 65.6684 227.016 65.6537C227.06 65.6537 227.104 65.6537 227.133 65.6537H227.294C227.294 65.6537 227.368 65.6537 227.412 65.6831C227.412 65.6831 227.426 65.6831 227.441 65.6831C227.485 65.6831 227.529 65.7124 227.558 65.7271C227.558 65.7271 227.617 65.7564 227.646 65.7711C227.808 65.8591 227.984 65.9764 228.145 66.1378C228.218 66.1964 228.277 66.2698 228.35 66.3431C228.424 66.4165 228.482 66.5045 228.556 66.5925C228.79 66.9005 228.996 67.2672 229.201 67.6779L229.436 68.382C229.773 69.394 229.553 70.5381 228.864 71.3742C227.808 72.5036 226.693 73.7064 225.578 74.9825C225.578 74.9825 225.578 75.0118 225.563 75.0118L225.505 75.0852C223.158 77.7547 220.914 80.4976 218.816 83.2552C217.085 85.5287 215.399 87.9196 213.785 90.3251C210.236 95.6496 207.009 101.267 204.192 107.017C203.987 106.973 203.767 106.914 203.547 106.87H203.488C203.4 106.841 203.312 106.826 203.224 106.797H203.21C202.931 106.738 202.638 106.68 202.3 106.606C202.183 106.577 202.036 106.562 201.889 106.533C201.801 106.533 201.699 106.504 201.611 106.489C201.347 106.445 201.112 106.416 200.907 106.386C200.687 106.357 200.467 106.328 200.261 106.298C199.323 106.196 198.384 106.137 197.46 106.137H197.02C194.247 106.166 192.223 106.592 190.272 107.017H190.243C190.126 107.047 190.023 107.061 189.92 107.091C189.818 107.12 189.715 107.135 189.612 107.149L189.48 107.179C189.48 107.179 189.363 107.208 189.319 107.223L189.202 107.252C189.202 107.252 189.07 107.281 189.011 107.296C188.967 107.296 188.923 107.311 188.894 107.325C188.835 107.325 188.776 107.355 188.703 107.369C188.659 107.369 188.615 107.384 188.586 107.399C188.527 107.399 188.454 107.428 188.395 107.443C188.395 107.443 188.322 107.457 188.278 107.472C188.204 107.472 188.131 107.501 188.072 107.516H188.028C188.028 107.516 187.984 107.516 187.97 107.531C187.75 107.575 187.53 107.604 187.324 107.633C187.31 107.633 187.28 107.633 187.266 107.633H187.222C187.148 107.648 187.075 107.663 187.001 107.677C186.957 107.677 186.913 107.677 186.884 107.677C186.884 107.677 186.737 107.692 186.679 107.707C186.635 107.707 186.591 107.707 186.547 107.721C186.473 107.721 186.415 107.736 186.341 107.751C186.297 107.751 186.253 107.751 186.195 107.751C186.121 107.751 186.048 107.751 185.975 107.765H185.945C185.945 107.765 185.872 107.765 185.828 107.765C185.74 107.765 185.667 107.765 185.579 107.78H185.535C185.535 107.78 185.476 107.78 185.447 107.78C185.315 107.78 185.197 107.795 185.08 107.809C184.801 107.824 184.523 107.839 184.259 107.853C183.657 105.624 183.173 104.392 182.044 101.546C180.606 97.9377 178.875 94.4175 176.91 91.0585C176.895 90.9852 176.881 90.9118 176.866 90.8385L176.778 90.4425V90.4131C176.763 90.3104 176.734 90.2078 176.719 90.1198L176.646 89.7971C176.646 89.7971 176.631 89.7091 176.617 89.6651C176.617 89.5917 176.587 89.533 176.573 89.4597C176.573 89.4157 176.558 89.3717 176.543 89.3277L176.397 88.653C176.397 88.653 176.367 88.521 176.353 88.4476L176.323 88.3009C176.323 88.3009 176.294 88.1689 176.279 88.1103C176.279 88.0809 176.279 88.0516 176.25 88.0076L176.221 87.8902C176.221 87.8902 176.206 87.8022 176.191 87.7582C176.191 87.7142 176.162 87.6556 176.147 87.5969V87.5529C176.147 87.5529 176.118 87.4649 176.103 87.4209L176.059 87.2595C176.059 87.2595 176.03 87.1422 176.015 87.0688C176.015 87.0102 175.986 86.9662 175.971 86.9075C175.971 86.8488 175.942 86.7902 175.927 86.7168C175.927 86.6728 175.898 86.6288 175.883 86.5701C175.869 86.4821 175.839 86.4235 175.839 86.3648C175.839 86.3061 175.81 86.2621 175.795 86.2034C175.781 86.1448 175.766 86.0861 175.751 86.0128C175.751 85.9541 175.722 85.9101 175.707 85.8514C175.693 85.7927 175.678 85.7341 175.663 85.6607C175.663 85.6021 175.634 85.558 175.619 85.4994C175.619 85.4407 175.59 85.382 175.575 85.338C175.56 85.2647 175.546 85.2207 175.531 85.162C175.516 85.1033 175.502 85.0447 175.487 84.9713L175.443 84.81C175.443 84.81 175.399 84.6926 175.399 84.6193C175.399 84.5606 175.37 84.5166 175.355 84.458C175.34 84.3993 175.311 84.3406 175.296 84.2673C175.282 84.2086 175.267 84.1646 175.252 84.1059C175.238 84.0473 175.208 83.9886 175.194 83.9152V83.8859C175.194 83.8859 175.15 83.7979 175.15 83.7539C175.135 83.6952 175.106 83.6366 175.091 83.5632C175.076 83.5192 175.062 83.4605 175.047 83.4019C175.032 83.3432 175.003 83.2845 174.988 83.2112V83.1525C174.988 83.1525 174.944 83.0792 174.944 83.0498C174.93 83.0058 174.915 82.9472 174.9 82.9032L174.871 82.8298C174.871 82.8298 174.842 82.7565 174.827 82.7125C174.812 82.6538 174.783 82.5951 174.768 82.5511L174.739 82.4778C174.739 82.4778 174.71 82.4045 174.695 82.3751C174.68 82.3164 174.651 82.2578 174.636 82.1844V82.1551C174.636 82.1551 174.592 82.0671 174.592 82.0378C174.578 81.9938 174.548 81.9351 174.534 81.8764V81.8177C174.534 81.8177 174.49 81.7444 174.475 81.7004C174.446 81.6417 174.431 81.5831 174.402 81.5244V81.4657C174.402 81.4657 174.358 81.407 174.343 81.3777C174.328 81.3337 174.299 81.275 174.284 81.2164L174.255 81.1283C174.255 81.1283 174.226 81.0697 174.226 81.0403C174.196 80.9817 174.182 80.923 174.152 80.879L174.123 80.791C174.123 80.791 174.108 80.747 174.094 80.7176C174.064 80.6296 174.035 80.5563 174.006 80.483V80.4536L173.976 80.4096C173.932 80.3069 173.888 80.2043 173.844 80.1016C173.8 79.9842 173.756 79.8962 173.712 79.7936C173.712 79.7789 173.698 79.7496 173.683 79.7349C173.683 79.7349 173.683 79.7056 173.668 79.6909C173.639 79.6176 173.61 79.5589 173.58 79.4855C173.58 79.4562 173.551 79.4415 173.536 79.4122L173.507 79.3535C173.507 79.3535 173.463 79.2509 173.434 79.1922C173.434 79.1628 173.404 79.1482 173.39 79.1042L173.36 79.0455C173.36 79.0455 173.316 78.9428 173.287 78.8988C173.287 78.8695 173.258 78.8548 173.243 78.8108L173.199 78.7375C173.199 78.7375 173.155 78.6495 173.126 78.5908C173.111 78.5615 173.096 78.5321 173.082 78.5028L173.052 78.4588C173.052 78.4588 172.994 78.3561 172.964 78.3121C172.95 78.2828 172.935 78.2534 172.92 78.2241L172.891 78.1801C172.891 78.1801 172.847 78.0921 172.803 78.0481C172.788 78.0188 172.774 77.9894 172.759 77.9601V77.9161C172.759 77.9161 172.686 77.8134 172.656 77.7694C172.642 77.7254 172.612 77.6961 172.583 77.6667C172.583 77.6667 172.51 77.5641 172.48 77.5054C172.451 77.4614 172.436 77.432 172.407 77.388C172.378 77.3294 172.348 77.2854 172.319 77.2414C172.29 77.1974 172.275 77.168 172.246 77.1387C172.246 77.1387 172.187 77.036 172.158 77.0067C172.128 76.9627 172.099 76.9333 172.07 76.8893C172.04 76.8453 172.011 76.8013 171.982 76.772C171.952 76.728 171.923 76.6986 171.894 76.6546C171.864 76.6106 171.835 76.5666 171.806 76.5373C171.776 76.4933 171.747 76.464 171.718 76.4346C171.688 76.3906 171.659 76.3466 171.615 76.3173C171.585 76.2733 171.556 76.2439 171.527 76.2146C171.497 76.1706 171.453 76.1413 171.424 76.0973C171.395 76.0679 171.365 76.0239 171.336 75.9946C171.307 75.9506 171.263 75.9212 171.233 75.8919C171.204 75.8626 171.175 75.8332 171.145 75.8039C171.116 75.7599 171.072 75.7306 171.043 75.7012C171.013 75.6719 170.984 75.6426 170.955 75.6132C170.911 75.5692 170.881 75.5399 170.852 75.5105C170.823 75.4812 170.793 75.4519 170.764 75.4225C170.72 75.3932 170.691 75.3639 170.661 75.3345C170.632 75.3052 170.603 75.2759 170.559 75.2465C170.515 75.2172 170.485 75.1879 170.441 75.1585C170.412 75.1292 170.368 75.1145 170.339 75.0852C170.295 75.0558 170.265 75.0265 170.221 74.9972C170.221 74.9972 170.163 74.9385 170.133 74.9238C170.089 74.8945 170.06 74.8798 170.016 74.8505C170.016 74.8505 169.957 74.8065 169.928 74.7772C169.884 74.7478 169.855 74.7331 169.811 74.7038H169.796C169.796 74.7038 169.737 74.6598 169.708 74.6451C169.664 74.6305 169.635 74.6011 169.591 74.5865H169.547C169.547 74.5865 169.503 74.5425 169.473 74.5278C169.429 74.5131 169.4 74.4838 169.356 74.4691H169.312C169.312 74.4691 169.268 74.4251 169.239 74.4105C169.195 74.3958 169.165 74.3811 169.136 74.3664H169.107C169.107 74.3664 169.077 74.3371 169.063 74.3371C169.033 74.3371 169.019 74.3224 168.989 74.3078C168.945 74.3078 168.916 74.2784 168.872 74.2638H168.843L168.799 74.2344C168.799 74.2344 168.755 74.2198 168.725 74.2051C168.681 74.2051 168.637 74.1758 168.608 74.1611H168.579C168.579 74.1611 168.549 74.1611 168.535 74.1464C168.52 74.1464 168.491 74.1464 168.476 74.1318C168.432 74.1318 168.388 74.1024 168.329 74.0878H168.3C168.3 74.0878 168.271 74.0878 168.256 74.0878C168.241 74.0878 168.227 74.0878 168.212 74.0878C168.124 74.0731 168.051 74.0438 167.963 74.0438C162.931 73.149 158.428 79.9256 153.221 87.7582C150.39 92.0266 147.897 96.603 145.799 101.355C145.799 101.355 145.755 101.473 145.726 101.517C145.125 102.895 144.611 104.128 144.156 105.316C140.665 106.46 137.043 107.061 133.361 107.12C133.111 107.12 132.877 107.12 132.627 107.12C131.997 107.12 131.366 107.105 130.735 107.061C130.369 107.047 130.002 107.017 129.635 106.988C129.386 106.958 129.122 106.944 128.858 106.914H128.755C128.462 106.885 128.139 106.841 127.758 106.797C126.922 106.68 126.071 106.533 125.235 106.357C124.751 106.254 124.267 106.137 123.783 106.02C123.313 105.902 122.829 105.77 122.36 105.624C121.788 105.462 121.23 105.272 120.673 105.081C120.526 105.037 120.394 104.978 120.262 104.934C120.101 104.876 119.94 104.817 119.793 104.758C119.632 104.7 119.47 104.641 119.324 104.582C119.016 104.465 118.708 104.333 118.4 104.201C117.872 103.981 117.358 103.746 116.874 103.512L155.465 57.7331C156.169 56.9263 159.998 52.966 165.572 53.2447L165.792 53.362ZM45.6026 117.138H45.5879C46.3213 117.71 47.2894 118.018 48.3602 118.018C49.5043 118.018 50.6484 117.681 51.5285 117.079C52.5699 116.375 53.582 115.085 54.0073 110.552C54.0367 110.244 54.0513 109.936 54.0807 109.628C54.2127 109.98 54.3447 110.303 54.462 110.596C54.6087 110.963 54.7407 111.315 54.8727 111.667C55.8848 114.366 56.6916 116.493 58.9651 117.402C59.3905 117.563 61.576 118.355 63.4241 117.123C64.9496 116.111 65.243 114.395 65.375 113.559C65.5217 112.679 65.5363 111.814 65.419 110.904C66.1817 111.96 66.9885 112.488 68.0299 112.65C69.702 112.899 71.3008 111.887 72.1369 110.787C74.2344 108 72.3569 103.996 71.4475 102.059C71.0368 101.165 70.5528 100.314 69.9514 99.4192C72.4596 100.094 75.8479 100.945 79.8669 101.619C84.1059 102.338 88.2276 102.719 92.4667 102.807C93.2001 102.807 93.9334 102.837 94.6668 102.837C101.751 102.837 108.88 102.133 115.847 100.739L113.999 102.925C112.987 102.866 111.99 102.881 110.992 102.954C109.276 103.086 107.575 103.438 105.932 103.981C105.58 104.098 105.286 104.348 105.125 104.685C104.964 105.022 104.934 105.404 105.052 105.756C105.242 106.328 105.785 106.724 106.387 106.724C106.533 106.724 106.695 106.694 106.827 106.65C108.249 106.166 109.731 105.873 111.212 105.756C112.606 105.638 114.014 105.697 115.407 105.902C119.588 107.985 124.061 109.305 128.682 109.819C134.373 110.449 140.269 109.804 145.741 107.941L150.493 107.751C150.874 107.751 151.226 107.575 151.476 107.296C151.725 107.017 151.857 106.665 151.842 106.284C151.828 105.902 151.666 105.55 151.388 105.301C151.109 105.052 150.757 104.92 150.376 104.934L147.589 105.052C147.823 104.48 148.043 103.937 148.278 103.409C150.434 103.248 152.576 103.028 154.644 102.749C156.331 102.514 158.032 102.235 159.719 101.913C160.203 101.825 160.614 101.473 160.79 100.989L161.714 98.3484C162.125 101.062 162.418 103.82 162.579 106.533C162.814 110.405 162.785 114.336 162.521 118.238H158.252C157.475 118.238 156.844 118.869 156.844 119.646C156.844 120.424 157.475 121.054 158.252 121.054H163.65C165.718 121.626 167.83 121.905 169.943 121.905C170.427 121.905 170.911 121.905 171.395 121.861C173.786 121.714 176.147 121.216 178.406 120.365C180.137 120.042 181.897 119.925 183.628 120.028C183.995 120.057 184.361 119.925 184.64 119.676C184.919 119.426 185.095 119.074 185.109 118.693C185.124 118.311 185.007 117.959 184.743 117.681C184.493 117.402 184.141 117.241 183.775 117.211C182.337 117.123 180.87 117.182 179.418 117.358L178.993 110.273C180.592 110.537 182.205 110.669 183.804 110.669C184.009 110.669 184.229 110.669 184.449 110.669C187.222 110.611 189.216 110.185 191.138 109.76C193.03 109.349 194.834 108.953 197.313 108.939H197.474C199.851 108.939 202.285 109.291 204.72 109.98C205.674 110.479 206.701 110.787 207.771 110.919C208.109 110.963 208.446 110.978 208.783 110.978C209.605 110.978 210.441 110.86 211.233 110.625C211.981 110.405 212.406 109.628 212.201 108.88C212.098 108.513 211.864 108.22 211.526 108.029C211.204 107.853 210.822 107.809 210.456 107.912C209.678 108.132 208.886 108.205 208.094 108.117C207.801 108.088 207.493 108.029 207.155 107.927C209.649 102.851 212.48 97.8791 215.575 93.1413C217.276 94.5348 218.772 96.2363 219.902 98.0698C221.324 100.402 222.263 103.072 222.615 105.785C222.63 105.902 222.674 106.034 222.733 106.181C221.721 107.325 220.532 108.455 219.198 109.555C213.917 113.911 206.319 117.827 196.624 121.216C176.485 128.242 149.686 132.099 121.142 132.099C94.8135 132.099 69.5407 128.726 49.959 122.624C43.9305 120.746 38.5327 118.634 33.9269 116.361C29.3505 114.102 25.5222 111.667 22.5593 109.129C22.5593 109.085 22.5299 108.983 22.4859 108.807C22.2953 108.029 21.7966 105.946 22.0312 104.538C22.1486 103.805 22.3979 103.072 22.75 102.367C23.0873 102.367 23.4247 102.367 23.7621 102.367C28.9545 102.367 34.2496 101.869 39.5154 100.871C41.877 102.822 43.3731 104.978 43.9598 107.267C44.3852 108.939 44.2825 110.508 44.2092 111.902C44.0918 113.838 43.9745 115.847 45.6319 117.138H45.6026ZM165.352 106.386C165.073 101.751 164.442 97.1163 163.474 92.584C163.415 92.3053 163.269 92.0413 163.049 91.8506C163.005 91.8212 162.975 91.7919 162.931 91.7626C162.887 91.7332 162.843 91.7039 162.814 91.6746C162.77 91.6452 162.711 91.6159 162.653 91.5866C162.638 91.5866 162.609 91.5719 162.594 91.5572C162.462 91.4985 162.315 91.4692 162.169 91.4692C161.538 91.4252 160.951 91.8066 160.746 92.408L158.34 99.3019C156.976 99.5512 155.583 99.7712 154.219 99.9619C152.737 100.167 151.168 100.343 149.569 100.49C151.373 96.6616 153.471 92.9507 155.803 89.445C159.748 83.5192 163.811 77.388 166.95 76.9333C167.053 76.9333 167.156 76.904 167.244 76.904C167.405 76.904 167.552 76.904 167.698 76.9333C171.395 77.5787 173.39 87.1422 174.475 92.2759L176.587 118.018C174.842 118.605 173.008 118.957 171.175 119.074C170.691 119.104 170.177 119.118 169.693 119.118H169.679C168.212 119.104 166.73 118.927 165.293 118.605C165.586 114.542 165.616 110.449 165.366 106.386H165.352ZM178.362 99.9179V99.8592C178.333 99.5219 178.318 99.1992 178.289 98.8765C178.846 100.079 179.359 101.297 179.844 102.485C180.797 104.89 181.281 106.122 181.765 107.78C181.501 107.765 181.237 107.736 180.988 107.707H180.973C180.973 107.707 180.929 107.707 180.9 107.707C180.738 107.692 180.577 107.663 180.372 107.648C180.24 107.633 180.122 107.619 180.034 107.604C179.946 107.604 179.858 107.575 179.756 107.56C179.55 107.531 179.374 107.501 179.198 107.472C179.169 107.472 179.139 107.472 179.11 107.457H179.066C178.978 107.443 178.905 107.428 178.817 107.413L178.435 101.003V100.901C178.421 100.563 178.391 100.241 178.377 99.9326L178.362 99.9179ZM222.263 96.603C221.339 95.0775 220.21 93.6694 218.934 92.3933C218.362 91.8212 217.745 91.2785 217.1 90.7798C218.45 88.785 219.858 86.8342 221.295 84.9273C221.339 84.8833 221.368 84.8393 221.398 84.7953C221.427 84.7513 221.456 84.722 221.486 84.678C225.197 88.3743 227.089 92.2026 227.089 96.0603C227.089 98.4218 226.37 100.813 224.947 103.145C224.39 100.813 223.495 98.6125 222.263 96.603ZM131.542 71.0075L140.533 71.4182L136.192 76.552C136.192 76.552 136.192 76.552 136.192 76.5373C136.162 76.4933 136.148 76.4493 136.118 76.42C134.74 74.5425 133.2 72.7236 131.542 71.0075ZM131.483 56.7797C131.615 55.4009 131.615 54.1101 131.483 52.9073C132.891 52.9513 134.3 53.01 135.708 53.0687C136.221 53.098 136.72 53.1127 137.189 53.142C137.336 53.142 137.497 53.1567 137.644 53.1714C138.964 53.2447 140.299 53.318 141.604 53.406C141.736 53.406 141.883 53.4207 142.015 53.4354C143.086 53.5087 144.171 53.5967 145.242 53.6701C146.782 53.7874 148.351 53.9341 149.936 54.0808C151.608 54.2421 153.309 54.4181 154.967 54.6088C154.263 55.2249 153.793 55.7382 153.573 55.9876C153.573 55.9876 153.573 56.0023 153.559 56.0169L151.27 58.7305C150.86 58.6865 150.449 58.6425 150.038 58.5985C149.217 58.5105 148.41 58.4371 147.647 58.3638C147.266 58.3198 146.87 58.2904 146.474 58.2611C142.015 57.8504 137.967 57.6011 133.346 57.425C133.141 57.425 132.95 57.425 132.745 57.4104C132.319 57.4104 131.879 57.381 131.454 57.3664C131.483 57.1757 131.498 56.9703 131.513 56.7797H131.483ZM130.926 60.1679C137.468 60.3586 142.734 60.696 149.056 61.3414L142.836 68.7193L128.814 68.0739H128.77C128.682 68.0739 128.594 68.0739 128.491 68.1033C128.403 68.0153 128.3 67.9419 128.212 67.8539C128.286 67.6926 128.374 67.5312 128.447 67.3699C128.52 67.2085 128.594 67.0618 128.652 66.9005C129.679 64.6123 130.442 62.3535 130.941 60.1826L130.926 60.1679ZM114.674 46.7175C116.815 46.6295 118.649 46.5561 120.262 46.5855C122.023 46.6295 123.343 46.7908 124.384 47.1282C125.308 47.4215 126.042 47.8322 126.643 48.4043C128.154 49.8564 128.887 52.2913 128.755 55.4449C128.623 58.5838 127.64 62.2361 125.91 66.0204C125.748 65.9031 125.587 65.7711 125.381 65.6244C125.337 65.5951 125.293 65.5657 125.264 65.5364L125.22 65.507C125.103 65.419 124.971 65.3164 124.839 65.2284C124.78 65.1844 124.721 65.1403 124.648 65.0963C124.501 64.9937 124.369 64.891 124.208 64.7883C124.193 64.7883 124.164 64.759 124.149 64.7443C124.12 64.7297 124.105 64.715 124.076 64.7003C123.915 64.583 123.739 64.4656 123.533 64.3336C123.475 64.2896 123.416 64.2603 123.372 64.2163L123.299 64.1723C123.181 64.0843 123.064 64.0109 122.961 63.9376C122.873 63.8789 122.785 63.8202 122.697 63.7616C122.595 63.6882 122.492 63.6296 122.375 63.5562C122.272 63.4829 122.155 63.4095 122.037 63.3362C121.876 63.2335 121.715 63.1308 121.583 63.0575C121.48 62.9988 121.377 62.9402 121.274 62.8815H121.245C121.157 62.8082 121.069 62.7642 120.981 62.7055C120.864 62.6321 120.732 62.5588 120.629 62.5001C120.57 62.4561 120.512 62.4268 120.438 62.3828L120.38 62.3535C119.94 62.1041 119.5 61.8547 119.045 61.6201H119.016C119.016 61.6201 118.898 61.532 118.825 61.5027C118.693 61.4294 118.546 61.356 118.414 61.2827C118.356 61.2534 118.297 61.224 118.224 61.18H118.194C118.048 61.092 117.916 61.0187 117.769 60.9453L118.488 58.0118C118.576 57.6891 118.517 57.3664 118.341 57.073C118.165 56.7943 117.901 56.589 117.578 56.5156C117.255 56.4276 116.933 56.4863 116.639 56.6623C116.361 56.8383 116.155 57.1023 116.082 57.425L115.481 59.8746C115.202 59.7572 114.967 59.6546 114.733 59.5519C113.75 59.1412 112.738 58.7451 111.711 58.3931C111.696 58.3931 111.667 58.3931 111.652 58.3785C110.802 58.0851 109.936 57.8064 109.056 57.5571C108.792 57.4837 108.513 57.3957 108.22 57.3224C107.853 57.2197 107.487 57.1317 107.12 57.0437C106.416 56.8677 105.697 56.721 104.993 56.5743C103.262 56.2223 101.502 55.9729 99.742 55.7969C99.6246 55.7969 99.5073 55.7676 99.3899 55.7676C97.7031 55.6209 96.0016 55.5622 94.3295 55.5769C95.7816 53.7287 97.1017 51.8072 98.2752 49.8124C103.6 48.0229 109.115 46.9962 114.674 46.7615V46.7175ZM5.33913 91.7186H5.36846C5.73516 89.8264 6.65924 87.5529 8.1407 84.942C8.18471 84.854 8.24338 84.766 8.28738 84.678C8.36072 84.5606 8.43406 84.4286 8.5074 84.2966C8.5074 84.2819 8.53674 84.2526 8.55141 84.2379C8.55141 84.2233 8.58074 84.1939 8.59541 84.1793C8.74209 83.9886 8.90344 83.7979 9.06478 83.6072L9.09412 83.5779C9.27013 83.3725 9.37281 83.1085 9.40215 82.8445C10.3849 81.2897 11.3383 79.9549 11.969 79.0602C16.3841 72.8263 20.5498 66.9445 27.7371 66.2258C28.1478 66.1818 28.5878 66.1671 29.0425 66.1671C30.4653 66.1671 32.7242 66.4018 35.3351 67.4285C38.3713 68.6313 41.1876 70.6408 43.6811 73.3984C43.7544 73.4864 43.8425 73.5597 43.9451 73.6331C44.0038 73.6771 44.0625 73.7064 44.1065 73.7357C44.2678 73.8091 44.4292 73.8531 44.5905 73.8677H44.6932C45.0452 73.8677 45.3826 73.7357 45.6319 73.501C45.9106 73.2517 46.072 72.8997 46.0866 72.533C46.1013 72.1516 45.9693 71.7996 45.72 71.5209C44.6785 70.3768 41.8183 67.4725 37.7699 65.4777C37.6086 65.3897 37.4472 65.3164 37.2859 65.243C36.7872 65.0083 36.2738 64.7883 35.7604 64.5976C35.2324 64.3923 34.675 64.2163 34.147 64.0696C33.9709 64.0256 33.8096 63.9816 33.6482 63.9376C33.6482 63.9376 33.6336 63.9376 33.6189 63.9376C33.6189 63.9376 33.5896 63.9376 33.5749 63.9376C31.5214 63.4242 29.4532 63.2629 27.4144 63.4682C25.5515 63.6589 23.7621 64.1429 22.0752 64.935C20.5498 65.6391 19.1123 66.5925 17.6895 67.8246C17.5722 67.7072 17.4548 67.6339 17.3375 67.5752C15.768 66.8272 7.89135 62.7348 7.17262 55.9876C6.71791 51.6899 9.34347 47.7736 12.9665 42.3611L13.1131 42.1411C14.5359 40.0143 16.1641 37.9754 17.9242 36.0833C18.1736 35.8192 18.4229 35.5552 18.6869 35.2765C18.775 35.1885 18.8336 35.1005 18.8923 35.0125C19.0683 34.7191 19.127 34.3671 19.0536 34.0444C18.9216 33.311 18.819 32.5483 18.7603 31.8002C18.731 31.5069 18.7163 31.1989 18.7163 30.8908C18.7163 30.5975 18.7163 30.2894 18.7163 29.9961C18.7163 29.7907 18.7163 29.5707 18.7456 29.3507C18.8336 27.7519 19.1123 26.1678 19.567 24.6423C20.0364 23.1022 20.6965 21.6354 21.5179 20.2566C23.9527 16.2376 27.6491 13.4067 31.9321 12.2626C35.0124 11.4412 37.9753 11.2652 40.7329 11.7199C40.8502 11.7346 40.9675 11.7639 41.0702 11.7786C41.2609 11.8226 41.4516 11.8519 41.6716 11.8959C41.7156 11.8959 41.7596 11.9106 41.8036 11.9253C42.009 11.9693 42.2143 12.0279 42.405 12.0719C42.7277 12.1599 43.0504 12.2626 43.3731 12.3653C45.0599 12.9373 46.6294 13.7734 47.9935 14.8588C49.3869 15.9589 50.6044 17.3084 51.5871 18.8778C51.7631 19.1565 52.0272 19.3619 52.3352 19.4645C52.6432 19.5672 52.9806 19.5526 53.2886 19.4499C53.9047 19.2152 54.2714 18.5698 54.1833 17.9097C54.1247 17.5137 54.066 17.1177 54.022 16.7363C53.934 15.8856 53.9047 15.0495 53.9487 14.2428C53.9633 13.9201 53.9927 13.5974 54.0367 13.2894C54.506 9.37304 56.5889 6.21944 60.0945 4.19527C62.8228 2.61114 66.5044 2.43513 70.2154 3.71123C70.9928 3.97526 71.7409 4.29795 72.4743 4.67931C76.4346 6.71815 79.5735 10.2678 81.3484 14.6681C81.5097 15.0788 81.8764 15.4015 82.3164 15.5042C82.3898 15.5189 82.4631 15.5336 82.5365 15.5482H82.6685C82.7565 15.5482 82.8592 15.5482 82.9472 15.5189C83.1965 15.4602 89.1517 14.2281 94.4908 15.7242C94.5935 15.7536 94.6962 15.7829 94.7989 15.8122C95.5469 16.0323 96.2657 16.311 96.911 16.6336C97.0137 16.6776 97.1017 16.7363 97.2044 16.7803C97.6004 16.9857 97.9818 17.2057 98.3338 17.4404C98.4512 17.5284 98.5685 17.6017 98.6712 17.6897C98.7445 17.7337 98.8032 17.7924 98.8765 17.8364C99.0379 17.9538 99.1846 18.0711 99.3166 18.2031C99.4339 18.3205 99.5513 18.4085 99.6539 18.5111C99.9326 18.7752 100.197 19.0392 100.431 19.3325C100.974 19.9779 101.443 20.7113 101.81 21.5181C101.326 23.1462 100.666 24.7156 99.874 26.1678C97.3217 30.8322 92.0853 36.8753 74.1757 42.1264C62.6027 45.5147 50.3257 47.2309 37.5792 47.2309C35.7751 47.2309 33.9563 47.1869 32.1374 47.1282C32.7535 46.3214 33.3549 45.9401 33.5309 45.8374C33.9416 45.5881 34.2056 45.1627 34.2203 44.6786C34.2203 44.5173 34.2203 44.3559 34.1616 44.2093C34.1323 44.1066 34.0883 44.0039 34.0296 43.9159C34.0296 43.8866 34.0003 43.8719 33.9856 43.8572C33.9269 43.7399 33.8536 43.6519 33.7803 43.5932C33.6482 43.4759 33.5016 43.3879 33.3402 43.3292C32.9442 43.1825 32.5041 43.2265 32.1374 43.4319C31.6094 43.7399 29.8199 44.928 28.7051 47.5389C28.6758 47.6122 28.6465 47.7002 28.6171 47.7589C28.6171 47.7882 28.6025 47.8029 28.5878 47.8322C28.5731 47.8762 28.5585 47.9056 28.5438 47.9349C28.5438 47.9349 28.5438 47.9643 28.5438 47.9789V48.0083C28.5438 48.0083 28.5145 48.0523 28.4998 48.0963V48.1256C27.6197 50.6045 28.0158 52.5553 28.1624 53.098C28.2211 53.3327 28.3384 53.5381 28.4998 53.7141C28.7638 53.9928 29.1452 54.1541 29.5119 54.1541C29.6292 54.1541 29.7612 54.1394 29.8786 54.1101C29.9226 54.1101 29.9666 54.0808 30.0106 54.0661C30.0546 54.0661 30.0986 54.0368 30.1279 54.0221C30.7293 53.7287 31.0374 53.0393 30.8613 52.394C30.832 52.2913 30.5973 51.3085 30.8907 49.9591C33.1789 50.0618 35.4377 50.1204 37.6086 50.1204C50.6044 50.1204 63.1895 48.3603 74.9971 44.8987C93.9041 39.3542 99.5513 32.739 102.368 27.5906C102.529 27.2972 102.69 26.9745 102.881 26.5931C102.969 31.4189 100.989 36.802 99.5513 40.733C94.4322 54.6088 83.6659 63.4389 75.5252 68.3966C75.2025 68.602 74.9825 68.8953 74.8945 69.262C74.8065 69.6287 74.8651 70.0101 75.0558 70.3328C75.1732 70.5235 75.3198 70.6701 75.5105 70.7875C75.5692 70.8315 75.6279 70.8608 75.7012 70.8902C75.7012 70.8902 75.7012 70.8902 75.7159 70.8902C75.7159 70.8902 75.7305 70.8902 75.7452 70.8902C75.9066 70.9635 76.0826 70.9928 76.2733 70.9928C76.5226 70.9928 76.7866 70.9195 77.0067 70.7875C79.5882 69.2034 82.0671 67.4725 84.37 65.6391C87.1275 63.4389 89.6798 61.048 91.9239 58.5398C92.3787 58.5105 92.848 58.4958 93.3174 58.4665C93.7868 58.4665 94.2561 58.4371 94.7109 58.4371C96.7057 58.4371 98.7152 58.5398 100.695 58.7745C103.336 59.0972 105.976 59.6252 108.513 60.3586C109.144 60.5493 109.789 60.74 110.42 60.96C110.86 61.1067 111.3 61.268 111.726 61.4147C112.371 61.6641 113.031 61.9134 113.662 62.1774C113.955 62.2948 114.249 62.4268 114.542 62.5588C118.488 64.3189 122.184 66.6071 125.528 69.35C125.558 69.3647 125.572 69.394 125.602 69.4087C125.631 69.4234 125.646 69.4527 125.675 69.4674C125.69 69.4674 125.704 69.4967 125.719 69.5114C125.968 69.7167 126.203 69.9221 126.452 70.1421C128.96 72.3276 131.263 74.7625 133.273 77.4027C133.493 77.6814 133.684 77.9307 133.845 78.1654C133.86 78.1948 133.889 78.2094 133.904 78.2388C133.933 78.2828 133.962 78.3121 133.992 78.3415C134.138 78.4881 134.314 78.5908 134.49 78.6641L118.781 97.2924C110.992 99.1258 102.984 100.079 94.9602 100.109H93.7134C93.3027 100.109 92.8774 100.109 92.4667 100.094C92.1293 100.094 91.7773 100.079 91.3812 100.065C90.4718 100.035 89.5477 99.9913 88.653 99.9326C88.565 99.9326 88.4916 99.9326 88.4036 99.9179C84.4873 99.6392 80.6003 99.0965 76.5519 98.2311C73.061 97.4977 70.0541 96.647 67.3992 95.9136C67.3405 95.9136 67.2818 95.8842 67.2085 95.8696C67.1498 95.8696 67.0911 95.8696 67.0471 95.8696H66.9298C64.9056 93.7867 62.4561 91.9386 59.6545 90.3985C55.5035 88.0956 50.663 86.4235 45.2652 85.426C45.1186 85.3967 44.9572 85.3674 44.7959 85.338C44.5465 85.294 44.2972 85.25 44.0478 85.206C43.7251 85.1474 43.3877 85.1033 43.0504 85.0447C42.757 85.0007 42.4637 84.9567 42.185 84.9273C42.0823 84.9273 41.9796 84.898 41.8623 84.8833C41.3636 84.8247 40.8649 84.766 40.3662 84.7073C39.1487 84.5753 37.8873 84.4726 36.6258 84.414C36.2885 84.3993 35.9511 84.3846 35.6284 84.3699C35.2177 84.3553 34.8217 84.3406 34.4403 84.3259C34.0883 84.3259 33.7509 84.3259 33.3989 84.3113H33.3549C33.0029 84.3113 32.6508 84.3113 32.2988 84.3113C29.5559 84.3113 26.7836 84.458 24.0554 84.7366C23.278 84.8247 22.7206 85.514 22.794 86.2768C22.838 86.7315 23.102 87.1422 23.5127 87.3622C23.7181 87.4795 23.9527 87.5382 24.2021 87.5382C24.2461 87.5382 24.3048 87.5382 24.3488 87.5382C24.7301 87.4942 25.1115 87.4649 25.4782 87.4355C25.8889 87.3915 26.2849 87.3622 26.6956 87.3329C26.8277 87.3329 26.9743 87.3182 27.121 87.3035C28.8372 87.1862 30.568 87.1275 32.2695 87.1275C32.7828 87.1275 33.2962 87.1275 33.7949 87.1275H33.8389C34.1763 87.1275 34.5136 87.1275 34.851 87.1568H34.9244C35.4524 87.1715 35.9804 87.2009 36.5085 87.2302C37.0512 87.2595 37.5939 87.2889 38.1366 87.3329H38.2246C38.5473 87.3622 38.8847 87.3915 39.2074 87.4209C39.2807 87.4209 39.3394 87.4209 39.4127 87.4355C40.4835 87.5382 41.5396 87.6702 42.581 87.8169C42.6984 87.8316 42.8157 87.8609 42.933 87.8609C43.2557 87.9049 43.5784 87.9636 43.8865 88.0223C45.5293 88.3009 47.1427 88.653 48.6829 89.049C49.3283 89.225 49.9737 89.401 50.5897 89.5917C50.8391 89.6651 51.0884 89.7531 51.3378 89.8264C52.0125 90.0464 52.6726 90.2811 53.3179 90.5158C53.538 90.6038 53.758 90.6771 53.9633 90.7651C54.286 90.8972 54.6087 91.0292 54.9021 91.1612C55.0488 91.2199 55.1954 91.2932 55.3421 91.3519C55.7968 91.5572 56.2369 91.7626 56.6769 91.9679C57.2489 92.2466 57.7917 92.54 58.3344 92.8333C61.7813 94.7401 66.3871 98.0991 68.8366 103.336C69.4527 104.656 70.9048 107.736 69.8194 109.159C69.526 109.555 68.9393 109.951 68.4846 109.951H68.4699C68.4699 109.951 68.4112 109.951 68.3819 109.951C67.8099 109.863 67.2085 108.704 66.4604 107.237C65.991 106.342 65.463 105.316 64.7589 104.157C63.8789 102.705 62.8668 101.297 61.7813 99.9766C61.62 99.7859 61.4586 99.5952 61.2973 99.4192C61.1213 99.2138 60.9306 98.9938 60.7399 98.7885C60.4612 98.4805 60.0652 98.3191 59.6398 98.3338C59.3905 98.3338 59.1558 98.4218 58.9358 98.5538C58.4077 98.8765 58.1584 99.5365 58.3344 100.138C58.3344 100.182 58.3637 100.226 58.3784 100.27C58.4957 100.593 58.6277 100.886 58.7451 101.179C58.8624 101.502 58.9944 101.795 59.1118 102.089L59.2438 102.426C59.9772 104.245 60.6226 105.844 61.2093 107.281L61.268 107.428C61.312 107.531 61.3413 107.619 61.3853 107.707L61.4733 107.897C62.2507 109.819 62.8668 111.33 62.5587 113.163C62.4414 113.852 62.2801 114.542 61.8253 114.85C61.3853 115.143 60.6519 115.07 60.1239 114.908C60.0652 114.894 60.0212 114.864 59.9772 114.864C58.9064 114.439 58.3784 113.163 57.469 110.757C57.337 110.405 57.2049 110.039 57.0583 109.672C55.9435 106.782 54.7114 103.834 53.3913 100.915C53.2739 100.637 53.0686 100.417 52.7899 100.27C52.7459 100.255 52.7166 100.226 52.6726 100.211H52.6432C52.6432 100.211 52.5552 100.167 52.4965 100.167C52.3499 100.123 52.2032 100.094 52.0565 100.109C51.9245 100.109 51.7925 100.138 51.6751 100.167C50.9857 100.387 50.575 101.077 50.7217 101.781C51.2791 104.7 51.4258 107.589 51.1618 110.391C51.0004 112.136 50.6484 114.336 49.9003 114.85C49.4896 115.129 48.9029 115.29 48.3455 115.29C48.2428 115.29 48.1402 115.29 48.0375 115.275C47.7295 115.231 47.4654 115.143 47.2894 114.996C46.8347 114.63 46.864 113.735 46.9521 112.151C47.0401 110.64 47.1574 108.763 46.6294 106.665C45.852 103.585 43.8571 100.783 40.6888 98.3338C40.6448 98.3044 40.6008 98.2751 40.5715 98.2458C40.5275 98.2164 40.4835 98.2018 40.4395 98.1724C40.4395 98.1724 40.4102 98.1724 40.3955 98.1578C40.3955 98.1578 40.3955 98.1578 40.3808 98.1578C40.3808 98.1578 40.3808 98.1578 40.3515 98.1578C40.3368 98.1578 40.3075 98.1431 40.2928 98.1284C40.1461 98.0698 39.9848 98.0404 39.8234 98.0404C39.7354 98.0404 39.6474 98.0404 39.5448 98.0698C33.2229 99.3019 26.8863 99.8152 20.7258 99.5805H20.6084C20.1684 99.5659 19.7137 99.5365 19.2737 99.5072C18.0122 99.4339 16.7508 99.3312 15.504 99.1992C14.6973 99.1112 13.4798 98.9792 12.2184 98.7738C12.1304 98.7738 12.057 98.7445 11.969 98.7298C11.925 98.7298 11.8957 98.7298 11.8517 98.7151C11.6317 98.6711 11.4263 98.6271 11.221 98.5978H11.1476C10.9863 98.5538 10.8249 98.5098 10.6636 98.4805H10.6196C10.2529 98.3924 9.91552 98.3044 9.59283 98.2164C9.57816 98.2164 9.54883 98.2164 9.53416 98.2018C9.2408 98.1138 8.96211 98.0404 8.71275 97.9524C8.49273 97.8791 8.28738 97.8057 8.0967 97.7177H8.0527C7.84734 97.6151 7.67133 97.5417 7.49531 97.4537C7.06994 97.2484 6.70325 97.0137 6.42456 96.7643C6.35122 96.7056 6.27788 96.6323 6.2192 96.5736C6.10186 96.4563 5.99919 96.3243 5.92585 96.1923C5.64715 95.7376 5.4418 95.2095 5.32446 94.6228C5.28046 94.4468 5.26579 94.2561 5.25112 94.0654C5.23645 93.8161 5.22178 93.5814 5.22178 93.332C5.22178 92.8627 5.29512 92.3493 5.38313 91.8066L5.33913 91.7186ZM19.6697 102.265C19.4643 102.866 19.303 103.482 19.2003 104.084C19.1123 104.612 19.0683 105.14 19.0683 105.668C18.0856 104.48 17.2642 103.277 16.6481 102.059C17.5575 102.147 18.5256 102.206 19.5084 102.265H19.6697ZM6.01385 99.8006C6.35122 99.9766 6.71791 100.138 7.12862 100.285C7.24596 100.329 7.37797 100.373 7.49531 100.417C7.80334 100.534 8.1407 100.637 8.49273 100.739C8.63941 100.783 8.78609 100.827 8.93277 100.857C9.09412 100.901 9.2408 100.945 9.40215 100.974C10.5462 101.253 11.8664 101.487 13.4065 101.693C13.5532 102.059 13.7145 102.441 13.8905 102.822C13.9492 102.939 14.0079 103.072 14.0812 103.189C14.1399 103.306 14.1986 103.424 14.2572 103.526C14.3599 103.732 14.4773 103.937 14.5946 104.128C14.8293 104.538 15.0933 104.949 15.372 105.374C15.5187 105.594 15.68 105.829 15.8414 106.049C18.5403 109.775 22.75 113.31 28.3678 116.566C34.0149 119.852 40.9822 122.785 49.0936 125.323C50.5897 125.792 52.1445 126.247 53.7286 126.687L54.022 126.775C54.5354 126.921 55.0781 127.054 55.6208 127.215C55.7528 127.259 55.8848 127.288 56.0315 127.318C56.5302 127.45 57.0436 127.582 57.5716 127.714C57.733 127.758 57.8943 127.802 58.0557 127.831C58.6717 127.992 59.2291 128.124 59.7865 128.256C61.312 128.623 62.9108 128.99 64.5389 129.342C64.7883 129.4 65.0376 129.444 65.2723 129.503C82.1111 133.053 101.414 134.93 121.113 134.93C149.95 134.93 177.086 130.999 197.518 123.885C218.406 116.595 229.92 106.724 229.92 96.0749C229.92 91.3665 227.69 86.7755 223.275 82.4778L227.118 77.8427C234.467 83.6072 238.207 89.7531 238.207 96.0749C238.207 101.693 235.23 107.193 229.363 112.444C223.525 117.651 215.135 122.345 204.412 126.393C196.11 129.518 186.723 132.158 176.485 134.226C176.382 134.226 176.265 134.255 176.133 134.299C167.772 135.972 158.854 137.262 149.657 138.113C140.387 138.978 130.779 139.419 121.113 139.419C108.367 139.419 95.8403 138.656 83.9006 137.174C83.8272 137.16 83.7392 137.145 83.6659 137.145C75.1292 136.074 66.9151 134.622 59.2438 132.833C51.5285 131.029 44.3118 128.872 37.8139 126.423C37.7113 126.379 37.6086 126.335 37.5059 126.305C37.4472 126.291 37.4032 126.261 37.3446 126.247C36.9779 126.115 36.6258 125.968 36.2591 125.836C35.9804 125.733 35.7018 125.616 35.4524 125.513C35.0417 125.352 34.6457 125.191 34.2496 125.029C33.7216 124.809 33.2082 124.589 32.7095 124.384C32.4601 124.281 32.1961 124.164 31.9321 124.047C23.9967 120.585 17.5722 116.683 12.8638 112.488C10.9716 110.801 9.35814 109.056 8.06736 107.311C6.77659 105.565 5.79383 103.776 5.11911 101.986C5.06044 101.839 5.01643 101.707 4.95776 101.561C4.75241 100.989 4.59106 100.402 4.45905 99.8299C4.38571 99.5512 4.32704 99.2579 4.28304 98.9645C4.2537 98.8178 4.23903 98.6858 4.2097 98.5391C4.69374 99.0378 5.28046 99.4779 6.01385 99.8446V99.8006ZM232.003 153.074L230.345 151.945C229.935 151.666 229.495 151.417 229.054 151.197C229.054 151.197 229.04 151.197 229.025 151.197C229.025 151.197 229.01 151.197 228.996 151.197C228.746 151.08 228.468 150.962 228.218 150.874C228.13 150.845 228.042 150.815 227.954 150.786C227.852 150.757 227.749 150.713 227.632 150.683C227.485 150.639 227.338 150.595 227.177 150.566C226.796 150.478 226.414 150.405 226.033 150.361C225.989 150.361 225.945 150.361 225.901 150.361C225.637 150.331 225.358 150.317 225.094 150.317H224.947C223.701 150.317 222.469 150.566 221.31 151.035L215.78 153.309C214.988 153.632 214.108 153.808 213.242 153.808C213.125 153.808 212.993 153.808 212.876 153.808L209.839 153.646C206.363 153.47 203.063 155.201 201.229 158.149C199.44 161.054 199.323 164.721 200.951 167.728L204.456 174.225C204.911 175.076 205.498 175.854 206.202 176.528C206.304 176.631 206.422 176.734 206.554 176.851C207.375 177.57 208.299 178.142 209.297 178.552L216.748 181.545C213.125 186.517 209.077 191.255 204.72 195.597C193.866 206.451 181.208 214.987 167.126 220.943C152.547 227.118 137.057 230.242 121.098 230.242C119.514 230.242 117.901 230.213 116.317 230.154C112.84 230.022 109.335 229.729 105.902 229.289C105.257 229.201 104.582 229.113 103.908 229.01C102.544 228.805 101.165 228.585 99.8006 228.335C95.5762 227.573 91.3519 226.56 87.2595 225.328C83.1525 224.096 79.0455 222.629 75.0705 220.943C71.0075 219.227 67.0031 217.261 63.1601 215.09C62.2801 214.606 61.4 214.093 60.5492 213.579C59.9772 213.242 59.3905 212.89 58.8331 212.523C56.2809 210.939 53.7433 209.238 51.3231 207.448C46.4534 203.884 41.8036 199.894 37.4912 195.582C26.9743 185.065 18.6429 172.861 12.7171 159.308C12.5264 158.868 12.3357 158.428 12.1451 157.988C11.1916 155.715 10.2822 153.397 9.47549 151.08C9.2848 150.551 9.10879 150.009 8.8741 149.334C8.58074 148.454 8.31672 147.662 8.08203 146.884C7.75934 145.828 7.43664 144.772 7.14328 143.716C6.93793 143.012 6.74725 142.293 6.57123 141.589C6.40989 140.973 6.24854 140.343 6.08719 139.653C6.04319 139.492 6.01385 139.345 5.96985 139.199C5.74983 138.289 5.54448 137.365 5.3538 136.456C5.32446 136.309 5.29512 136.162 5.26579 136.016C4.45905 132.114 3.843 128.095 3.4323 124.12C3.02159 120.13 2.83091 116.038 2.83091 111.99C2.83091 110.024 2.93359 107.457 3.13894 104.568C4.97243 108.455 8.06736 112.224 12.3504 115.774C16.6628 119.338 22.1779 122.682 28.7492 125.704L21.0338 137.072C20.0657 138.494 20.0657 140.284 21.0338 141.751L28.2358 152.752C28.3971 153.001 28.4851 153.265 28.4851 153.514L28.9105 167.449C28.9398 168.52 29.3945 169.561 30.2013 170.382L34.4403 174.724C34.4403 174.724 34.5137 174.812 34.5577 174.841C34.763 175.091 34.8803 175.355 34.9244 175.634L37.0365 191.123C37.2125 192.399 37.9753 193.558 39.134 194.335C40.0288 194.922 41.0702 195.23 42.141 195.23C42.8157 195.23 43.4758 195.112 44.1065 194.863C44.1945 194.819 44.2825 194.79 44.3705 194.746C45.0159 194.452 45.5586 194.056 45.9986 193.558C46.4387 193.059 46.7467 192.472 46.9081 191.827L50.179 179.095C50.2377 178.86 50.2817 178.626 50.2963 178.376L50.8244 171.395C50.8244 171.204 50.8977 171.028 50.9857 170.866C51.0737 170.705 51.2058 170.544 51.3524 170.426C51.4258 170.368 51.5138 170.309 51.6018 170.25C51.7338 170.162 51.8805 170.104 52.0418 170.045C52.2032 169.986 52.3792 169.957 52.5699 169.928C52.8046 169.898 53.0246 169.81 53.2153 169.678L59.0238 165.615C59.2291 165.571 59.4491 165.527 59.6545 165.454C60.0652 165.322 60.4466 165.146 60.7986 164.926C61.6933 164.369 62.3534 163.562 62.6761 162.623L65.199 157.665C65.199 157.665 65.2723 157.519 65.287 157.445C65.8884 155.524 65.023 153.47 63.1455 152.341L54.4914 147.178C54.4914 147.178 54.3594 147.09 54.2714 147.031C54.2127 146.987 54.154 146.943 54.11 146.899C54.11 146.899 54.11 146.899 54.0953 146.899C53.9487 146.767 53.8313 146.62 53.7433 146.444C53.6993 146.371 53.67 146.312 53.6553 146.239L49.8563 136.382C49.6363 135.825 49.3136 135.312 48.8882 134.871L46.424 132.29C47.6121 132.657 48.8589 133.023 50.1203 133.375C50.443 133.463 50.7657 133.551 51.0591 133.639C52.4965 134.035 53.978 134.417 55.4448 134.798C55.8115 134.886 56.1782 134.989 56.5596 135.077C56.8969 135.165 57.2636 135.253 57.6303 135.341C58.393 135.517 59.1704 135.708 59.9478 135.884C60.2852 135.957 60.6226 136.045 60.9599 136.118C63.5708 136.69 66.2844 137.248 68.998 137.746C73.5304 138.582 78.2534 139.316 83.0205 139.917L97.5858 152.796C98.0991 153.25 98.7299 153.544 99.4193 153.646L116.067 156.199C116.067 156.199 116.126 156.199 116.155 156.213C116.155 156.213 116.199 156.213 116.229 156.243C116.273 156.257 116.317 156.287 116.361 156.316L122.859 161.259C122.859 161.259 122.888 161.288 122.903 161.288C122.903 161.288 122.947 161.332 122.976 161.362C123.181 161.596 123.211 161.919 123.079 162.183L118.561 171.204C118.561 171.204 118.502 171.336 118.473 171.409C118.268 171.893 118.165 172.436 118.194 172.979C118.224 173.507 118.37 174.049 118.62 174.519L120.394 177.79L122.815 186.532L126.672 198.134C126.716 198.237 126.746 198.339 126.79 198.442L129.811 205.321C130.046 205.849 130.398 206.319 130.853 206.671L130.97 206.759C131.601 207.258 132.393 207.536 133.2 207.536C133.83 207.536 134.461 207.375 135.004 207.052L147.867 204.749C148.234 204.676 148.557 204.485 148.762 204.177L158.912 189.92C159.191 189.685 159.44 189.421 159.631 189.113L164.472 181.765C165.073 180.87 165.22 179.755 164.897 178.714L163.342 173.771C163.269 173.551 163.298 173.316 163.43 173.125L167.214 167.434C167.61 166.847 167.816 166.158 167.816 165.454V156.316C167.816 156.228 167.83 156.14 167.86 156.052L170.925 147.867C170.925 147.867 170.969 147.779 170.984 147.75L177.409 136.881C187.647 134.798 197.049 132.158 205.366 129.019C214.225 125.675 221.618 121.846 227.338 117.651C233.015 113.486 236.975 109.012 239.117 104.333V104.421C239.249 106.914 239.322 109.437 239.337 111.931C239.337 126.1 236.858 139.947 231.988 153.074H232.003Z" fill="#010101"/>
<path d="M426.551 58.6116H421.336V34.1537H394.34V58.6116H389.124V6.4534H394.34V29.4312H421.336V6.4534H426.551V58.6116Z" fill="#010101"/>
<path d="M481.925 13.4313C487.376 18.6941 490.102 25.0612 490.102 32.5325C490.102 40.0038 487.376 46.3709 481.925 51.6337C476.475 56.8965 469.99 59.5279 462.472 59.5279C455.094 59.5279 448.657 56.92 443.159 51.7042C437.661 46.4414 434.912 40.1448 434.912 32.8145C434.912 25.2492 437.591 18.8116 442.947 13.5018C448.351 8.19201 454.859 5.53711 462.472 5.53711C469.99 5.53711 476.475 8.16852 481.925 13.4313ZM478.26 48.321C482.677 43.9509 484.886 38.7116 484.886 32.603C484.886 26.4944 482.677 21.2551 478.26 16.885C473.89 12.468 468.627 10.2595 462.472 10.2595C456.269 10.2595 450.983 12.468 446.613 16.885C442.289 21.3021 440.128 26.6119 440.128 32.8145C440.128 38.8291 442.336 43.9979 446.754 48.321C451.218 52.644 456.457 54.8055 462.472 54.8055C468.58 54.8055 473.843 52.644 478.26 48.321Z" fill="#010101"/>
<path d="M526.411 9.48422C530.734 12.4446 532.896 16.6266 532.896 22.0304C532.896 27.4342 530.734 31.6162 526.411 34.5766C523.451 36.5971 518.963 37.6074 512.949 37.6074H503.645V58.6116H498.429V6.4534H512.949C518.963 6.4534 523.451 7.46367 526.411 9.48422ZM521.618 31.5457C525.659 29.6192 527.68 26.4474 527.68 22.0304C527.68 17.6134 525.659 14.4416 521.618 12.515C519.739 11.6222 516.755 11.1758 512.667 11.1758H503.645V32.8849H512.667C516.755 32.8849 519.739 32.4385 521.618 31.5457Z" fill="#010101"/>
<path d="M457.24 129.098H451.53L443.989 111.547H419.742L412.129 129.098H406.702L428.975 76.9395H434.826L457.24 129.098ZM441.945 106.825L431.936 82.8601L421.715 106.825H441.945Z" fill="#010101"/>
<path d="M498.349 93.7851C498.349 98.1552 496.869 101.82 493.908 104.781C490.948 107.741 487.259 109.362 482.842 109.644L497.573 129.098H491.018L473.327 105.486C479.153 105.486 482.889 105.227 484.534 104.71C487.118 103.911 489.186 102.549 490.736 100.622C492.334 98.6486 493.133 96.3226 493.133 93.6442C493.133 91.6236 492.616 89.6971 491.582 87.8645C490.548 85.9849 489.162 84.5752 487.424 83.6354C484.98 82.3197 481.597 81.6619 477.274 81.6619H468.181V129.098H462.965V76.9395H476.217C482.043 76.9395 486.319 77.5973 489.045 78.913C491.958 80.3227 494.237 82.3432 495.882 84.9746C497.526 87.606 498.349 90.5429 498.349 93.7851Z" fill="#010101"/>
<path d="M530.792 81.6619H518.88V129.098H513.664V81.6619H501.681V76.9395H530.792V81.6619Z" fill="#010101"/>
<path d="M351.219 196.377H346.004V171.919H319.008V196.377H313.792V144.219H319.008V167.197H346.004V144.219H351.219V196.377Z" fill="#010101"/>
<path d="M406.593 151.197C412.044 156.46 414.77 162.827 414.77 170.298C414.77 177.769 412.044 184.137 406.593 189.399C401.143 194.662 394.658 197.294 387.14 197.294C379.762 197.294 373.325 194.686 367.827 189.47C362.329 184.207 359.58 177.91 359.58 170.58C359.58 163.015 362.258 156.577 367.615 151.267C373.019 145.958 379.527 143.303 387.14 143.303C394.658 143.303 401.143 145.934 406.593 151.197ZM402.928 186.087C407.345 181.717 409.554 176.477 409.554 170.369C409.554 164.26 407.345 159.021 402.928 154.651C398.558 150.234 393.295 148.025 387.14 148.025C380.937 148.025 375.651 150.234 371.281 154.651C366.957 159.068 364.796 164.377 364.796 170.58C364.796 176.595 367.004 181.764 371.421 186.087C375.886 190.41 381.125 192.571 387.14 192.571C393.248 192.571 398.511 190.41 402.928 186.087Z" fill="#010101"/>
<path d="M458.621 176.712C458.621 181.129 457.963 184.747 456.647 187.567C455.191 190.715 453.076 193.135 450.304 194.827C447.531 196.471 444.383 197.294 440.859 197.294C437.335 197.294 434.186 196.471 431.414 194.827C428.641 193.135 426.527 190.715 425.07 187.567C423.755 184.747 423.097 181.129 423.097 176.712V144.219H428.313V176.712C428.313 180.894 428.9 184.043 430.075 186.157C432.424 190.433 436.019 192.571 440.859 192.571C445.699 192.571 449.293 190.433 451.643 186.157C452.818 184.043 453.405 180.894 453.405 176.712V144.219H458.621V176.712Z" fill="#010101"/>
<path d="M497.336 181.999C497.336 186.322 495.786 189.963 492.684 192.924C489.63 195.837 485.941 197.294 481.618 197.294C476.966 197.294 473.137 195.884 470.129 193.065C467.122 190.198 465.595 186.439 465.548 181.787H470.764C470.905 185.029 471.938 187.637 473.865 189.611C475.792 191.584 478.376 192.571 481.618 192.571C484.532 192.571 486.999 191.584 489.019 189.611C491.087 187.59 492.12 185.123 492.12 182.21C492.12 179.062 491.087 176.689 489.019 175.091C486.952 173.493 484.109 172.154 480.491 171.073C478.329 170.416 476.543 169.805 475.134 169.241C473.771 168.63 472.385 167.831 470.975 166.844C469.612 165.811 468.602 164.518 467.944 162.968C467.286 161.37 466.957 159.491 466.957 157.329C466.957 153.288 468.367 149.952 471.187 147.32C474.053 144.642 477.53 143.303 481.618 143.303C485.659 143.303 489.066 144.665 491.839 147.391C494.658 150.069 496.068 153.429 496.068 157.47H490.852C490.852 154.933 489.935 152.724 488.103 150.845C486.317 148.965 484.156 148.025 481.618 148.025C478.987 148.025 476.755 148.894 474.922 150.633C473.09 152.325 472.173 154.486 472.173 157.118C472.173 158.104 472.291 158.997 472.526 159.796C472.761 160.548 473.16 161.229 473.724 161.84C474.335 162.451 474.852 162.968 475.275 163.391C475.745 163.767 476.496 164.166 477.53 164.589C478.564 165.012 479.292 165.317 479.715 165.505C480.185 165.646 481.031 165.905 482.253 166.281C483.521 166.609 484.297 166.821 484.579 166.915C493.084 169.499 497.336 174.527 497.336 181.999Z" fill="#010101"/>
<path d="M532.582 196.377H504.036V144.219H532.582V148.941H509.252V167.69H531.807V172.413H509.252V191.655H532.582V196.377Z" fill="#010101"/>
</svg>
