<svg width="290" height="120" viewBox="0 0 290 120" fill="none" xmlns="http://www.w3.org/2000/svg">
<path d="M39.5676 55.444C40.7407 55.8426 41.9439 56.1509 43.1395 56.3614C44.4705 56.5945 45.7865 56.7149 47.0649 56.7149C47.7342 56.7149 48.3884 56.6848 49.0351 56.6171C49.4337 56.5795 49.7194 56.2261 49.6818 55.8275C49.6442 55.429 49.2908 55.1432 48.8922 55.1808C47.1326 55.3538 45.2827 55.271 43.3877 54.9402C42.2597 54.7371 41.1317 54.4514 40.0263 54.0754C39.6503 53.9475 39.2442 54.1506 39.1164 54.5266C38.9886 54.9026 39.1916 55.3086 39.5676 55.4365V55.444Z" fill="#010101"/>
<path d="M64.3703 63.3782C65.8893 63.6414 67.4309 63.7767 68.965 63.7767C69.1229 63.7767 69.2808 63.7767 69.4387 63.7767C70.8148 63.7542 72.1985 63.6188 73.5521 63.3782C73.9431 63.3105 74.2063 62.942 74.1311 62.5435C74.0634 62.1524 73.695 61.8892 73.2964 61.9569C72.0105 62.1825 70.702 62.3103 69.4011 62.3329C67.7994 62.363 66.1901 62.2351 64.611 61.9569C64.2199 61.8892 63.8439 62.1524 63.7762 62.5435C63.7086 62.9345 63.9718 63.3105 64.3553 63.3782H64.3703Z" fill="#010101"/>
<path d="M15.0016 14.8967C15.0693 14.9794 15.1445 15.0621 15.2197 15.1448C15.2949 15.2275 15.3701 15.3027 15.4453 15.3779C15.528 15.4607 15.6107 15.5434 15.7009 15.6186C15.8062 15.7088 15.9115 15.7991 16.0243 15.8893C16.092 15.9419 16.1672 15.9946 16.2424 16.0547C16.5657 16.2879 16.9116 16.4909 17.2651 16.6488C17.3403 16.6864 17.4079 16.7165 17.4831 16.7466C17.5283 16.7691 17.5734 16.7842 17.6185 16.7992C17.6862 16.8293 17.7614 16.8518 17.8291 16.8819C17.8291 16.8819 17.8441 16.8819 17.8516 16.8894C17.9569 16.927 18.0622 16.9571 18.1674 16.9872C18.205 16.9947 18.2426 17.0098 18.2802 17.0173C18.6337 17.1075 18.9946 17.1602 19.3556 17.1827C19.4383 17.1827 19.521 17.1827 19.6037 17.1827C20.7468 17.1827 21.792 16.7992 22.4989 16.1074C23.093 15.5208 23.4539 14.7162 23.5818 13.7988C23.5818 13.7537 23.5968 13.701 23.5968 13.6559C23.6194 13.4604 23.6269 13.2573 23.6194 13.0543C23.6194 12.6482 23.5667 12.2271 23.469 11.7985C23.469 11.7759 23.4539 11.7458 23.4464 11.7158C23.4238 11.633 23.4013 11.5503 23.3787 11.4601C23.3787 11.445 23.3712 11.43 23.3637 11.415C23.3562 11.3774 23.3411 11.3473 23.3261 11.3172C23.2659 11.1894 23.1757 11.0841 23.0554 11.0089C22.8899 10.9036 22.6794 10.866 22.4763 10.9262C22.0928 11.039 21.8747 11.4375 21.9875 11.821C22.3711 13.1295 22.1755 14.4154 21.4912 15.0922C21.025 15.5509 20.2655 15.7991 19.4233 15.7539C18.7766 15.7239 18.1298 15.5283 17.5358 15.1975C17.5207 15.1899 17.5057 15.1824 17.4907 15.1749C17.1147 14.9568 16.7612 14.6936 16.4304 14.3703C16.3476 14.2876 16.2574 14.1973 16.1822 14.0996C16.1822 14.092 16.1672 14.0845 16.1596 14.077C16.1371 14.0469 16.1145 14.0244 16.0844 13.9943C16.0694 13.9717 16.0544 13.9567 16.0393 13.9416C15.7761 13.686 15.3625 13.6634 15.0768 13.8965C14.7835 14.1372 14.7384 14.5658 14.9489 14.8666C14.9565 14.8816 14.9715 14.8967 14.979 14.9117L15.0016 14.8967Z" fill="#010101"/>
<path d="M32.9364 10.775C32.9966 10.8126 33.0492 10.8352 33.1019 10.8653C33.1696 10.8954 33.2372 10.9254 33.2974 10.948C33.4327 11.0006 33.5681 11.0533 33.7035 11.0984C33.7862 11.1285 33.8764 11.151 33.9591 11.1736C34.2825 11.2563 34.6134 11.309 34.9442 11.324C34.9969 11.324 35.057 11.324 35.1097 11.324H35.1247C36.1098 11.324 36.9596 10.9781 37.5461 10.3389C38.4635 9.33874 38.6816 7.58661 38.1252 5.76679C38.0876 5.64647 38.0274 5.54872 37.9447 5.466C37.9221 5.44344 37.892 5.42088 37.862 5.39832C37.689 5.27048 37.4559 5.22536 37.2378 5.29304C36.8618 5.40584 36.6437 5.81191 36.7565 6.18791C37.1551 7.48133 37.0423 8.75971 36.4858 9.36882C36.1549 9.72977 35.6361 9.91025 35.0044 9.88769C34.4855 9.86513 33.9516 9.6997 33.4403 9.41394C33.35 9.3613 33.2598 9.30866 33.1696 9.2485C33.1019 9.20338 33.0417 9.16578 32.974 9.11314C32.9289 9.08306 32.8838 9.04546 32.8387 9.00787C32.7484 8.94019 32.6582 8.86499 32.568 8.78979C32.5228 8.75219 32.4852 8.70707 32.4401 8.66947C32.4401 8.66947 32.4401 8.66947 32.4251 8.66195C32.207 8.45891 32.004 8.2258 31.8085 7.97764C31.7333 7.87988 31.6355 7.80468 31.5302 7.75956C31.2971 7.65429 31.0189 7.67684 30.8008 7.84228C30.485 8.08292 30.4248 8.53411 30.673 8.84995C31.3197 9.69218 32.0942 10.3464 32.9289 10.7675L32.9364 10.775Z" fill="#010101"/>
<path d="M37.7056 14.8064C37.6604 14.7839 37.6078 14.7613 37.5627 14.7387C37.5476 14.7387 37.5326 14.7312 37.5176 14.7237C37.4724 14.7087 37.4349 14.6936 37.3897 14.6786C36.6377 14.453 35.8933 14.6786 35.6 15.2802C35.4195 15.6562 35.4571 16.0923 35.6902 16.4909C35.7579 16.6037 35.8406 16.7165 35.9384 16.8142C35.9685 16.8443 36.0061 16.8819 36.0437 16.912C36.1114 16.9722 36.1866 17.0323 36.2693 17.0849C36.3144 17.1075 36.352 17.1376 36.3971 17.1601C36.4422 17.1827 36.4798 17.2053 36.5249 17.2278C36.5625 17.2504 36.6001 17.2654 36.6377 17.2805C36.6678 17.2955 36.6979 17.303 36.7355 17.3181C36.7806 17.3331 36.8182 17.3481 36.8633 17.3632C37.0513 17.4158 37.2318 17.4459 37.4048 17.4459C37.9462 17.4459 38.4124 17.1977 38.6305 16.7541C38.811 16.3781 38.7734 15.9419 38.5403 15.5434C38.3523 15.2351 38.059 14.9794 37.7056 14.8064Z" fill="#010101"/>
<path d="M41.6905 14.882C41.9386 15.0023 42.2018 15.0624 42.4425 15.0624C42.9162 15.0624 43.3373 14.8444 43.5253 14.4458C43.8186 13.8442 43.4652 13.0847 42.7207 12.7313C42.6606 12.7012 42.5929 12.6711 42.5327 12.6486C42.5327 12.6486 42.5177 12.6486 42.5102 12.6486C41.8334 12.4154 41.1415 12.626 40.8783 13.1749C40.5851 13.7765 40.9385 14.536 41.683 14.8895L41.6905 14.882Z" fill="#010101"/>
<path d="M90.1185 91.1186C90.0433 91.1035 89.9681 91.1035 89.8929 91.1035C89.8102 91.1035 89.72 91.111 89.6297 91.1261C88.9304 91.2314 88.3589 91.6825 88.1032 92.3443L86.7271 95.8561C86.7045 95.9162 86.6744 95.9614 86.6293 96.014L84.1778 98.7437C83.7191 99.2476 83.5687 99.9469 83.7567 100.594C83.862 100.947 84.065 101.263 84.3282 101.496C84.3583 101.519 84.3884 101.541 84.411 101.564C84.5238 101.654 84.6516 101.737 84.7869 101.797C84.8922 101.842 84.9975 101.887 85.1103 101.917L85.554 102.037C85.6442 102.06 85.7345 102.083 85.8247 102.09C85.8548 102.09 85.8849 102.09 85.9149 102.098C85.9676 102.098 86.0202 102.098 86.0653 102.098C86.5316 102.098 86.9827 101.932 87.3437 101.616L90.111 99.1949C90.4193 98.9242 90.6299 98.5708 90.7276 98.1647L91.8105 93.4798C91.9459 92.9008 91.8105 92.2992 91.442 91.8329C91.1112 91.4118 90.6299 91.1486 90.111 91.1035L90.1185 91.1186Z" fill="#010101"/>
<path d="M123.552 48.1726C123.537 48.0823 123.506 47.9921 123.469 47.9169C123.356 47.1198 123.145 46.3151 122.837 45.5406C122.529 44.766 122.115 43.984 121.611 43.2245C120.596 41.7054 119.175 40.224 117.385 38.8103C117.791 38.3591 118.167 37.953 118.536 37.562C118.543 37.5545 118.551 37.5394 118.558 37.5319C119.243 36.7273 119.468 35.5993 119.13 34.5916L119.002 34.1931C119.002 34.1931 118.979 34.148 118.972 34.1179C118.461 33.0049 117.716 32.3281 116.866 32.2078C115.671 32.0424 114.768 33.02 114.046 33.8096C113.377 34.539 112.723 35.306 112.084 36.1106C112.272 35.5241 112.52 34.9751 112.828 34.4638C113.264 33.7344 113.746 33.2005 114.174 32.7342C114.866 31.9747 115.528 31.2528 115.483 30.1023C115.423 28.5231 114.031 26.9514 112.618 26.8762H112.512C111.414 26.8762 110.632 27.8538 109.241 29.5834V29.5984C108.64 30.3429 108.076 31.1325 107.579 31.9521C107.602 31.5987 107.624 31.2378 107.647 30.8843C107.707 29.8541 107.745 28.8088 107.76 27.7711C107.76 27.7109 107.76 27.6508 107.767 27.5906C107.79 26.5077 107.143 25.5527 106.12 25.1466C105.068 24.7331 103.91 25.0038 103.158 25.831C102.879 26.1468 102.624 26.4777 102.413 26.8311C101.556 28.2749 101.511 29.6811 101.488 30.4407V30.4557C101.488 30.6512 101.473 30.8467 101.466 31.0347C97.9689 29.9218 94.1338 28.9517 90.0806 28.1621H90.0656C89.3812 27.4929 88.6067 26.9665 87.772 26.5829C86.9072 26.1919 86.0048 25.9663 85.0723 25.9212C83.7714 25.8535 82.493 26.1393 81.2598 26.7709C76.417 26.1618 71.9201 25.8159 67.0998 25.673C66.8442 24.906 66.4531 24.2668 65.9343 23.778C64.3701 22.2816 62.1292 22.3718 58.7302 22.5147C56.2487 22.62 53.7671 23.0185 51.3683 23.7028C51.7518 22.9132 52.0977 22.1161 52.3835 21.3265C53.6693 17.8298 55.617 12.5508 52.594 8.96384C51.9473 8.19681 51.1276 7.58018 50.15 7.12899C49.3229 6.753 48.3829 6.4898 47.3376 6.34692C45.4576 6.09124 43.698 6.28676 42.8107 6.42212C42.4948 5.72277 42.1038 5.06102 41.6676 4.44439C41.2315 3.83528 40.7352 3.27129 40.1937 2.76745C39.6523 2.26362 39.0658 1.81995 38.4416 1.44395C37.8175 1.06796 37.1482 0.752122 36.4639 0.511485C34.1628 -0.278103 31.8392 -0.150265 30.0795 0.87244C28.9139 1.54923 27.9965 2.42906 27.3347 3.49688C26.6805 4.55719 26.312 5.76037 26.2218 7.08387C25.154 6.04612 23.8831 5.30166 22.4468 4.8655C20.4766 4.27143 18.2507 4.27143 16.0098 4.8655C13.4531 5.54229 11.2497 7.22675 9.80592 9.61055C9.11409 10.7536 8.6253 12.0019 8.36962 13.3179C8.11395 14.6338 8.08387 15.9724 8.29442 17.3109C7.27924 18.3787 6.34678 19.5443 5.52711 20.7626L5.45191 20.8753C3.49674 23.7931 1.95517 26.0866 2.24844 28.8164C2.44396 30.6662 3.4441 32.3808 5.21879 33.9148C6.30166 34.8548 7.42212 35.479 7.99363 35.7723C6.88069 36.9604 5.89558 38.3441 4.94056 39.6901C4.45177 40.3819 3.7825 41.3295 3.12827 42.4198C1.63181 44.375 0.789587 46.4279 0.63167 48.5034C0.330875 50.9925 0 54.8277 0 57.3769C0 65.7541 1.63933 73.8831 4.8804 81.5383C8.00867 88.9304 12.483 95.5704 18.1831 101.271C23.8831 106.971 30.5232 111.445 37.9152 114.573C45.5704 117.807 53.6994 119.454 62.0766 119.454C70.4537 119.454 78.5827 117.814 86.2379 114.573C93.63 111.445 100.27 106.971 105.97 101.271C111.67 95.5704 116.144 88.9304 119.273 81.5383C122.506 73.8981 124.153 65.7616 124.153 57.3844C124.153 56.076 124.116 54.76 124.04 53.4515C123.943 51.6919 123.777 49.9096 123.544 48.165L123.552 48.1726ZM98.2923 31.5837C98.8187 31.7341 99.3451 31.892 99.8564 32.0424C100.368 32.2003 100.879 32.3582 101.375 32.5237C101.36 32.7643 101.338 33.02 101.315 33.3283C101.27 33.9148 101.233 34.4412 101.202 34.9827C101.112 34.9526 101.014 34.915 100.917 34.8849L100.864 34.8623C98.5931 34.0878 96.119 33.3734 93.5021 32.7417C93.1637 32.659 92.8554 32.5913 92.5621 32.5161C92.5321 32.4485 92.502 32.3808 92.4794 32.3131C92.4343 32.2078 92.3892 32.095 92.3441 31.9897C92.126 31.2528 91.8252 30.5534 91.4342 29.9067C93.8029 30.403 96.104 30.967 98.2848 31.5837H98.2923ZM101.142 40.6602C100.36 40.3368 99.5857 40.036 98.8337 39.7653C98.7811 39.7428 98.7285 39.7277 98.6683 39.7052C98.6307 39.6901 98.6006 39.6826 98.563 39.6676C98.2021 39.5397 97.8637 39.4269 97.5478 39.3216C97.435 39.284 97.3222 39.2464 97.2094 39.2088C96.8034 39.081 96.3973 38.9532 95.9912 38.8329C95.6378 38.7276 95.2843 38.6223 94.9459 38.5321C94.4196 37.0807 93.848 35.6143 93.254 34.1555C96.0815 34.8398 98.736 35.6219 101.142 36.4791C101.142 36.8025 101.135 37.0807 101.135 37.3439C101.142 38.4343 101.15 39.5848 101.135 40.6527L101.142 40.6602ZM101.097 42.2093C101.014 44.0667 100.834 45.4278 100.518 46.4881C100.345 47.0822 100.127 47.5785 99.864 48.0146C99.5857 48.4658 99.2624 48.8343 98.8713 49.1351C98.7285 49.2479 98.5705 49.3532 98.4126 49.4509C97.7659 47.0746 97.0515 44.6833 96.277 42.3522C96.0589 41.6979 95.8183 40.9986 95.5475 40.2165C96.5101 40.5023 97.4501 40.8106 98.3374 41.1264C99.2398 41.4498 100.165 41.8182 101.09 42.2093H101.097ZM84.9972 27.3575C85.0573 27.3575 85.11 27.3575 85.1776 27.365C85.1927 27.365 85.2002 27.365 85.2152 27.365H85.2378C85.2378 27.365 85.313 27.365 85.3506 27.3801C85.3731 27.3801 85.3957 27.3801 85.4183 27.3876H85.4258C85.4258 27.3876 85.4859 27.3951 85.5235 27.4026C85.5536 27.4026 85.5837 27.4101 85.6063 27.4177C85.6363 27.4177 85.6664 27.4252 85.689 27.4327C85.7191 27.4327 85.7491 27.4402 85.7867 27.4477C85.8093 27.4477 85.8243 27.4477 85.8394 27.4553H85.8619C85.8619 27.4553 85.9221 27.4778 85.9522 27.4778C85.9522 27.4778 85.9672 27.4778 85.9747 27.4778C85.9747 27.4778 85.9823 27.4778 85.9898 27.4778C86.0575 27.4929 86.1327 27.5154 86.2154 27.5305H86.2304C86.2304 27.5305 86.2455 27.538 86.253 27.538C86.3357 27.5605 86.4109 27.5831 86.4786 27.6057H86.4936C86.5763 27.6357 86.6666 27.6658 86.7718 27.7034C88.7646 28.4479 90.3287 30.2075 90.9679 32.4109C90.9754 32.4409 90.9905 32.471 90.998 32.4936C92.4343 35.8475 93.7428 39.3141 94.9008 42.7808C95.7581 45.3601 96.5402 48.0071 97.232 50.6316C97.2696 50.7594 97.3373 50.8797 97.4275 50.97C97.4576 51 97.4952 51.0301 97.5328 51.0527C97.5553 51.0677 97.5779 51.0752 97.6005 51.0903C97.608 51.0903 97.623 51.0978 97.6305 51.1053C97.6305 51.1053 97.6306 51.1053 97.6381 51.1053C97.6531 51.1053 97.6682 51.1204 97.6832 51.1279C97.6982 51.1279 97.7208 51.1429 97.7358 51.1504C97.7509 51.158 97.7734 51.1579 97.7885 51.1655C97.8035 51.1655 97.8261 51.1655 97.8411 51.173H97.8561C97.8561 51.173 97.8787 51.173 97.8937 51.173H98.0216C98.0216 51.173 98.0441 51.173 98.0517 51.173C98.0517 51.173 98.0592 51.173 98.0667 51.173C98.0742 51.173 98.0893 51.173 98.1043 51.1655C98.1043 51.1655 98.1043 51.1655 98.1193 51.1655C98.1419 51.1655 98.1569 51.158 98.172 51.1504C98.7435 50.9399 99.2774 50.6466 99.7436 50.2781C100.736 49.5036 101.436 48.3982 101.887 46.9017C102.263 45.6459 102.466 44.0667 102.549 41.9461C102.579 41.8333 102.579 41.7205 102.556 41.6152C102.594 40.2842 102.586 38.8554 102.571 37.3439C102.571 36.9679 102.571 36.5543 102.594 36.0956C102.594 36.0505 102.601 35.9978 102.594 35.9377C102.631 35.0879 102.691 34.2382 102.744 33.426C102.812 32.471 102.887 31.4784 102.91 30.4933V30.4783C102.932 29.809 102.962 28.6885 103.631 27.5681C103.797 27.2973 103.985 27.0341 104.203 26.7935C104.225 26.7709 104.248 26.7484 104.278 26.7183C104.278 26.7183 104.278 26.7108 104.286 26.7033C104.308 26.6807 104.331 26.6581 104.361 26.6431C104.361 26.6431 104.406 26.6055 104.429 26.5905C104.429 26.5905 104.474 26.5604 104.504 26.5453C104.504 26.5453 104.511 26.5453 104.519 26.5378C104.549 26.5228 104.571 26.5153 104.601 26.5002H104.609C104.609 26.5002 104.654 26.4777 104.684 26.4701C104.684 26.4701 104.684 26.4701 104.692 26.4701C104.714 26.4626 104.744 26.4551 104.774 26.4476H104.789C104.842 26.4325 104.895 26.425 104.947 26.425H104.97C104.97 26.425 105.023 26.425 105.045 26.425H105.053C105.12 26.425 105.196 26.425 105.271 26.4476C105.293 26.4476 105.316 26.4476 105.331 26.4626C105.353 26.4626 105.384 26.4777 105.406 26.4852C105.451 26.5002 105.489 26.5077 105.526 26.5303C105.534 26.5303 105.549 26.5378 105.564 26.5453C105.572 26.5453 105.579 26.5453 105.587 26.5604C105.602 26.5604 105.617 26.5754 105.632 26.5829C105.669 26.6055 105.699 26.6205 105.737 26.6431C105.985 26.7935 106.278 27.0943 106.263 27.6132C106.263 27.6508 106.263 27.6884 106.263 27.7184V27.7636C106.248 28.7863 106.211 29.824 106.151 30.8467C106.053 32.5462 105.902 34.2608 105.699 35.9527C105.669 36.1934 105.767 36.434 105.955 36.5919C105.985 36.6145 106.015 36.637 106.045 36.6521C106.06 36.6596 106.075 36.6746 106.09 36.6746C106.113 36.6897 106.136 36.6972 106.166 36.7047C106.188 36.7047 106.203 36.7198 106.226 36.7273C106.248 36.7348 106.271 36.7348 106.286 36.7423C106.399 36.7649 106.978 36.825 107.166 36.058C107.339 35.3436 108.376 32.9598 110.309 30.5384C110.798 29.9293 111.257 29.3578 111.625 28.9668C112.024 28.5456 112.294 28.3576 112.482 28.3652C112.505 28.3652 112.535 28.3652 112.565 28.3727C112.565 28.3727 112.618 28.3877 112.648 28.3952H112.663C112.663 28.3952 112.715 28.4178 112.746 28.4253C112.746 28.4253 112.745 28.4253 112.753 28.4253C112.776 28.4328 112.806 28.4479 112.836 28.4629H112.851C112.851 28.4629 112.911 28.5005 112.934 28.5156H112.949C112.949 28.5156 113.009 28.5607 113.031 28.5757C113.031 28.5757 113.091 28.6208 113.114 28.6434C113.114 28.6434 113.174 28.696 113.204 28.7261C113.219 28.7412 113.234 28.7562 113.249 28.7712C113.347 28.8615 113.43 28.9592 113.513 29.0645C113.558 29.1171 113.595 29.1773 113.625 29.2299C113.821 29.5458 113.934 29.8767 113.941 30.185C113.964 30.7189 113.648 31.0874 113.009 31.7867C112.558 32.283 112.001 32.8921 111.49 33.7494C110.61 35.2233 110.136 36.9529 110.091 38.9005C110.091 39.066 110.144 39.2389 110.249 39.3668C110.264 39.3893 110.279 39.4044 110.294 39.4194C110.309 39.442 110.332 39.457 110.354 39.4796C110.377 39.5021 110.399 39.5172 110.422 39.5322C110.475 39.5623 110.527 39.5924 110.58 39.6074C110.73 39.6525 110.888 39.6525 111.038 39.6074C111.189 39.5623 111.309 39.4645 111.399 39.3367C112.535 37.7199 113.753 36.1934 115.016 34.8172C115.054 34.7796 115.084 34.742 115.114 34.7119H115.122C115.152 34.6668 115.182 34.6367 115.22 34.5992L115.235 34.5841C115.235 34.5841 115.295 34.5239 115.325 34.4864L115.34 34.4713C115.34 34.4713 115.4 34.4112 115.43 34.3811L115.445 34.366C115.445 34.366 115.505 34.3059 115.528 34.2833L115.543 34.2683C115.543 34.2683 115.603 34.2081 115.626 34.1856H115.633C115.663 34.148 115.693 34.1179 115.716 34.0953C115.776 34.0352 115.836 33.9825 115.889 33.9374C115.889 33.9374 115.941 33.8923 115.972 33.8697H115.979C115.979 33.8697 116.032 33.8246 116.054 33.8096H116.069C116.069 33.8096 116.122 33.772 116.144 33.7569H116.16C116.16 33.7569 116.212 33.7268 116.235 33.7118H116.242C116.242 33.7118 116.287 33.6892 116.31 33.6817H116.317C116.317 33.6817 116.363 33.6667 116.385 33.6592C116.408 33.6592 116.43 33.6592 116.445 33.6592H116.528C116.528 33.6592 116.566 33.6592 116.588 33.6742C116.588 33.6742 116.596 33.6742 116.603 33.6742C116.626 33.6742 116.648 33.6892 116.663 33.6968C116.663 33.6968 116.693 33.7118 116.708 33.7193C116.791 33.7644 116.881 33.8246 116.964 33.9073C117.002 33.9374 117.032 33.975 117.069 34.0126C117.107 34.0502 117.137 34.0953 117.175 34.1404C117.295 34.2984 117.4 34.4864 117.506 34.6969L117.626 35.0579C117.799 35.5767 117.686 36.1633 117.333 36.5919C116.791 37.171 116.22 37.7876 115.648 38.4418C115.648 38.4418 115.648 38.4569 115.641 38.4569L115.611 38.4945C114.407 39.8631 113.257 41.2693 112.182 42.683C111.294 43.8486 110.429 45.0744 109.602 46.3076C107.782 49.0373 106.128 51.9175 104.684 54.8653C104.579 54.8427 104.466 54.8126 104.353 54.7901H104.323C104.278 54.775 104.233 54.7675 104.188 54.7525H104.18C104.037 54.7224 103.887 54.6923 103.714 54.6547C103.654 54.6397 103.579 54.6321 103.504 54.6171C103.458 54.6171 103.406 54.6021 103.361 54.5945C103.225 54.572 103.105 54.5569 103 54.5419C102.887 54.5269 102.774 54.5118 102.669 54.4968C102.188 54.4441 101.706 54.4141 101.233 54.4141H101.007C99.5857 54.4291 98.548 54.6472 97.5478 54.8653H97.5328C97.4726 54.8803 97.42 54.8878 97.3674 54.9029C97.3147 54.9179 97.2621 54.9254 97.2094 54.9329L97.1418 54.948C97.1418 54.948 97.0816 54.963 97.059 54.9705L96.9989 54.9856C96.9989 54.9856 96.9312 55.0006 96.9011 55.0081C96.8786 55.0081 96.856 55.0157 96.841 55.0232C96.8109 55.0232 96.7808 55.0382 96.7432 55.0457C96.7206 55.0457 96.6981 55.0533 96.683 55.0608C96.653 55.0608 96.6154 55.0758 96.5853 55.0833C96.5853 55.0833 96.5477 55.0909 96.5251 55.0984C96.4875 55.0984 96.4499 55.1134 96.4198 55.1209H96.3973C96.3973 55.1209 96.3747 55.1209 96.3672 55.1285C96.2544 55.151 96.1416 55.1661 96.0363 55.1811C96.0288 55.1811 96.0138 55.1811 96.0063 55.1811H95.9837C95.9461 55.1886 95.9085 55.1961 95.8709 55.2037C95.8483 55.2037 95.8258 55.2037 95.8107 55.2037C95.8107 55.2037 95.7355 55.2112 95.7055 55.2187C95.6829 55.2187 95.6603 55.2187 95.6378 55.2262C95.6002 55.2262 95.5701 55.2337 95.5325 55.2412C95.5099 55.2412 95.4874 55.2412 95.4573 55.2412C95.4197 55.2412 95.3821 55.2412 95.3445 55.2488H95.3295C95.3295 55.2488 95.2919 55.2488 95.2693 55.2488C95.2242 55.2488 95.1866 55.2488 95.1415 55.2563H95.1189C95.1189 55.2563 95.0888 55.2563 95.0738 55.2563C95.0061 55.2563 94.946 55.2638 94.8858 55.2713C94.7429 55.2788 94.6 55.2864 94.4647 55.2939C94.1564 54.1509 93.9082 53.5192 93.3292 52.0603C92.5922 50.2104 91.7049 48.4057 90.6972 46.6836C90.6897 46.646 90.6822 46.6084 90.6747 46.5708L90.6295 46.3678V46.3527C90.622 46.3001 90.607 46.2475 90.5995 46.2023L90.5619 46.0369C90.5619 46.0369 90.5543 45.9918 90.5468 45.9692C90.5468 45.9316 90.5318 45.9015 90.5243 45.8639C90.5243 45.8414 90.5167 45.8188 90.5092 45.7963L90.434 45.4504C90.434 45.4504 90.419 45.3827 90.4115 45.3451L90.3964 45.2699C90.3964 45.2699 90.3814 45.2022 90.3739 45.1721C90.3739 45.1571 90.3739 45.142 90.3588 45.1195L90.3438 45.0593C90.3438 45.0593 90.3363 45.0142 90.3287 44.9916C90.3287 44.9691 90.3137 44.939 90.3062 44.9089V44.8864C90.3062 44.8864 90.2911 44.8412 90.2836 44.8187L90.2611 44.736C90.2611 44.736 90.246 44.6758 90.2385 44.6382C90.2385 44.6081 90.2235 44.5856 90.2159 44.5555C90.2159 44.5254 90.2009 44.4953 90.1934 44.4577C90.1934 44.4352 90.1783 44.4126 90.1708 44.3825C90.1633 44.3374 90.1483 44.3073 90.1483 44.2772C90.1483 44.2472 90.1332 44.2246 90.1257 44.1945C90.1182 44.1645 90.1107 44.1344 90.1031 44.0968C90.1031 44.0667 90.0881 44.0441 90.0806 44.0141C90.0731 43.984 90.0655 43.9539 90.058 43.9163C90.058 43.8862 90.043 43.8637 90.0355 43.8336C90.0355 43.8035 90.0204 43.7734 90.0129 43.7509C90.0054 43.7133 89.9979 43.6907 89.9903 43.6606C89.9828 43.6305 89.9753 43.6005 89.9678 43.5629L89.9452 43.4801C89.9452 43.4801 89.9227 43.42 89.9227 43.3824C89.9227 43.3523 89.9076 43.3297 89.9001 43.2997C89.8926 43.2696 89.8775 43.2395 89.87 43.2019C89.8625 43.1718 89.855 43.1493 89.8475 43.1192C89.84 43.0891 89.8249 43.059 89.8174 43.0214V43.0064C89.8174 43.0064 89.7948 42.9613 89.7948 42.9387C89.7873 42.9086 89.7723 42.8785 89.7648 42.841C89.7572 42.8184 89.7497 42.7883 89.7422 42.7582C89.7347 42.7281 89.7196 42.6981 89.7121 42.6605V42.6304C89.7121 42.6304 89.6896 42.5928 89.6896 42.5778C89.682 42.5552 89.6745 42.5251 89.667 42.5026L89.652 42.465C89.652 42.465 89.6369 42.4274 89.6294 42.4048C89.6219 42.3747 89.6068 42.3446 89.5993 42.3221L89.5843 42.2845C89.5843 42.2845 89.5692 42.2469 89.5617 42.2318C89.5542 42.2018 89.5392 42.1717 89.5316 42.1341V42.119C89.5316 42.119 89.5091 42.0739 89.5091 42.0589C89.5016 42.0363 89.4865 42.0062 89.479 41.9762V41.9461C89.479 41.9461 89.4564 41.9085 89.4489 41.8859C89.4339 41.8558 89.4264 41.8258 89.4113 41.7957V41.7656C89.4113 41.7656 89.3888 41.7355 89.3812 41.7205C89.3737 41.6979 89.3587 41.6678 89.3512 41.6378L89.3361 41.5926C89.3361 41.5926 89.3211 41.5626 89.3211 41.5475C89.306 41.5175 89.2985 41.4874 89.2835 41.4648L89.2684 41.4197C89.2684 41.4197 89.2609 41.3971 89.2534 41.3821C89.2384 41.337 89.2233 41.2994 89.2083 41.2618V41.2467L89.1932 41.2242C89.1707 41.1715 89.1481 41.1189 89.1256 41.0663C89.103 41.0061 89.0805 40.961 89.0579 40.9083C89.0579 40.9008 89.0504 40.8858 89.0428 40.8783C89.0428 40.8783 89.0428 40.8632 89.0353 40.8557C89.0203 40.8181 89.0052 40.788 88.9902 40.7504C88.9902 40.7354 88.9752 40.7279 88.9677 40.7128L88.9526 40.6827C88.9526 40.6827 88.93 40.6301 88.915 40.6C88.915 40.585 88.9 40.5775 88.8924 40.5549L88.8774 40.5248C88.8774 40.5248 88.8549 40.4722 88.8398 40.4496C88.8398 40.4346 88.8248 40.4271 88.8172 40.4045L88.7947 40.3669C88.7947 40.3669 88.7721 40.3218 88.7571 40.2917C88.7496 40.2767 88.7421 40.2616 88.7345 40.2466L88.7195 40.224C88.7195 40.224 88.6894 40.1714 88.6744 40.1488C88.6669 40.1338 88.6593 40.1188 88.6518 40.1037L88.6368 40.0812C88.6368 40.0812 88.6142 40.036 88.5917 40.0135C88.5841 39.9984 88.5766 39.9834 88.5691 39.9684V39.9458C88.5691 39.9458 88.5315 39.8932 88.5165 39.8706C88.5089 39.848 88.4939 39.833 88.4789 39.818C88.4789 39.818 88.4413 39.7653 88.4262 39.7352C88.4112 39.7127 88.4037 39.6976 88.3886 39.6751C88.3736 39.645 88.3585 39.6224 88.3435 39.5999C88.3285 39.5773 88.3209 39.5623 88.3059 39.5472C88.3059 39.5472 88.2758 39.4946 88.2608 39.4796C88.2457 39.457 88.2307 39.442 88.2157 39.4194C88.2006 39.3968 88.1856 39.3743 88.1705 39.3592C88.1555 39.3367 88.1405 39.3216 88.1254 39.2991C88.1104 39.2765 88.0953 39.254 88.0803 39.2389C88.0653 39.2164 88.0502 39.2013 88.0352 39.1863C88.0201 39.1637 88.0051 39.1412 87.9825 39.1261C87.9675 39.1036 87.9525 39.0885 87.9374 39.0735C87.9224 39.0509 87.8998 39.0359 87.8848 39.0133C87.8697 38.9983 87.8547 38.9757 87.8397 38.9607C87.8246 38.9381 87.8021 38.9231 87.787 38.908C87.772 38.893 87.757 38.878 87.7419 38.8629C87.7269 38.8404 87.7043 38.8253 87.6893 38.8103C87.6742 38.7952 87.6592 38.7802 87.6441 38.7652C87.6216 38.7426 87.6066 38.7276 87.5915 38.7125C87.5765 38.6975 87.5614 38.6824 87.5464 38.6674C87.5238 38.6524 87.5088 38.6373 87.4938 38.6223C87.4787 38.6073 87.4637 38.5922 87.4411 38.5772C87.4186 38.5621 87.4035 38.5471 87.381 38.5321C87.3659 38.517 87.3434 38.5095 87.3283 38.4945C87.3058 38.4794 87.2907 38.4644 87.2682 38.4493C87.2682 38.4493 87.2381 38.4193 87.223 38.4117C87.2005 38.3967 87.1854 38.3892 87.1629 38.3741C87.1629 38.3741 87.1328 38.3516 87.1178 38.3365C87.0952 38.3215 87.0802 38.314 87.0576 38.2989H87.0501C87.0501 38.2989 87.02 38.2764 87.005 38.2689C86.9824 38.2613 86.9674 38.2463 86.9448 38.2388H86.9222C86.9222 38.2388 86.8997 38.2162 86.8846 38.2087C86.8621 38.2012 86.847 38.1861 86.8245 38.1786H86.8019C86.8019 38.1786 86.7794 38.1561 86.7643 38.1485C86.7418 38.141 86.7267 38.1335 86.7117 38.126H86.6966C86.6966 38.126 86.6816 38.1109 86.6741 38.1109C86.659 38.1109 86.6515 38.1034 86.6365 38.0959C86.6139 38.0959 86.5989 38.0809 86.5763 38.0733H86.5613L86.5387 38.0583C86.5387 38.0583 86.5162 38.0508 86.5011 38.0433C86.4786 38.0433 86.456 38.0282 86.441 38.0207H86.4259C86.4259 38.0207 86.4109 38.0207 86.4034 38.0132C86.3959 38.0132 86.3808 38.0132 86.3733 38.0057C86.3507 38.0057 86.3282 37.9906 86.2981 37.9831H86.2831C86.2831 37.9831 86.268 37.9831 86.2605 37.9831C86.253 37.9831 86.2455 37.9831 86.2379 37.9831C86.1928 37.9756 86.1552 37.9605 86.1101 37.9605C83.5308 37.5018 81.2222 40.976 78.5526 44.9916C77.1013 47.1799 75.8229 49.5261 74.7476 51.9626C74.7476 51.9626 74.725 52.0227 74.71 52.0453C74.4016 52.7522 74.1385 53.3838 73.9053 53.993C72.1156 54.5795 70.2582 54.8878 68.3707 54.9179C68.2429 54.9179 68.1226 54.9179 67.9947 54.9179C67.6714 54.9179 67.348 54.9104 67.0247 54.8878C66.8367 54.8803 66.6487 54.8653 66.4607 54.8502C66.3328 54.8352 66.1975 54.8277 66.0621 54.8126H66.0095C65.8591 54.7976 65.6936 54.775 65.4981 54.7525C65.0695 54.6923 64.6333 54.6171 64.2047 54.5269C63.9565 54.4742 63.7084 54.4141 63.4602 54.3539C63.2196 54.2937 62.9714 54.2261 62.7308 54.1509C62.4375 54.0681 62.1518 53.9704 61.866 53.8726C61.7908 53.8501 61.7231 53.82 61.6555 53.7974C61.5727 53.7673 61.49 53.7373 61.4148 53.7072C61.3321 53.6771 61.2494 53.647 61.1742 53.617C61.0163 53.5568 60.8583 53.4891 60.7004 53.4214C60.4297 53.3086 60.1665 53.1883 59.9184 53.068L79.7032 29.5984C80.0641 29.1848 82.0268 27.1545 84.8844 27.2973L84.9972 27.3575ZM23.3793 60.054H23.3718C23.7478 60.3473 24.2441 60.5052 24.793 60.5052C25.3796 60.5052 25.9661 60.3322 26.4173 60.0239C26.9512 59.6629 27.4701 59.0012 27.6882 56.6776C27.7032 56.5196 27.7107 56.3617 27.7258 56.2038C27.7935 56.3843 27.8611 56.5497 27.9213 56.7001C27.9965 56.8881 28.0642 57.0686 28.1319 57.2491C28.6507 58.6327 29.0643 59.7231 30.2299 60.1893C30.448 60.2721 31.5684 60.6781 32.5159 60.0465C33.298 59.5276 33.4484 58.6478 33.5161 58.2191C33.5913 57.7679 33.5988 57.3243 33.5386 56.858C33.9297 57.3995 34.3433 57.6702 34.8772 57.7529C35.7345 57.8807 36.5541 57.3619 36.9827 56.7979C38.0581 55.3691 37.0955 53.3162 36.6293 52.3235C36.4188 51.8648 36.1706 51.4287 35.8623 50.97C37.1482 51.3159 38.8853 51.752 40.9457 52.0979C43.119 52.4664 45.2321 52.6619 47.4053 52.7071C47.7813 52.7071 48.1573 52.7221 48.5333 52.7221C52.1654 52.7221 55.82 52.3611 59.392 51.6467L58.4445 52.7672C57.9256 52.7371 57.4142 52.7446 56.9029 52.7822C56.0231 52.8499 55.1508 53.0304 54.3085 53.3086C54.1281 53.3688 53.9777 53.4966 53.8949 53.6696C53.8122 53.8426 53.7972 54.0381 53.8573 54.2185C53.9551 54.5118 54.2333 54.7149 54.5417 54.7149C54.6169 54.7149 54.6996 54.6998 54.7673 54.6773C55.4967 54.4291 56.2562 54.2787 57.0157 54.2185C57.7301 54.1584 58.452 54.1885 59.1664 54.2937C61.3095 55.3616 63.6031 56.0384 65.9719 56.3016C68.8896 56.6249 71.9126 56.294 74.7175 55.339L77.1539 55.2412C77.3494 55.2412 77.5299 55.151 77.6578 55.0081C77.7856 54.8653 77.8533 54.6848 77.8457 54.4893C77.8382 54.2937 77.7555 54.1133 77.6126 53.9854C77.4698 53.8576 77.2893 53.7899 77.0938 53.7974L75.665 53.8576C75.7853 53.5643 75.8981 53.2861 76.0184 53.0154C77.1238 52.9326 78.2217 52.8198 79.2821 52.677C80.1468 52.5566 81.0191 52.4138 81.8839 52.2483C82.1321 52.2032 82.3426 52.0227 82.4329 51.7746L82.9066 50.421C83.1172 51.8122 83.2676 53.2259 83.3503 54.6171C83.4706 56.6024 83.4556 58.6177 83.3202 60.618H81.1319C80.7334 60.618 80.41 60.9413 80.41 61.3399C80.41 61.7384 80.7334 62.0618 81.1319 62.0618H83.8993C84.9596 62.3551 86.0424 62.4979 87.1253 62.4979C87.3734 62.4979 87.6216 62.4979 87.8698 62.4754C89.0955 62.4002 90.3062 62.1445 91.4642 61.7084C92.3516 61.5429 93.254 61.4828 94.1413 61.5354C94.3293 61.5504 94.5173 61.4828 94.6602 61.3549C94.8031 61.2271 94.8933 61.0466 94.9008 60.8511C94.9083 60.6556 94.8482 60.4751 94.7128 60.3322C94.585 60.1893 94.4045 60.1066 94.2165 60.0916C93.4796 60.0465 92.7276 60.0765 91.9831 60.1668L91.765 56.5347C92.5847 56.67 93.4119 56.7377 94.2316 56.7377C94.3368 56.7377 94.4496 56.7377 94.5624 56.7377C95.9837 56.7076 97.0064 56.4896 97.9915 56.2715C98.9616 56.0609 99.8865 55.8579 101.157 55.8504H101.24C102.458 55.8504 103.707 56.0308 104.955 56.3843C105.444 56.6399 105.97 56.7979 106.519 56.8655C106.692 56.8881 106.865 56.8956 107.038 56.8956C107.459 56.8956 107.888 56.8355 108.294 56.7152C108.677 56.6024 108.895 56.2038 108.79 55.8203C108.737 55.6323 108.617 55.4819 108.444 55.3841C108.279 55.2939 108.083 55.2713 107.895 55.324C107.497 55.4368 107.091 55.4744 106.684 55.4292C106.534 55.4142 106.376 55.3841 106.203 55.3315C107.482 52.7296 108.933 50.1804 110.52 47.7514C111.392 48.4658 112.159 49.3381 112.738 50.2781C113.467 51.4738 113.949 52.8424 114.129 54.2336C114.137 54.2937 114.159 54.3614 114.189 54.4366C113.67 55.0232 113.061 55.6022 112.377 56.1662C109.67 58.3996 105.775 60.4074 100.804 62.1445C90.4791 65.7465 76.7403 67.7243 62.1067 67.7243C48.6085 67.7243 35.6517 65.9947 25.6127 62.8664C22.522 61.9039 19.7547 60.821 17.3935 59.6554C15.0473 58.4974 13.0846 57.2491 11.5656 55.9481C11.5656 55.9256 11.5505 55.8729 11.528 55.7827C11.4302 55.3841 11.1745 54.3163 11.2949 53.5944C11.355 53.2184 11.4829 52.8424 11.6633 52.4814C11.8363 52.4814 12.0092 52.4814 12.1822 52.4814C14.8442 52.4814 17.5589 52.2258 20.2585 51.7144C21.4692 52.7146 22.2363 53.82 22.5371 54.9931C22.7551 55.8504 22.7025 56.655 22.6649 57.3694C22.6047 58.362 22.5446 59.3922 23.3943 60.054H23.3793ZM84.7716 54.5419C84.6287 52.1656 84.3053 49.7893 83.809 47.4657C83.7789 47.3228 83.7037 47.1874 83.5909 47.0897C83.5684 47.0746 83.5533 47.0596 83.5308 47.0446C83.5082 47.0295 83.4857 47.0145 83.4706 46.9995C83.4481 46.9844 83.418 46.9694 83.3879 46.9543C83.3804 46.9543 83.3653 46.9468 83.3578 46.9393C83.2901 46.9092 83.2149 46.8942 83.1397 46.8942C82.8164 46.8716 82.5156 47.0671 82.4103 47.3754L81.1771 50.9098C80.4777 51.0376 79.7633 51.1504 79.064 51.2482C78.3045 51.3535 77.4998 51.4437 76.6802 51.5189C77.6051 49.5562 78.6805 47.6537 79.8761 45.8564C81.899 42.8184 83.982 39.6751 85.5912 39.442C85.6439 39.442 85.6965 39.4269 85.7416 39.4269C85.8243 39.4269 85.8995 39.4269 85.9747 39.442C87.8697 39.7728 88.8924 44.6758 89.4489 47.3078L90.5318 60.5052C89.6369 60.806 88.6969 60.9864 87.757 61.0466C87.5088 61.0616 87.2456 61.0692 86.9974 61.0692H86.9899C86.2379 61.0616 85.4784 60.9714 84.7415 60.806C84.8919 58.723 84.9069 56.6249 84.7791 54.5419H84.7716ZM91.4417 51.2256V51.1955C91.4267 51.0226 91.4191 50.8572 91.4041 50.6917C91.6898 51.3083 91.953 51.9325 92.2012 52.5416C92.69 53.7749 92.9381 54.4065 93.1863 55.2563C93.0509 55.2488 92.9156 55.2337 92.7878 55.2187H92.7802C92.7802 55.2187 92.7577 55.2187 92.7426 55.2187C92.6599 55.2112 92.5772 55.1961 92.4719 55.1886C92.4042 55.1811 92.3441 55.1736 92.299 55.166C92.2538 55.166 92.2087 55.151 92.1561 55.1435C92.0508 55.1285 91.9606 55.1134 91.8703 55.0984C91.8553 55.0984 91.8402 55.0984 91.8252 55.0909H91.8026C91.7575 55.0833 91.7199 55.0758 91.6748 55.0683L91.4793 51.7821V51.7295C91.4718 51.5565 91.4567 51.3911 91.4492 51.2332L91.4417 51.2256ZM113.949 49.5261C113.475 48.7441 112.896 48.0222 112.242 47.3679C111.948 47.0746 111.633 46.7964 111.302 46.5407C111.994 45.518 112.715 44.5179 113.452 43.5403C113.475 43.5177 113.49 43.4952 113.505 43.4726C113.52 43.4501 113.535 43.435 113.55 43.4125C115.453 45.3075 116.423 47.2702 116.423 49.2479C116.423 50.4586 116.054 51.6843 115.325 52.88C115.039 51.6843 114.58 50.5564 113.949 49.5261ZM67.4382 36.4039L72.0479 36.6145L69.822 39.2464C69.822 39.2464 69.822 39.2464 69.822 39.2389C69.807 39.2164 69.7995 39.1938 69.7844 39.1788C69.0776 38.2162 68.288 37.2838 67.4382 36.4039ZM67.4082 29.1096C67.4758 28.4028 67.4758 27.741 67.4082 27.1244C68.1301 27.1469 68.852 27.177 69.5739 27.2071C69.8371 27.2221 70.0928 27.2297 70.3334 27.2447C70.4086 27.2447 70.4913 27.2522 70.5665 27.2597C71.2433 27.2973 71.9276 27.3349 72.5969 27.3801C72.6646 27.3801 72.7398 27.3876 72.8074 27.3951C73.3564 27.4327 73.9129 27.4778 74.4618 27.5154C75.2514 27.5756 76.056 27.6508 76.8682 27.726C77.7254 27.8087 78.5977 27.8989 79.4475 27.9967C79.0865 28.3125 78.8459 28.5757 78.7331 28.7036C78.7331 28.7036 78.7331 28.7111 78.7256 28.7186L77.5525 30.1098C77.3419 30.0872 77.1314 30.0647 76.9208 30.0421C76.4997 29.997 76.0861 29.9594 75.6951 29.9218C75.4995 29.8992 75.2965 29.8842 75.0935 29.8691C72.8074 29.6586 70.7319 29.5307 68.3632 29.4405C68.2579 29.4405 68.1602 29.4405 68.0549 29.433C67.8368 29.433 67.6112 29.4179 67.3931 29.4104C67.4082 29.3127 67.4157 29.2074 67.4232 29.1096H67.4082ZM67.1224 30.8467C70.4763 30.9445 73.1759 31.1174 76.417 31.4483L73.2285 35.2308L66.0396 34.8999H66.017C65.9719 34.8999 65.9268 34.8999 65.8741 34.915C65.829 34.8699 65.7764 34.8323 65.7312 34.7871C65.7688 34.7044 65.8139 34.6217 65.8516 34.539C65.8892 34.4563 65.9268 34.3811 65.9568 34.2984C66.4832 33.1253 66.8743 31.9672 67.1299 30.8542L67.1224 30.8467ZM58.7904 23.951C59.8883 23.9059 60.8283 23.8683 61.6555 23.8833C62.5578 23.9059 63.2346 23.9886 63.7685 24.1615C64.2423 24.3119 64.6183 24.5225 64.9266 24.8158C65.7011 25.5602 66.0771 26.8085 66.0095 28.4253C65.9418 30.0346 65.438 31.907 64.5506 33.8472C64.4679 33.787 64.3852 33.7193 64.2799 33.6441C64.2573 33.6291 64.2348 33.614 64.2197 33.599L64.1972 33.584C64.137 33.5388 64.0693 33.4862 64.0017 33.4411C63.9716 33.4185 63.9415 33.396 63.9039 33.3734C63.8287 33.3208 63.761 33.2681 63.6783 33.2155C63.6708 33.2155 63.6557 33.2005 63.6482 33.1929C63.6332 33.1854 63.6257 33.1779 63.6106 33.1704C63.5279 33.1102 63.4377 33.0501 63.3324 32.9824C63.3023 32.9598 63.2722 32.9448 63.2497 32.9222L63.2121 32.8997C63.1519 32.8545 63.0918 32.8169 63.0391 32.7793C62.994 32.7493 62.9489 32.7192 62.9038 32.6891C62.8511 32.6515 62.7985 32.6214 62.7383 32.5838C62.6857 32.5462 62.6255 32.5086 62.5654 32.471C62.4826 32.4184 62.3999 32.3657 62.3322 32.3281C62.2796 32.2981 62.227 32.268 62.1743 32.2379H62.1593C62.1142 32.2003 62.069 32.1777 62.0239 32.1477C61.9638 32.1101 61.8961 32.0725 61.8435 32.0424C61.8134 32.0198 61.7833 32.0048 61.7457 31.9822L61.7156 31.9672C61.49 31.8393 61.2644 31.7115 61.0313 31.5912H61.0163C61.0163 31.5912 60.9561 31.5461 60.9185 31.531C60.8508 31.4934 60.7756 31.4558 60.708 31.4182C60.6779 31.4032 60.6478 31.3882 60.6102 31.3656H60.5952C60.52 31.3205 60.4523 31.2829 60.3771 31.2453L60.7456 29.7413C60.7907 29.5759 60.7606 29.4104 60.6704 29.26C60.5801 29.1172 60.4448 29.0119 60.2793 28.9743C60.1139 28.9292 59.9484 28.9592 59.798 29.0495C59.6552 29.1397 59.5499 29.2751 59.5123 29.4405L59.204 30.6963C59.0611 30.6362 58.9408 30.5835 58.8205 30.5309C58.3166 30.3203 57.7978 30.1173 57.2714 29.9368C57.2639 29.9368 57.2488 29.9368 57.2413 29.9293C56.8051 29.7789 56.3615 29.636 55.9103 29.5082C55.7749 29.4706 55.632 29.4255 55.4816 29.3879C55.2936 29.3352 55.1056 29.2901 54.9177 29.245C54.5567 29.1548 54.1882 29.0796 53.8273 29.0044C52.9399 28.8239 52.0375 28.696 51.1352 28.6058C51.075 28.6058 51.0148 28.5908 50.9547 28.5908C50.0899 28.5156 49.2176 28.4855 48.3603 28.493C49.1048 27.5455 49.7816 26.5604 50.3832 25.5377C53.1129 24.6203 55.9404 24.0939 58.7904 23.9735V23.951ZM2.73723 47.022H2.75227C2.94027 46.0519 3.41402 44.8864 4.17353 43.5478C4.19609 43.5027 4.22617 43.4576 4.24873 43.4125C4.28633 43.3523 4.32393 43.2846 4.36153 43.2169C4.36153 43.2094 4.37657 43.1944 4.38409 43.1869C4.38409 43.1793 4.39913 43.1643 4.40665 43.1568C4.48185 43.059 4.56456 42.9613 4.64728 42.8635L4.66232 42.8485C4.75256 42.7432 4.8052 42.6078 4.82024 42.4725C5.32407 41.6754 5.81286 40.9911 6.13622 40.5323C8.3997 37.3364 10.5353 34.3209 14.2201 33.9524C14.4306 33.9299 14.6562 33.9224 14.8894 33.9224C15.6188 33.9224 16.7768 34.0427 18.1154 34.5691C19.672 35.1857 21.1158 36.2159 22.3942 37.6297C22.4318 37.6748 22.4769 37.7124 22.5295 37.75C22.5596 37.7725 22.5897 37.7876 22.6123 37.8026C22.695 37.8402 22.7777 37.8628 22.8604 37.8703H22.9131C23.0935 37.8703 23.2665 37.8026 23.3943 37.6823C23.5372 37.5545 23.6199 37.374 23.6274 37.186C23.635 36.9905 23.5673 36.81 23.4395 36.6671C22.9055 36.0806 21.4392 34.5916 19.3637 33.5689C19.281 33.5238 19.1982 33.4862 19.1155 33.4486C18.8598 33.3283 18.5967 33.2155 18.3335 33.1177C18.0627 33.0125 17.777 32.9222 17.5063 32.847C17.416 32.8245 17.3333 32.8019 17.2506 32.7793C17.2506 32.7793 17.2431 32.7793 17.2356 32.7793C17.2356 32.7793 17.2205 32.7793 17.213 32.7793C16.1602 32.5161 15.0999 32.4334 14.0546 32.5387C13.0996 32.6365 12.1822 32.8846 11.3174 33.2907C10.5353 33.6516 9.7984 34.1404 9.06897 34.7721C9.00881 34.7119 8.94865 34.6744 8.88849 34.6443C8.08387 34.2608 4.04569 32.1627 3.67722 28.7036C3.4441 26.5002 4.79016 24.4924 6.64757 21.7176L6.72277 21.6048C7.4522 20.5144 8.2869 19.4691 9.18929 18.4991C9.31713 18.3637 9.44496 18.2283 9.58032 18.0855C9.62544 18.0403 9.65552 17.9952 9.6856 17.9501C9.77584 17.7997 9.80592 17.6192 9.76832 17.4538C9.70064 17.0778 9.648 16.6868 9.61792 16.3033C9.60288 16.1529 9.59536 15.9949 9.59536 15.837C9.59536 15.6866 9.59536 15.5287 9.59536 15.3783C9.59536 15.273 9.59536 15.1602 9.6104 15.0474C9.65552 14.2278 9.7984 13.4156 10.0315 12.6335C10.2722 11.844 10.6105 11.092 11.0317 10.3851C12.28 8.32465 14.175 6.87331 16.3708 6.28676C17.9499 5.86565 19.469 5.77541 20.8827 6.00853C20.9429 6.01605 21.003 6.03109 21.0557 6.03861C21.1534 6.06116 21.2512 6.0762 21.364 6.09876C21.3865 6.09876 21.4091 6.10628 21.4316 6.1138C21.5369 6.13636 21.6422 6.16644 21.74 6.189C21.9054 6.23412 22.0708 6.28676 22.2363 6.3394C23.1011 6.63268 23.9057 7.06131 24.605 7.61778C25.3194 8.18177 25.9436 8.8736 26.4474 9.67823C26.5376 9.82111 26.673 9.92639 26.8309 9.97903C26.9888 10.0317 27.1618 10.0241 27.3197 9.97151C27.6355 9.85119 27.8235 9.52031 27.7784 9.18192C27.7483 8.97888 27.7183 8.77584 27.6957 8.58033C27.6506 8.14417 27.6355 7.71554 27.6581 7.30195C27.6656 7.13651 27.6807 6.97107 27.7032 6.81315C27.9439 4.80534 29.0117 3.18857 30.8089 2.15082C32.2076 1.33867 34.0951 1.24843 35.9976 1.90266C36.3962 2.03802 36.7797 2.20346 37.1557 2.39898C39.1861 3.44424 40.7953 5.26406 41.7052 7.52002C41.7879 7.73058 41.9759 7.89602 42.2015 7.94866C42.2391 7.95618 42.2767 7.9637 42.3143 7.97122H42.382C42.4271 7.97122 42.4798 7.97122 42.5249 7.95618C42.6527 7.9261 45.7058 7.29443 48.443 8.06146C48.4957 8.0765 48.5483 8.09154 48.601 8.10658C48.9845 8.21937 49.3529 8.36225 49.6838 8.52769C49.7365 8.55025 49.7816 8.58033 49.8342 8.60289C50.0373 8.70817 50.2328 8.82096 50.4132 8.94128C50.4734 8.9864 50.5336 9.024 50.5862 9.06912C50.6238 9.09168 50.6539 9.12176 50.6915 9.14432C50.7742 9.20448 50.8494 9.26464 50.9171 9.33232C50.9772 9.39248 51.0374 9.4376 51.09 9.49023C51.2329 9.62559 51.3683 9.76095 51.4886 9.91135C51.7668 10.2422 52.0075 10.6182 52.1955 11.0318C51.9473 11.8665 51.6089 12.6711 51.2028 13.4156C49.8944 15.8069 47.2098 18.9051 38.028 21.5973C32.0948 23.3344 25.8007 24.2142 19.2659 24.2142C18.341 24.2142 17.4085 24.1916 16.476 24.1615C16.7919 23.7479 17.1002 23.5524 17.1904 23.4998C17.401 23.372 17.5364 23.1539 17.5439 22.9057C17.5439 22.823 17.5439 22.7403 17.5138 22.6651C17.4988 22.6124 17.4762 22.5598 17.4461 22.5147C17.4461 22.4996 17.4311 22.4921 17.4236 22.4846C17.3935 22.4244 17.3559 22.3793 17.3183 22.3492C17.2506 22.2891 17.1754 22.244 17.0927 22.2139C16.8896 22.1387 16.664 22.1613 16.476 22.2665C16.2053 22.4244 15.2879 23.0336 14.7164 24.3721C14.7014 24.4097 14.6863 24.4548 14.6713 24.4849C14.6713 24.4999 14.6638 24.5075 14.6562 24.5225C14.6487 24.5451 14.6412 24.5601 14.6337 24.5751C14.6337 24.5751 14.6337 24.5902 14.6337 24.5977V24.6127C14.6337 24.6127 14.6186 24.6353 14.6111 24.6579V24.6729C14.1599 25.9438 14.363 26.9439 14.4382 27.2221C14.4682 27.3425 14.5284 27.4477 14.6111 27.538C14.7465 27.6809 14.942 27.7636 15.13 27.7636C15.1901 27.7636 15.2578 27.7561 15.318 27.741C15.3405 27.741 15.3631 27.726 15.3857 27.7184C15.4082 27.7184 15.4308 27.7034 15.4458 27.6959C15.7541 27.5455 15.9121 27.1921 15.8218 26.8612C15.8068 26.8085 15.6865 26.3047 15.8369 25.6129C17.01 25.6655 18.168 25.6956 19.281 25.6956C25.9436 25.6956 32.3956 24.7932 38.4491 23.0185C48.1422 20.176 51.0374 16.7845 52.4812 14.145C52.5639 13.9946 52.6466 13.8292 52.7444 13.6337C52.7895 16.1077 51.7743 18.8675 51.0374 20.8829C48.413 27.9967 42.8934 32.5237 38.7198 35.0654C38.5544 35.1707 38.4416 35.3211 38.3965 35.5091C38.3514 35.6971 38.3814 35.8926 38.4792 36.058C38.5394 36.1558 38.6146 36.231 38.7123 36.2911C38.7424 36.3137 38.7725 36.3287 38.8101 36.3438C38.8101 36.3438 38.8101 36.3438 38.8176 36.3438C38.8176 36.3438 38.8251 36.3438 38.8326 36.3438C38.9154 36.3814 39.0056 36.3964 39.1034 36.3964C39.2312 36.3964 39.3666 36.3588 39.4793 36.2911C40.8028 35.479 42.0737 34.5916 43.2543 33.6516C44.6681 32.5237 45.9765 31.2979 47.1271 30.012C47.3602 29.997 47.6008 29.9895 47.8414 29.9744C48.0821 29.9744 48.3227 29.9594 48.5558 29.9594C49.5785 29.9594 50.6088 30.012 51.6239 30.1323C52.9775 30.2978 54.3311 30.5685 55.632 30.9445C55.9554 31.0422 56.2863 31.14 56.6096 31.2528C56.8352 31.328 57.0608 31.4107 57.2789 31.4859C57.6098 31.6138 57.9482 31.7416 58.2715 31.877C58.4219 31.9371 58.5723 32.0048 58.7227 32.0725C60.7456 32.9749 62.6406 34.148 64.3551 35.5542C64.3701 35.5617 64.3777 35.5767 64.3927 35.5843C64.4077 35.5918 64.4153 35.6068 64.4303 35.6143C64.4378 35.6143 64.4453 35.6294 64.4529 35.6369C64.5807 35.7422 64.701 35.8475 64.8288 35.9603C66.1147 37.0807 67.2954 38.329 68.3256 39.6826C68.4384 39.8255 68.5361 39.9533 68.6189 40.0736C68.6264 40.0887 68.6414 40.0962 68.6489 40.1112C68.664 40.1338 68.679 40.1488 68.6941 40.1639C68.7693 40.2391 68.8595 40.2917 68.9497 40.3293L60.896 49.8796C56.9029 50.8196 52.797 51.3083 48.6837 51.3234H48.0445C47.8339 51.3234 47.6159 51.3234 47.4053 51.3159C47.2323 51.3159 47.0519 51.3083 46.8488 51.3008C46.3826 51.2858 45.9088 51.2632 45.4501 51.2332C45.405 51.2332 45.3674 51.2332 45.3223 51.2256C43.3145 51.0828 41.3217 50.8045 39.2462 50.3608C37.4565 49.9848 35.9149 49.5487 34.5538 49.1727C34.5238 49.1727 34.4937 49.1577 34.4561 49.1501C34.426 49.1501 34.3959 49.1501 34.3734 49.1501H34.3132C33.2755 48.0823 32.0196 47.1348 30.5833 46.3452C28.4552 45.1646 25.9737 44.3073 23.2063 43.796C23.1311 43.7809 23.0484 43.7659 22.9657 43.7509C22.8379 43.7283 22.71 43.7057 22.5822 43.6832C22.4167 43.6531 22.2438 43.6305 22.0708 43.6005C21.9204 43.5779 21.77 43.5553 21.6272 43.5403C21.5745 43.5403 21.5219 43.5253 21.4617 43.5177C21.2061 43.4877 20.9504 43.4576 20.6947 43.4275C20.0705 43.3598 19.4238 43.3072 18.7771 43.2771C18.6042 43.2696 18.4312 43.2621 18.2658 43.2545C18.0552 43.247 17.8522 43.2395 17.6567 43.232C17.4762 43.232 17.3032 43.232 17.1228 43.2245H17.1002C16.9197 43.2245 16.7392 43.2245 16.5588 43.2245C15.1525 43.2245 13.7313 43.2997 12.3326 43.4425C11.934 43.4877 11.6483 43.8411 11.6859 44.2321C11.7084 44.4652 11.8438 44.6758 12.0544 44.7886C12.1596 44.8488 12.28 44.8788 12.4078 44.8788C12.4304 44.8788 12.4604 44.8788 12.483 44.8788C12.6785 44.8563 12.874 44.8412 13.062 44.8262C13.2726 44.8036 13.4756 44.7886 13.6862 44.7736C13.7539 44.7736 13.8291 44.766 13.9043 44.7585C14.7841 44.6984 15.6714 44.6683 16.5437 44.6683C16.8069 44.6683 17.0701 44.6683 17.3258 44.6683H17.3484C17.5213 44.6683 17.6943 44.6683 17.8672 44.6833H17.9048C18.1755 44.6908 18.4463 44.7059 18.717 44.7209C18.9952 44.736 19.2734 44.751 19.5517 44.7736H19.5968C19.7622 44.7886 19.9352 44.8036 20.1006 44.8187C20.1382 44.8187 20.1683 44.8187 20.2059 44.8262C20.7549 44.8788 21.2963 44.9465 21.8302 45.0217C21.8904 45.0292 21.9505 45.0443 22.0107 45.0443C22.1761 45.0668 22.3416 45.0969 22.4995 45.127C23.3417 45.2699 24.1689 45.4504 24.9585 45.6534C25.2893 45.7436 25.6202 45.8339 25.9361 45.9316C26.0639 45.9692 26.1917 46.0143 26.3196 46.0519C26.6655 46.1647 27.0039 46.2851 27.3347 46.4054C27.4475 46.4505 27.5603 46.4881 27.6656 46.5332C27.8311 46.6009 27.9965 46.6686 28.1469 46.7363C28.2221 46.7663 28.2973 46.8039 28.3725 46.834C28.6056 46.9393 28.8312 47.0446 29.0568 47.1498C29.3501 47.2927 29.6283 47.4431 29.9065 47.5935C31.6737 48.5711 34.035 50.2932 35.2908 52.9778C35.6066 53.6546 36.3511 55.2337 35.7946 55.9632C35.6442 56.1662 35.3434 56.3692 35.1103 56.3692H35.1028C35.1028 56.3692 35.0727 56.3692 35.0577 56.3692C34.7644 56.3241 34.4561 55.73 34.0726 54.9781C33.8319 54.5193 33.5612 53.993 33.2003 53.3989C32.7491 52.6544 32.2302 51.9325 31.6737 51.2557C31.591 51.158 31.5083 51.0602 31.4256 50.97C31.3353 50.8647 31.2376 50.7519 31.1398 50.6466C30.9969 50.4887 30.7939 50.406 30.5758 50.4135C30.448 50.4135 30.3277 50.4586 30.2149 50.5263C29.9441 50.6917 29.8163 51.0301 29.9065 51.3384C29.9065 51.361 29.9216 51.3835 29.9291 51.4061C29.9893 51.5715 30.0569 51.7219 30.1171 51.8723C30.1773 52.0378 30.2449 52.1882 30.3051 52.3386L30.3728 52.5115C30.7488 53.444 31.0796 54.2637 31.3804 55.0006L31.4105 55.0758C31.4331 55.1285 31.4481 55.1736 31.4707 55.2187L31.5158 55.3165C31.9144 56.3016 32.2302 57.0761 32.0723 58.0161C32.0121 58.3695 31.9294 58.723 31.6963 58.8809C31.4707 59.0313 31.0947 58.9937 30.824 58.911C30.7939 58.9034 30.7713 58.8884 30.7488 58.8884C30.1998 58.6703 29.9291 58.0161 29.4629 56.7828C29.3952 56.6024 29.3275 56.4144 29.2523 56.2264C28.6808 54.7449 28.0491 53.2334 27.3723 51.737C27.3122 51.5941 27.2069 51.4813 27.064 51.4061C27.0415 51.3986 27.0264 51.3835 27.0039 51.376H26.9888C26.9888 51.376 26.9437 51.3535 26.9136 51.3535C26.8384 51.3309 26.7632 51.3159 26.688 51.3234C26.6204 51.3234 26.5527 51.3384 26.4925 51.3535C26.1391 51.4663 25.9285 51.8197 26.0037 52.1807C26.2895 53.6771 26.3647 55.1585 26.2293 56.5948C26.1466 57.4897 25.9661 58.6177 25.5826 58.8809C25.3721 59.0238 25.0713 59.1065 24.7855 59.1065C24.7329 59.1065 24.6802 59.1065 24.6276 59.099C24.4697 59.0764 24.3343 59.0313 24.2441 58.9561C24.011 58.7681 24.026 58.3094 24.0711 57.4972C24.1162 56.7227 24.1764 55.7601 23.9057 54.6848C23.5071 53.1056 22.4844 51.6693 20.8601 50.4135C20.8376 50.3984 20.815 50.3834 20.8 50.3684C20.7774 50.3533 20.7549 50.3458 20.7323 50.3308C20.7323 50.3308 20.7173 50.3308 20.7097 50.3232C20.7097 50.3232 20.7097 50.3232 20.7022 50.3232C20.7022 50.3232 20.7022 50.3232 20.6872 50.3232C20.6797 50.3232 20.6646 50.3157 20.6571 50.3082C20.5819 50.2781 20.4992 50.2631 20.4165 50.2631C20.3713 50.2631 20.3262 50.2631 20.2736 50.2781C17.0325 50.9098 13.7839 51.173 10.6256 51.0527H10.5654C10.3398 51.0452 10.1067 51.0301 9.88112 51.0151C9.23441 50.9775 8.5877 50.9248 7.94851 50.8572C7.53492 50.812 6.91077 50.7444 6.26406 50.6391C6.21894 50.6391 6.18134 50.624 6.13622 50.6165C6.11366 50.6165 6.09862 50.6165 6.07606 50.609C5.96326 50.5864 5.85798 50.5639 5.75271 50.5488H5.71511C5.63239 50.5263 5.54967 50.5037 5.46695 50.4887H5.44439C5.25639 50.4436 5.08344 50.3984 4.918 50.3533C4.91048 50.3533 4.89544 50.3533 4.88792 50.3458C4.73752 50.3007 4.59464 50.2631 4.46681 50.218C4.35401 50.1804 4.24873 50.1428 4.15097 50.0976H4.12841C4.02313 50.045 3.9329 50.0074 3.84266 49.9623C3.62458 49.857 3.43658 49.7367 3.29371 49.6089C3.25611 49.5788 3.21851 49.5412 3.18843 49.5111C3.12827 49.4509 3.07563 49.3833 3.03803 49.3156C2.89515 49.0825 2.78987 48.8117 2.72971 48.5109C2.70716 48.4207 2.69964 48.323 2.69212 48.2252C2.6846 48.0974 2.67708 47.977 2.67708 47.8492C2.67708 47.6086 2.71468 47.3454 2.75979 47.0671L2.73723 47.022ZM10.0842 52.4288C9.97888 52.7371 9.89616 53.053 9.84352 53.3613C9.7984 53.632 9.77584 53.9027 9.77584 54.1734C9.27201 53.5643 8.85089 52.9477 8.53506 52.3235C9.00129 52.3687 9.4976 52.3987 10.0014 52.4288H10.0842ZM3.08315 51.1655C3.25611 51.2557 3.4441 51.3384 3.65466 51.4136C3.71482 51.4362 3.7825 51.4587 3.84266 51.4813C4.00057 51.5415 4.17353 51.5941 4.35401 51.6467C4.42921 51.6693 4.50441 51.6919 4.5796 51.7069C4.66232 51.7295 4.73752 51.752 4.82024 51.7671C5.40679 51.9099 6.08358 52.0303 6.87317 52.1355C6.94837 52.3235 7.03108 52.519 7.12132 52.7146C7.1514 52.7747 7.18148 52.8424 7.21908 52.9026C7.24916 52.9627 7.27924 53.0229 7.30932 53.0755C7.36196 53.1808 7.42212 53.2861 7.48228 53.3838C7.60259 53.5944 7.73795 53.805 7.88083 54.023C7.95603 54.1358 8.03875 54.2561 8.12147 54.3689C9.50512 56.279 11.6633 58.0913 14.5434 59.7607C17.4386 61.4452 21.0105 62.9491 25.169 64.2501C25.9361 64.4907 26.7332 64.7238 27.5453 64.9494L27.6957 64.9945C27.9589 65.0697 28.2371 65.1374 28.5154 65.2201C28.583 65.2427 28.6507 65.2577 28.7259 65.2728C28.9816 65.3405 29.2448 65.4081 29.5155 65.4758C29.5982 65.4984 29.681 65.5209 29.7637 65.536C30.0795 65.6187 30.3653 65.6864 30.651 65.7541C31.4331 65.9421 32.2527 66.1301 33.0875 66.3105C33.2153 66.3406 33.3431 66.3632 33.4634 66.3932C42.0963 68.2131 51.9924 69.1756 62.0916 69.1756C76.8757 69.1756 90.7875 67.1603 101.263 63.5131C111.971 59.7757 117.874 54.7149 117.874 49.2554C117.874 46.8415 116.731 44.4878 114.468 42.2845L116.438 39.9082C120.205 42.8635 122.123 46.0143 122.123 49.2554C122.123 52.1355 120.596 54.9555 117.588 57.6476C114.595 60.3172 110.294 62.7235 104.797 64.799C100.541 66.4008 95.728 67.7543 90.4791 68.8147C90.4265 68.8147 90.3663 68.8297 90.2987 68.8523C86.0123 69.7095 81.4403 70.3713 76.7253 70.8074C71.9727 71.2511 67.0472 71.4767 62.0916 71.4767C55.5568 71.4767 49.1349 71.0857 43.0137 70.3261C42.9761 70.3186 42.931 70.3111 42.8934 70.3111C38.5168 69.7622 34.3057 69.0177 30.3728 68.1003C26.4173 67.1753 22.7175 66.0699 19.3862 64.8141C19.3336 64.7915 19.281 64.769 19.2283 64.7539C19.1982 64.7464 19.1757 64.7314 19.1456 64.7238C18.9576 64.6562 18.7771 64.581 18.5891 64.5133C18.4463 64.4606 18.3034 64.4005 18.1755 64.3478C17.965 64.2651 17.7619 64.1824 17.5589 64.0997C17.2882 63.9869 17.025 63.8741 16.7693 63.7688C16.6415 63.7162 16.5061 63.656 16.3708 63.5958C12.3025 61.8212 9.00881 59.8209 6.59493 57.6702C5.62487 56.8054 4.79768 55.9105 4.13593 55.0157C3.47418 54.1208 2.97035 53.2034 2.62444 52.2859C2.59436 52.2107 2.5718 52.1431 2.54172 52.0679C2.43644 51.7746 2.35372 51.4738 2.28604 51.1805C2.24844 51.0376 2.21836 50.8872 2.1958 50.7368C2.18076 50.6616 2.17324 50.594 2.1582 50.5188C2.40636 50.7744 2.70716 51 3.08315 51.188V51.1655ZM118.942 78.4777L118.092 77.8987C117.882 77.7558 117.656 77.628 117.43 77.5152C117.43 77.5152 117.423 77.5152 117.415 77.5152C117.415 77.5152 117.408 77.5152 117.4 77.5152C117.272 77.455 117.13 77.3948 117.002 77.3497C116.957 77.3347 116.912 77.3196 116.866 77.3046C116.814 77.2896 116.761 77.267 116.701 77.252C116.626 77.2294 116.551 77.2068 116.468 77.1918C116.272 77.1467 116.077 77.1091 115.881 77.0865C115.859 77.0865 115.836 77.0865 115.814 77.0865C115.678 77.0715 115.535 77.064 115.4 77.064H115.325C114.686 77.064 114.054 77.1918 113.46 77.4324L110.625 78.598C110.219 78.7635 109.768 78.8537 109.324 78.8537C109.264 78.8537 109.196 78.8537 109.136 78.8537L107.579 78.771C105.797 78.6807 104.105 79.5681 103.165 81.0796C102.248 82.5685 102.188 84.4485 103.022 85.9901L104.82 89.3214C105.053 89.7575 105.353 90.1561 105.714 90.502C105.767 90.5547 105.827 90.6073 105.895 90.6674C106.316 91.0359 106.79 91.3292 107.301 91.5398L111.121 93.0738C109.264 95.6231 107.188 98.052 104.955 100.278C99.3902 105.843 92.9005 110.219 85.6815 113.272C78.2067 116.438 70.2657 118.04 62.0841 118.04C61.2719 118.04 60.4448 118.025 59.6326 117.995C57.8504 117.927 56.0532 117.777 54.2935 117.551C53.9626 117.506 53.6167 117.461 53.2708 117.408C52.5714 117.303 51.8646 117.19 51.1652 117.062C48.9995 116.671 46.8338 116.152 44.7357 115.521C42.6302 114.889 40.5246 114.137 38.4867 113.272C36.4037 112.392 34.3508 111.385 32.3806 110.272C31.9294 110.024 31.4782 109.76 31.042 109.497C30.7488 109.324 30.448 109.144 30.1622 108.956C28.8538 108.144 27.5528 107.271 26.312 106.354C23.8154 104.527 21.4316 102.481 19.2208 100.27C13.8291 94.8786 9.55776 88.622 6.51973 81.6737C6.42197 81.4481 6.32422 81.2225 6.22646 80.9969C5.73767 79.8313 5.27143 78.6432 4.85784 77.455C4.76008 77.1843 4.66984 76.9061 4.54952 76.5601C4.39913 76.1089 4.26377 75.7029 4.14345 75.3043C3.97801 74.7629 3.81258 74.2215 3.66218 73.68C3.5569 73.3191 3.45914 72.9506 3.3689 72.5896C3.28619 72.2738 3.20347 71.9504 3.12075 71.597C3.09819 71.5143 3.08315 71.4391 3.06059 71.3639C2.94779 70.8977 2.84251 70.4239 2.74475 69.9577C2.72971 69.8825 2.71468 69.8073 2.69964 69.7321C2.28604 67.7318 1.97021 65.6713 1.75965 63.6334C1.54909 61.588 1.45134 59.49 1.45134 57.4145C1.45134 56.4068 1.50398 55.0909 1.60925 53.6094C2.54924 55.6022 4.13593 57.5348 6.33174 59.3546C8.54258 61.182 11.3701 62.8965 14.739 64.4456L10.7835 70.2735C10.2872 71.0029 10.2872 71.9204 10.7835 72.6724L14.4758 78.3123C14.5585 78.4401 14.6036 78.5755 14.6036 78.7033L14.8217 85.8472C14.8367 86.3962 15.0698 86.9301 15.4834 87.3512L17.6567 89.5771C17.6567 89.5771 17.6943 89.6222 17.7168 89.6372C17.8221 89.7651 17.8823 89.9004 17.9048 90.0433L18.9877 97.9843C19.0779 98.6385 19.469 99.2326 20.063 99.6312C20.5217 99.932 21.0557 100.09 21.6046 100.09C21.9505 100.09 22.2889 100.03 22.6123 99.9019C22.6574 99.8793 22.7025 99.8643 22.7476 99.8417C23.0785 99.6913 23.3567 99.4883 23.5823 99.2326C23.8079 98.9769 23.9658 98.6761 24.0486 98.3453L25.7255 91.818C25.7556 91.6977 25.7781 91.5774 25.7857 91.4495L26.0564 87.8701C26.0564 87.7723 26.094 87.6821 26.1391 87.5993C26.1842 87.5166 26.2519 87.4339 26.3271 87.3737C26.3647 87.3437 26.4098 87.3136 26.4549 87.2835C26.5226 87.2384 26.5978 87.2083 26.6805 87.1782C26.7632 87.1481 26.8535 87.1331 26.9512 87.1181C27.0716 87.103 27.1843 87.0579 27.2821 86.9902L30.26 84.9072C30.3653 84.8847 30.4781 84.8621 30.5833 84.8245C30.7939 84.7568 30.9894 84.6666 31.1699 84.5538C31.6286 84.268 31.967 83.8544 32.1324 83.3732L33.4258 80.8314C33.4258 80.8314 33.4634 80.7562 33.471 80.7186C33.7793 79.7335 33.3356 78.6807 32.3731 78.1017L27.9363 75.4547C27.9363 75.4547 27.8687 75.4096 27.8235 75.3795C27.7935 75.357 27.7634 75.3344 27.7408 75.3118C27.7408 75.3118 27.7408 75.3118 27.7333 75.3118C27.6581 75.2442 27.5979 75.169 27.5528 75.0787C27.5303 75.0411 27.5152 75.011 27.5077 74.9734L25.5601 69.9201C25.4473 69.6343 25.2818 69.3711 25.0637 69.1455L23.8004 67.822C24.4095 68.01 25.0487 68.198 25.6954 68.3785C25.8609 68.4236 26.0263 68.4687 26.1767 68.5139C26.9136 68.7169 27.6731 68.9124 28.4251 69.1079C28.6131 69.153 28.8011 69.2057 28.9966 69.2508C29.1696 69.2959 29.3576 69.341 29.5456 69.3862C29.9366 69.4764 30.3352 69.5742 30.7337 69.6644C30.9067 69.702 31.0796 69.7471 31.2526 69.7847C32.5911 70.078 33.9823 70.3638 35.3735 70.6194C37.6971 71.0481 40.1185 71.424 42.5625 71.7324L50.0297 78.3348C50.2929 78.568 50.6163 78.7183 50.9697 78.771L59.5048 80.0795C59.5048 80.0795 59.5349 80.0794 59.5499 80.087C59.5499 80.087 59.5725 80.087 59.5875 80.102C59.6101 80.1095 59.6326 80.1246 59.6552 80.1396L62.9865 82.6738C62.9865 82.6738 63.0015 82.6889 63.009 82.6889C63.009 82.6889 63.0316 82.7114 63.0466 82.7264C63.1519 82.8468 63.167 83.0122 63.0993 83.1476L60.7831 87.7723C60.7831 87.7723 60.7531 87.84 60.738 87.8776C60.6328 88.1257 60.5801 88.404 60.5952 88.6822C60.6102 88.9529 60.6854 89.2312 60.8132 89.4718L61.7231 91.1487L62.9639 95.6306L64.9416 101.579C64.9642 101.631 64.9792 101.684 65.0018 101.737L66.5509 105.264C66.6712 105.534 66.8517 105.775 67.0848 105.955L67.145 106.001C67.4683 106.256 67.8744 106.399 68.288 106.399C68.6113 106.399 68.9347 106.316 69.2129 106.151L75.8079 104.97C75.9959 104.933 76.1613 104.835 76.2666 104.677L81.4703 97.3677C81.6132 97.2474 81.741 97.112 81.8388 96.9541L84.3204 93.1866C84.6287 92.7279 84.7039 92.1564 84.5384 91.6225L83.7413 89.0883C83.7037 88.9755 83.7188 88.8552 83.7865 88.7574L85.7266 85.8397C85.9296 85.5389 86.0349 85.1855 86.0349 84.8245V80.1396C86.0349 80.0945 86.0424 80.0494 86.0575 80.0042L87.6291 75.8082C87.6291 75.8082 87.6517 75.763 87.6592 75.748L90.9529 70.1758C96.2018 69.1079 101.022 67.7543 105.286 66.1451C109.828 64.4306 113.618 62.4679 116.551 60.3172C119.461 58.1815 121.491 55.888 122.589 53.4891V53.5342C122.657 54.8126 122.694 56.106 122.702 57.3844C122.702 64.6486 121.431 71.7474 118.934 78.4777H118.942Z" fill="#010101"/>
<path d="M224.187 32.8792H221.004V17.9545H204.53V32.8792H201.348V1.05133H204.53V15.0728H221.004V1.05133H224.187V32.8792Z" fill="#010101"/>
<path d="M257.977 5.30938C261.303 8.52085 262.966 12.4061 262.966 16.9653C262.966 21.5244 261.303 25.4097 257.977 28.6212C254.651 31.8326 250.694 33.4384 246.106 33.4384C241.604 33.4384 237.676 31.847 234.321 28.6642C230.966 25.4527 229.289 21.6104 229.289 17.1373C229.289 12.5208 230.923 8.59253 234.192 5.35239C237.489 2.11226 241.461 0.492188 246.106 0.492188C250.694 0.492188 254.651 2.09792 257.977 5.30938ZM255.74 26.5997C258.436 23.933 259.784 20.7359 259.784 17.0083C259.784 13.2807 258.436 10.0836 255.74 7.41691C253.074 4.72157 249.862 3.3739 246.106 3.3739C242.321 3.3739 239.095 4.72157 236.428 7.41691C233.79 10.1122 232.471 13.3524 232.471 17.1373C232.471 20.8076 233.819 23.9617 236.514 26.5997C239.238 29.2377 242.436 30.5567 246.106 30.5567C249.834 30.5567 253.045 29.2377 255.74 26.5997Z" fill="#010101"/>
<path d="M285.123 2.90079C287.761 4.70723 289.08 7.2592 289.08 10.5567C289.08 13.8542 287.761 16.4061 285.123 18.2126C283.317 19.4456 280.578 20.062 276.908 20.062H271.231V32.8792H268.048V1.05133H276.908C280.578 1.05133 283.317 1.66781 285.123 2.90079ZM282.198 16.3631C284.664 15.1875 285.897 13.252 285.897 10.5567C285.897 7.86135 284.664 5.92587 282.198 4.75024C281.051 4.20544 279.231 3.93304 276.736 3.93304H271.231V17.1803H276.736C279.231 17.1803 281.051 16.9079 282.198 16.3631Z" fill="#010101"/>
<path d="M242.913 75.8904H239.429L234.827 65.1807H220.031L215.386 75.8904H212.074L225.666 44.0625H229.236L242.913 75.8904ZM233.58 62.299L227.472 47.6754L221.236 62.299H233.58Z" fill="#010101"/>
<path d="M267.999 54.3421C267.999 57.0087 267.096 59.2453 265.289 61.0517C263.483 62.8582 261.232 63.8474 258.536 64.0195L267.526 75.8904H263.526L252.73 61.4818C256.286 61.4818 258.565 61.3241 259.569 61.0087C261.146 60.5213 262.407 59.6897 263.354 58.5141C264.329 57.3098 264.816 55.8904 264.816 54.256C264.816 53.0231 264.501 51.8474 263.87 50.7292C263.239 49.5822 262.393 48.722 261.332 48.1485C259.841 47.3456 257.777 46.9442 255.139 46.9442H249.59V75.8904H246.407V44.0625H254.493C258.049 44.0625 260.658 44.4639 262.321 45.2668C264.099 46.127 265.49 47.36 266.494 48.9657C267.497 50.5714 267.999 52.3636 267.999 54.3421Z" fill="#010101"/>
<path d="M287.796 46.9442H280.527V75.8904H277.344V46.9442H270.033V44.0625H287.796V46.9442Z" fill="#010101"/>
<path d="M178.218 116.946H175.035V102.021H158.562V116.946H155.379V85.1177H158.562V99.1392H175.035V85.1177H178.218V116.946Z" fill="#010101"/>
<path d="M212.008 89.3758C215.334 92.5873 216.998 96.4726 216.998 101.032C216.998 105.591 215.334 109.476 212.008 112.688C208.682 115.899 204.725 117.505 200.137 117.505C195.635 117.505 191.707 115.913 188.352 112.731C184.997 109.519 183.32 105.677 183.32 101.204C183.32 96.5872 184.954 92.6589 188.223 89.4188C191.521 86.1787 195.492 84.5586 200.137 84.5586C204.725 84.5586 208.682 86.1643 212.008 89.3758ZM209.772 110.666C212.467 107.999 213.815 104.802 213.815 101.075C213.815 97.3471 212.467 94.15 209.772 91.4833C207.105 88.788 203.893 87.4403 200.137 87.4403C196.352 87.4403 193.126 88.788 190.46 91.4833C187.822 94.1786 186.503 97.4188 186.503 101.204C186.503 104.874 187.85 108.028 190.546 110.666C193.27 113.304 196.467 114.623 200.137 114.623C203.865 114.623 207.076 113.304 209.772 110.666Z" fill="#010101"/>
<path d="M243.757 104.946C243.757 107.641 243.355 109.849 242.552 111.569C241.663 113.49 240.373 114.967 238.681 115.999C236.99 117.003 235.068 117.505 232.918 117.505C230.767 117.505 228.846 117.003 227.154 115.999C225.463 114.967 224.172 113.49 223.283 111.569C222.48 109.849 222.079 107.641 222.079 104.946V85.1177H225.262V104.946C225.262 107.498 225.62 109.419 226.337 110.709C227.771 113.318 229.964 114.623 232.918 114.623C235.871 114.623 238.065 113.318 239.499 110.709C240.215 109.419 240.574 107.498 240.574 104.946V85.1177H243.757V104.946Z" fill="#010101"/>
<path d="M267.382 108.171C267.382 110.809 266.435 113.032 264.543 114.838C262.679 116.616 260.428 117.505 257.79 117.505C254.951 117.505 252.614 116.645 250.779 114.924C248.944 113.175 248.012 110.881 247.984 108.042H251.166C251.252 110.021 251.883 111.612 253.059 112.817C254.234 114.021 255.812 114.623 257.79 114.623C259.568 114.623 261.073 114.021 262.306 112.817C263.568 111.584 264.199 110.078 264.199 108.3C264.199 106.379 263.568 104.931 262.306 103.956C261.045 102.982 259.31 102.164 257.102 101.505C255.783 101.103 254.693 100.731 253.833 100.387C253.002 100.014 252.156 99.5263 251.295 98.9242C250.464 98.2933 249.847 97.5048 249.446 96.5586C249.044 95.5837 248.844 94.4367 248.844 93.1177C248.844 90.6518 249.704 88.6159 251.424 87.0102C253.174 85.3758 255.295 84.5586 257.79 84.5586C260.256 84.5586 262.335 85.3901 264.027 87.0532C265.747 88.6876 266.607 90.7378 266.607 93.2037H263.425C263.425 91.6554 262.865 90.3077 261.747 89.1607C260.658 88.0138 259.339 87.4403 257.79 87.4403C256.184 87.4403 254.822 87.9708 253.704 89.0317C252.586 90.064 252.027 91.383 252.027 92.9887C252.027 93.5908 252.098 94.1356 252.242 94.6231C252.385 95.0819 252.629 95.4976 252.973 95.8704C253.346 96.2432 253.661 96.5586 253.919 96.8166C254.206 97.046 254.665 97.2898 255.295 97.5478C255.926 97.8059 256.371 97.9923 256.629 98.107C256.916 98.193 257.432 98.3507 258.177 98.5801C258.951 98.7808 259.425 98.9098 259.597 98.9672C264.787 100.544 267.382 103.612 267.382 108.171Z" fill="#010101"/>
<path d="M288.889 116.946H271.47V85.1177H288.889V87.9994H274.653V99.4403H288.416V102.322H274.653V114.064H288.889V116.946Z" fill="#010101"/>
</svg>
